<svg xmlns="http://www.w3.org/2000/svg" xmlns:xlink="http://www.w3.org/1999/xlink" contentStyleType="text/css" height="696px" preserveAspectRatio="none" style="width:3953px;height:696px;background:#474A55;" version="1.1" viewBox="0 0 3953 696" width="3953px" zoomAndPan="magnify"><defs/><g><rect fill="#474A55" height="696" style="stroke:none;stroke-width:1.0;" width="3953" x="0" y="0"/><g id="elem_52"><ellipse cx="3658.1207" cy="171.9301" fill="#ECA54E" rx="110.1207" ry="38.9301" style="stroke:#ECA54E;stroke-width:0.5;"/><text fill="#FFFFFF" font-family="sans-serif" font-size="20" lengthAdjust="spacing" textLength="138" x="3586.1207" y="166.9828">0.36 Assembler</text><text fill="#FFFFFF" font-family="sans-serif" font-size="20" lengthAdjust="spacing" textLength="78" x="3616.1207" y="192.139">(5.33 W)</text></g><!--entity 53--><g id="elem_53"><rect fill="#5BB0C5" height="31.1563" rx="2.5" ry="2.5" style="stroke:#5BB0C5;stroke-width:0.5;" width="134" x="3294.5" y="101.5"/><text fill="#FFFFFF" font-family="sans-serif" font-size="20" lengthAdjust="spacing" textLength="114" x="3304.5" y="125.2617">Circuit Board</text></g><!--entity 70--><g id="elem_70"><rect fill="#5BB0C5" height="31.1563" rx="2.5" ry="2.5" style="stroke:#5BB0C5;stroke-width:0.5;" width="171" x="3276" y="195.5"/><text fill="#FFFFFF" font-family="sans-serif" font-size="20" lengthAdjust="spacing" textLength="151" x="3286" y="219.2617">Crystal Oscillator</text></g><g id="elem_54"><ellipse cx="3096.1207" cy="98.9301" fill="#ECA54E" rx="110.1207" ry="38.9301" style="stroke:#ECA54E;stroke-width:0.5;"/><text fill="#FFFFFF" font-family="sans-serif" font-size="20" lengthAdjust="spacing" textLength="138" x="3024.1207" y="93.9828">0.21 Assembler</text><text fill="#FFFFFF" font-family="sans-serif" font-size="20" lengthAdjust="spacing" textLength="67" x="3059.6207" y="119.139">(3.2 W)</text></g><!--entity 55--><g id="elem_55"><rect fill="#5BB0C5" height="31.1563" rx="2.5" ry="2.5" style="stroke:#5BB0C5;stroke-width:0.5;" width="142" x="2175" y="21.5"/><text fill="#FFFFFF" font-family="sans-serif" font-size="20" lengthAdjust="spacing" textLength="122" x="2185" y="45.2617">Copper Sheet</text></g><!--entity 65--><g id="elem_65"><rect fill="#5BB0C5" height="31.1563" rx="2.5" ry="2.5" style="stroke:#5BB0C5;stroke-width:0.5;" width="66" x="2745.5" y="83.5"/><text fill="#FFFFFF" font-family="sans-serif" font-size="20" lengthAdjust="spacing" textLength="46" x="2755.5" y="107.2617">Silica</text></g><g id="elem_56"><ellipse cx="1873.669" cy="44.9684" fill="#ECA54E" rx="116.669" ry="38.9684" style="stroke:#ECA54E;stroke-width:0.5;"/><text fill="#FFFFFF" font-family="sans-serif" font-size="20" lengthAdjust="spacing" textLength="147" x="1797.169" y="40.0211">0.59 Constructor</text><text fill="#FFFFFF" font-family="sans-serif" font-size="20" lengthAdjust="spacing" textLength="78" x="1831.669" y="65.1774">(2.35 W)</text></g><!--entity 57--><g id="elem_57"><rect fill="#5BB0C5" height="31.1563" rx="2.5" ry="2.5" style="stroke:#5BB0C5;stroke-width:0.5;" width="135" x="1333" y="40.5"/><text fill="#FFFFFF" font-family="sans-serif" font-size="20" lengthAdjust="spacing" textLength="115" x="1343" y="64.2617">Copper Ingot</text></g><g id="elem_66"><ellipse cx="2463.669" cy="98.9684" fill="#ECA54E" rx="116.669" ry="38.9684" style="stroke:#ECA54E;stroke-width:0.5;"/><text fill="#FFFFFF" font-family="sans-serif" font-size="20" lengthAdjust="spacing" textLength="147" x="2387.169" y="94.0211">0.16 Constructor</text><text fill="#FFFFFF" font-family="sans-serif" font-size="20" lengthAdjust="spacing" textLength="78" x="2421.669" y="119.1774">(0.63 W)</text></g><!--entity 67--><g id="elem_67"><rect fill="#5BB0C5" height="31.1563" rx="2.5" ry="2.5" style="stroke:#5BB0C5;stroke-width:0.5;" width="125" x="2020" y="106.5"/><text fill="#FFFFFF" font-family="sans-serif" font-size="20" lengthAdjust="spacing" textLength="105" x="2030" y="130.2617">Raw Quartz</text></g><g id="elem_71"><ellipse cx="3095.8518" cy="244.9802" fill="#ECA54E" rx="118.8518" ry="38.9802" style="stroke:#ECA54E;stroke-width:0.5;"/><text fill="#FFFFFF" font-family="sans-serif" font-size="20" lengthAdjust="spacing" textLength="150" x="3017.8518" y="240.0329">1.0 Manufacturer</text><text fill="#FFFFFF" font-family="sans-serif" font-size="20" lengthAdjust="spacing" textLength="78" x="3053.8518" y="265.1892">(55.0 W)</text></g><!--entity 72--><g id="elem_72"><rect fill="#5BB0C5" height="31.1563" rx="2.5" ry="2.5" style="stroke:#5BB0C5;stroke-width:0.5;" width="147" x="2705" y="197.5"/><text fill="#FFFFFF" font-family="sans-serif" font-size="20" lengthAdjust="spacing" textLength="127" x="2715" y="221.2617">Quartz Crystal</text></g><!--entity 77--><g id="elem_77"><rect fill="#5BB0C5" height="31.1563" rx="2.5" ry="2.5" style="stroke:#5BB0C5;stroke-width:0.5;" width="71" x="2743" y="291.5"/><text fill="#FFFFFF" font-family="sans-serif" font-size="20" lengthAdjust="spacing" textLength="51" x="2753" y="315.2617">Cable</text></g><!--entity 94--><g id="elem_94"><rect fill="#5BB0C5" height="31.1563" rx="2.5" ry="2.5" style="stroke:#5BB0C5;stroke-width:0.5;" width="195" x="2681" y="369.5"/><text fill="#FFFFFF" font-family="sans-serif" font-size="20" lengthAdjust="spacing" textLength="175" x="2691" y="393.2617">Reinforced Iron Plat</text></g><g id="elem_73"><ellipse cx="2463.6655" cy="211.9209" fill="#ECA54E" rx="108.6655" ry="38.9209" style="stroke:#ECA54E;stroke-width:0.5;"/><text fill="#FFFFFF" font-family="sans-serif" font-size="20" lengthAdjust="spacing" textLength="136" x="2392.6655" y="206.9737">0.8 Constructor</text><text fill="#FFFFFF" font-family="sans-serif" font-size="20" lengthAdjust="spacing" textLength="67" x="2427.1655" y="232.1299">(3.2 W)</text></g><!--entity 74--><g id="elem_74"><rect fill="#5BB0C5" height="31.1563" rx="2.5" ry="2.5" style="stroke:#5BB0C5;stroke-width:0.5;" width="125" x="2020" y="179.5"/><text fill="#FFFFFF" font-family="sans-serif" font-size="20" lengthAdjust="spacing" textLength="105" x="2030" y="203.2617">Raw Quartz</text></g><g id="elem_75"><ellipse cx="1612.4862" cy="162.9561" fill="#ECA54E" rx="114.4862" ry="38.9561" style="stroke:#ECA54E;stroke-width:0.5;"/><text fill="#FFFFFF" font-family="sans-serif" font-size="20" lengthAdjust="spacing" textLength="144" x="1537.4862" y="158.0088">0.28 Miner Mk.2</text><text fill="#FFFFFF" font-family="sans-serif" font-size="20" lengthAdjust="spacing" textLength="78" x="1570.4862" y="183.1651">(3.35 W)</text></g><!--entity 76--><g id="elem_76"><polygon fill="#6A9058" points="1139,145.5,1149,135.5,1286,135.5,1286,180.6563,1276,190.6563,1139,190.6563,1139,145.5" style="stroke:#6A9058;stroke-width:0.5;"/><line style="stroke:#6A9058;stroke-width:0.5;" x1="1276" x2="1286" y1="145.5" y2="135.5"/><line style="stroke:#6A9058;stroke-width:0.5;" x1="1139" x2="1276" y1="145.5" y2="145.5"/><line style="stroke:#6A9058;stroke-width:0.5;" x1="1276" x2="1276" y1="145.5" y2="190.6563"/><text fill="#FFFFFF" font-family="sans-serif" font-size="20" lengthAdjust="spacing" textLength="107" x="1154" y="176.2617">Quartz Mine</text></g><g id="elem_78"><ellipse cx="2463.669" cy="324.9684" fill="#ECA54E" rx="116.669" ry="38.9684" style="stroke:#ECA54E;stroke-width:0.5;"/><text fill="#FFFFFF" font-family="sans-serif" font-size="20" lengthAdjust="spacing" textLength="147" x="2387.169" y="320.0211">0.47 Constructor</text><text fill="#FFFFFF" font-family="sans-serif" font-size="20" lengthAdjust="spacing" textLength="78" x="2421.669" y="345.1774">(1.87 W)</text></g><!--entity 79--><g id="elem_79"><rect fill="#5BB0C5" height="31.1563" rx="2.5" ry="2.5" style="stroke:#5BB0C5;stroke-width:0.5;" width="61" x="2052" y="305.5"/><text fill="#FFFFFF" font-family="sans-serif" font-size="20" lengthAdjust="spacing" textLength="41" x="2062" y="329.2617">Wire</text></g><g id="elem_82"><ellipse cx="925.6145" cy="177.814" fill="#ECA54E" rx="94.1145" ry="38.814" style="stroke:#ECA54E;stroke-width:0.5;"/><text fill="#FFFFFF" font-family="sans-serif" font-size="20" lengthAdjust="spacing" textLength="116" x="864.6145" y="172.8668">0.18 Foundry</text><text fill="#FFFFFF" font-family="sans-serif" font-size="20" lengthAdjust="spacing" textLength="78" x="883.6145" y="198.023">(2.83 W)</text></g><!--entity 83--><g id="elem_83"><rect fill="#5BB0C5" height="31.1563" rx="2.5" ry="2.5" style="stroke:#5BB0C5;stroke-width:0.5;" width="125" x="597" y="139.5"/><text fill="#FFFFFF" font-family="sans-serif" font-size="20" lengthAdjust="spacing" textLength="105" x="607" y="163.2617">Copper Ore</text></g><!--entity 86--><g id="elem_86"><rect fill="#5BB0C5" height="31.1563" rx="2.5" ry="2.5" style="stroke:#5BB0C5;stroke-width:0.5;" width="94" x="612.5" y="272.5"/><text fill="#FFFFFF" font-family="sans-serif" font-size="20" lengthAdjust="spacing" textLength="74" x="622.5" y="296.2617">Iron Ore</text></g><g id="elem_84"><ellipse cx="406.4862" cy="187.9561" fill="#ECA54E" rx="114.4862" ry="38.9561" style="stroke:#ECA54E;stroke-width:0.5;"/><text fill="#FFFFFF" font-family="sans-serif" font-size="20" lengthAdjust="spacing" textLength="144" x="331.4862" y="183.0088">0.09 Miner Mk.2</text><text fill="#FFFFFF" font-family="sans-serif" font-size="20" lengthAdjust="spacing" textLength="78" x="364.4862" y="208.1651">(1.11 W)</text></g><!--entity 85--><g id="elem_85"><polygon fill="#6A9058" points="23,170.5,33,160.5,176,160.5,176,205.6563,166,215.6563,23,215.6563,23,170.5" style="stroke:#6A9058;stroke-width:0.5;"/><line style="stroke:#6A9058;stroke-width:0.5;" x1="166" x2="176" y1="170.5" y2="160.5"/><line style="stroke:#6A9058;stroke-width:0.5;" x1="23" x2="166" y1="170.5" y2="170.5"/><line style="stroke:#6A9058;stroke-width:0.5;" x1="166" x2="166" y1="170.5" y2="215.6563"/><text fill="#FFFFFF" font-family="sans-serif" font-size="20" lengthAdjust="spacing" textLength="113" x="38" y="201.2617">Copper Mine</text></g><g id="elem_87"><ellipse cx="406.4862" cy="433.9561" fill="#ECA54E" rx="114.4862" ry="38.9561" style="stroke:#ECA54E;stroke-width:0.5;"/><text fill="#FFFFFF" font-family="sans-serif" font-size="20" lengthAdjust="spacing" textLength="144" x="331.4862" y="429.0088">0.06 Miner Mk.2</text><text fill="#FFFFFF" font-family="sans-serif" font-size="20" lengthAdjust="spacing" textLength="78" x="364.4862" y="454.1651">(0.66 W)</text></g><!--entity 88--><g id="elem_88"><polygon fill="#6A9058" points="38.5,416.5,48.5,406.5,160.5,406.5,160.5,451.6563,150.5,461.6563,38.5,461.6563,38.5,416.5" style="stroke:#6A9058;stroke-width:0.5;"/><line style="stroke:#6A9058;stroke-width:0.5;" x1="150.5" x2="160.5" y1="416.5" y2="406.5"/><line style="stroke:#6A9058;stroke-width:0.5;" x1="38.5" x2="150.5" y1="416.5" y2="416.5"/><line style="stroke:#6A9058;stroke-width:0.5;" x1="150.5" x2="150.5" y1="416.5" y2="461.6563"/><text fill="#FFFFFF" font-family="sans-serif" font-size="20" lengthAdjust="spacing" textLength="82" x="53.5" y="447.2617">Iron Mine</text></g><g id="elem_95"><ellipse cx="2463.6207" cy="437.9301" fill="#ECA54E" rx="110.1207" ry="38.9301" style="stroke:#ECA54E;stroke-width:0.5;"/><text fill="#FFFFFF" font-family="sans-serif" font-size="20" lengthAdjust="spacing" textLength="138" x="2391.6207" y="432.9828">0.44 Assembler</text><text fill="#FFFFFF" font-family="sans-serif" font-size="20" lengthAdjust="spacing" textLength="78" x="2421.6207" y="458.139">(6.67 W)</text></g><!--entity 96--><g id="elem_96"><rect fill="#5BB0C5" height="31.1563" rx="2.5" ry="2.5" style="stroke:#5BB0C5;stroke-width:0.5;" width="105" x="2030" y="439.5"/><text fill="#FFFFFF" font-family="sans-serif" font-size="20" lengthAdjust="spacing" textLength="85" x="2040" y="463.2617">Iron Plate</text></g><!--entity 112--><g id="elem_112"><rect fill="#5BB0C5" height="31.1563" rx="2.5" ry="2.5" style="stroke:#5BB0C5;stroke-width:0.5;" width="61" x="2052" y="372.5"/><text fill="#FFFFFF" font-family="sans-serif" font-size="20" lengthAdjust="spacing" textLength="41" x="2062" y="396.2617">Wire</text></g><g id="elem_97"><ellipse cx="1612.6207" cy="454.9301" fill="#ECA54E" rx="110.1207" ry="38.9301" style="stroke:#ECA54E;stroke-width:0.5;"/><text fill="#FFFFFF" font-family="sans-serif" font-size="20" lengthAdjust="spacing" textLength="138" x="1540.6207" y="449.9828">0.11 Assembler</text><text fill="#FFFFFF" font-family="sans-serif" font-size="20" lengthAdjust="spacing" textLength="78" x="1570.6207" y="475.139">(1.67 W)</text></g><!--entity 98--><g id="elem_98"><rect fill="#5BB0C5" height="31.1563" rx="2.5" ry="2.5" style="stroke:#5BB0C5;stroke-width:0.5;" width="104" x="1160.5" y="418.5"/><text fill="#FFFFFF" font-family="sans-serif" font-size="20" lengthAdjust="spacing" textLength="84" x="1170.5" y="442.2617">Iron Ingot</text></g><!--entity 106--><g id="elem_106"><rect fill="#5BB0C5" height="31.1563" rx="2.5" ry="2.5" style="stroke:#5BB0C5;stroke-width:0.5;" width="78" x="1173.5" y="485.5"/><text fill="#FFFFFF" font-family="sans-serif" font-size="20" lengthAdjust="spacing" textLength="58" x="1183.5" y="509.2617">Plastic</text></g><g id="elem_99"><ellipse cx="925.6145" cy="433.814" fill="#ECA54E" rx="94.1145" ry="38.814" style="stroke:#ECA54E;stroke-width:0.5;"/><text fill="#FFFFFF" font-family="sans-serif" font-size="20" lengthAdjust="spacing" textLength="116" x="864.6145" y="428.8668">0.11 Foundry</text><text fill="#FFFFFF" font-family="sans-serif" font-size="20" lengthAdjust="spacing" textLength="78" x="883.6145" y="454.023">(1.78 W)</text></g><!--entity 100--><g id="elem_100"><rect fill="#5BB0C5" height="31.1563" rx="2.5" ry="2.5" style="stroke:#5BB0C5;stroke-width:0.5;" width="94" x="612.5" y="418.5"/><text fill="#FFFFFF" font-family="sans-serif" font-size="20" lengthAdjust="spacing" textLength="74" x="622.5" y="442.2617">Iron Ore</text></g><!--entity 103--><g id="elem_103"><rect fill="#5BB0C5" height="31.1563" rx="2.5" ry="2.5" style="stroke:#5BB0C5;stroke-width:0.5;" width="125" x="597" y="205.5"/><text fill="#FFFFFF" font-family="sans-serif" font-size="20" lengthAdjust="spacing" textLength="105" x="607" y="229.2617">Copper Ore</text></g><g id="elem_107"><ellipse cx="925.5695" cy="559.8262" fill="#ECA54E" rx="95.5695" ry="38.8262" style="stroke:#ECA54E;stroke-width:0.5;"/><text fill="#FFFFFF" font-family="sans-serif" font-size="20" lengthAdjust="spacing" textLength="118" x="863.5695" y="554.8789">0.06 Refinery</text><text fill="#FFFFFF" font-family="sans-serif" font-size="20" lengthAdjust="spacing" textLength="78" x="883.5695" y="580.0352">(1.67 W)</text></g><!--entity 108--><g id="elem_108"><rect fill="#692787" height="45.1563" rx="35" ry="35" style="stroke:#692787;stroke-width:0.5;" width="181" x="1122" y="551.5"/><text fill="#FFFFFF" font-family="sans-serif" font-size="20" lengthAdjust="spacing" textLength="161" x="1132" y="582.2617">Heavy Oil Residue</text></g><!--entity 109--><g id="elem_109"><rect fill="#5BB0C5" height="31.1563" rx="2.5" ry="2.5" style="stroke:#5BB0C5;stroke-width:0.5;" width="103" x="608" y="544.5"/><text fill="#FFFFFF" font-family="sans-serif" font-size="20" lengthAdjust="spacing" textLength="83" x="618" y="568.2617">Crude Oil</text></g><g id="elem_110"><ellipse cx="406.4898" cy="559.999" fill="#ECA54E" rx="122.4898" ry="38.999" style="stroke:#ECA54E;stroke-width:0.5;"/><text fill="#FFFFFF" font-family="sans-serif" font-size="20" lengthAdjust="spacing" textLength="155" x="325.9898" y="555.0517">0.01 Oil Extractor</text><text fill="#FFFFFF" font-family="sans-serif" font-size="20" lengthAdjust="spacing" textLength="78" x="364.4898" y="580.208">(0.56 W)</text></g><!--entity 111--><g id="elem_111"><polygon fill="#6A9058" points="45,542.5,55,532.5,154,532.5,154,577.6563,144,587.6563,45,587.6563,45,542.5" style="stroke:#6A9058;stroke-width:0.5;"/><line style="stroke:#6A9058;stroke-width:0.5;" x1="144" x2="154" y1="542.5" y2="532.5"/><line style="stroke:#6A9058;stroke-width:0.5;" x1="45" x2="144" y1="542.5" y2="542.5"/><line style="stroke:#6A9058;stroke-width:0.5;" x1="144" x2="144" y1="542.5" y2="587.6563"/><text fill="#FFFFFF" font-family="sans-serif" font-size="20" lengthAdjust="spacing" textLength="69" x="60" y="573.2617">Oil Pool</text></g><g id="elem_113"><ellipse cx="1612.6174" cy="320.8766" fill="#ECA54E" rx="102.1174" ry="38.8766" style="stroke:#ECA54E;stroke-width:0.5;"/><text fill="#FFFFFF" font-family="sans-serif" font-size="20" lengthAdjust="spacing" textLength="127" x="1546.1174" y="315.9293">0.5 Assembler</text><text fill="#FFFFFF" font-family="sans-serif" font-size="20" lengthAdjust="spacing" textLength="78" x="1570.6174" y="341.0856">(7.44 W)</text></g><!--entity 114--><g id="elem_114"><rect fill="#5BB0C5" height="31.1563" rx="2.5" ry="2.5" style="stroke:#5BB0C5;stroke-width:0.5;" width="135" x="1145" y="235.5"/><text fill="#FFFFFF" font-family="sans-serif" font-size="20" lengthAdjust="spacing" textLength="115" x="1155" y="259.2617">Copper Ingot</text></g><!--entity 122--><g id="elem_122"><rect fill="#5BB0C5" height="31.1563" rx="2.5" ry="2.5" style="stroke:#5BB0C5;stroke-width:0.5;" width="149" x="1138" y="305.5"/><text fill="#FFFFFF" font-family="sans-serif" font-size="20" lengthAdjust="spacing" textLength="129" x="1148" y="329.2617">Caterium Ingot</text></g><g id="elem_123"><ellipse cx="925.4295" cy="321.2173" fill="#ECA54E" rx="83.9295" ry="38.7173" style="stroke:#ECA54E;stroke-width:0.5;"/><text fill="#FFFFFF" font-family="sans-serif" font-size="20" lengthAdjust="spacing" textLength="102" x="871.4295" y="316.27">0.1 Smelter</text><text fill="#FFFFFF" font-family="sans-serif" font-size="20" lengthAdjust="spacing" textLength="67" x="888.9295" y="341.4262">(0.4 W)</text></g><!--entity 124--><g id="elem_124"><rect fill="#5BB0C5" height="31.1563" rx="2.5" ry="2.5" style="stroke:#5BB0C5;stroke-width:0.5;" width="139" x="590" y="339.5"/><text fill="#FFFFFF" font-family="sans-serif" font-size="20" lengthAdjust="spacing" textLength="119" x="600" y="363.2617">Caterium Ore</text></g><g id="elem_125"><ellipse cx="406.4862" cy="320.9561" fill="#ECA54E" rx="114.4862" ry="38.9561" style="stroke:#ECA54E;stroke-width:0.5;"/><text fill="#FFFFFF" font-family="sans-serif" font-size="20" lengthAdjust="spacing" textLength="144" x="331.4862" y="316.0088">0.04 Miner Mk.2</text><text fill="#FFFFFF" font-family="sans-serif" font-size="20" lengthAdjust="spacing" textLength="78" x="364.4862" y="341.1651">(0.45 W)</text></g><!--entity 126--><g id="elem_126"><polygon fill="#6A9058" points="16,303.5,26,293.5,183,293.5,183,338.6563,173,348.6563,16,348.6563,16,303.5" style="stroke:#6A9058;stroke-width:0.5;"/><line style="stroke:#6A9058;stroke-width:0.5;" x1="173" x2="183" y1="303.5" y2="293.5"/><line style="stroke:#6A9058;stroke-width:0.5;" x1="16" x2="173" y1="303.5" y2="303.5"/><line style="stroke:#6A9058;stroke-width:0.5;" x1="173" x2="173" y1="303.5" y2="348.6563"/><text fill="#FFFFFF" font-family="sans-serif" font-size="20" lengthAdjust="spacing" textLength="127" x="31" y="334.2617">Caterium Mine</text></g><!--entity 0--><g id="elem_0"><rect fill="#5BB0C5" height="31.1563" rx="2.5" ry="2.5" style="stroke:#5BB0C5;stroke-width:0.5;" width="106" x="3841" y="156.5"/><text fill="#FFFFFF" font-family="sans-serif" font-size="20" lengthAdjust="spacing" textLength="86" x="3851" y="180.2617">Computer</text></g><!--link 53 to 52--><g id="link_53_52"><path d="M3428.59,129.34 C3467.43,136.6 3511.3222,144.7875 3554.4922,152.8575 " fill="none" id="53-to-52" style="stroke:#FFFFFF;stroke-width:1.0;"/><polygon fill="#FFFFFF" points="3560.39,153.96,3552.2783,148.3743,3555.4751,153.0412,3550.8082,156.2381,3560.39,153.96" style="stroke:#FFFFFF;stroke-width:1.0;"/><text fill="#FFFFFF" font-family="sans-serif" font-size="20" lengthAdjust="spacing" textLength="39" x="3478" y="134.7617">2.67</text></g><!--link 70 to 52--><g id="link_70_52"><path d="M3447.09,210.72 C3470.17,209.84 3495.11,208.13 3518,205 C3534.83,202.7 3546.7543,200.5781 3563.7643,196.7781 " fill="none" id="70-to-52" style="stroke:#FFFFFF;stroke-width:1.0;"/><polygon fill="#FFFFFF" points="3569.62,195.47,3559.9644,193.5284,3564.7403,196.5601,3561.7086,201.336,3569.62,195.47" style="stroke:#FFFFFF;stroke-width:1.0;"/><text fill="#FFFFFF" font-family="sans-serif" font-size="20" lengthAdjust="spacing" textLength="28" x="3483.5" y="199.7617">1.0</text></g><!--link 54 to 53--><g id="link_54_53"><path d="M3204.18,106.32 C3234.67,108.4 3260.994,110.1997 3288.274,112.0697 " fill="none" id="54-to-53" style="stroke:#FFFFFF;stroke-width:1.0;"/><polygon fill="#FFFFFF" points="3294.26,112.48,3285.5546,107.8739,3289.2717,112.1381,3285.0075,115.8551,3294.26,112.48" style="stroke:#FFFFFF;stroke-width:1.0;"/></g><!--link 71 to 70--><g id="link_71_70"><path d="M3207.22,230.78 C3230.21,227.81 3248.1392,225.4966 3270.0292,222.6766 " fill="none" id="71-to-70" style="stroke:#FFFFFF;stroke-width:1.0;"/><polygon fill="#FFFFFF" points="3275.98,221.91,3266.5427,219.0927,3271.021,222.5489,3267.5648,227.0271,3275.98,221.91" style="stroke:#FFFFFF;stroke-width:1.0;"/></g><!--link 55 to 54--><g id="link_55_54"><path d="M2317,34.75 C2443.53,31.79 2718.39,30.37 2947,64 C2966.72,66.9 2981.8311,69.8021 3001.5911,74.3221 " fill="none" id="55-to-54" style="stroke:#FFFFFF;stroke-width:1.0;"/><polygon fill="#FFFFFF" points="3007.44,75.66,2999.5585,69.7538,3002.5659,74.5451,2997.7747,77.5524,3007.44,75.66" style="stroke:#FFFFFF;stroke-width:1.0;"/><text fill="#FFFFFF" font-family="sans-serif" font-size="20" lengthAdjust="spacing" textLength="39" x="2611" y="31.7617">5.87</text></g><!--link 65 to 54--><g id="link_65_54"><path d="M2811.78,99 C2852.46,99 2918.45,99 2979.68,99 " fill="none" id="65-to-54" style="stroke:#FFFFFF;stroke-width:1.0;"/><polygon fill="#FFFFFF" points="2985.68,99,2976.68,95,2980.68,99,2976.68,103,2985.68,99" style="stroke:#FFFFFF;stroke-width:1.0;"/><text fill="#FFFFFF" font-family="sans-serif" font-size="20" lengthAdjust="spacing" textLength="39" x="2907" y="93.7617">5.87</text></g><!--link 56 to 55--><g id="link_56_55"><path d="M1989.95,42.51 C2050.48,41.2 2116.6514,39.769 2168.7414,38.649 " fill="none" id="56-to-55" style="stroke:#FFFFFF;stroke-width:1.0;"/><polygon fill="#FFFFFF" points="2174.74,38.52,2165.6561,34.7144,2169.7412,38.6275,2165.8281,42.7125,2174.74,38.52" style="stroke:#FFFFFF;stroke-width:1.0;"/></g><!--link 66 to 65--><g id="link_66_65"><path d="M2580.16,99 C2639.2,99 2700.57,99 2739.35,99 " fill="none" id="66-to-65" style="stroke:#FFFFFF;stroke-width:1.0;"/><polygon fill="#FFFFFF" points="2745.35,99,2736.35,95,2740.35,99,2736.35,103,2745.35,99" style="stroke:#FFFFFF;stroke-width:1.0;"/></g><!--link 57 to 56--><g id="link_57_56"><path d="M1468.48,54.44 C1543.53,52.68 1660.5316,49.9504 1751.1316,47.8304 " fill="none" id="57-to-56" style="stroke:#FFFFFF;stroke-width:1.0;"/><polygon fill="#FFFFFF" points="1757.13,47.69,1748.0389,43.9016,1752.1314,47.807,1748.226,51.8994,1757.13,47.69" style="stroke:#FFFFFF;stroke-width:1.0;"/><text fill="#FFFFFF" font-family="sans-serif" font-size="20" lengthAdjust="spacing" textLength="50" x="1587.5" y="43.7617">11.73</text></g><!--link 82 to 57--><g id="link_82_57"><path d="M999.91,153.98 C1036.42,142.42 1081.33,128.77 1122,118 C1193.58,99.05 1270.6745,82.2359 1327.1145,70.5559 " fill="none" id="82-to-57" style="stroke:#FFFFFF;stroke-width:1.0;"/><polygon fill="#FFFFFF" points="1332.99,69.34,1323.3661,67.2469,1328.0937,70.3533,1324.9873,75.0809,1332.99,69.34" style="stroke:#FFFFFF;stroke-width:1.0;"/></g><!--link 67 to 66--><g id="link_67_66"><path d="M2145.24,118.25 C2200.19,114.92 2275.991,110.3133 2342.761,106.2633 " fill="none" id="67-to-66" style="stroke:#FFFFFF;stroke-width:1.0;"/><polygon fill="#FFFFFF" points="2348.75,105.9,2339.5243,102.4522,2343.7592,106.2027,2340.0087,110.4376,2348.75,105.9" style="stroke:#FFFFFF;stroke-width:1.0;"/><text fill="#FFFFFF" font-family="sans-serif" font-size="20" lengthAdjust="spacing" textLength="39" x="2226.5" y="103.7617">3.52</text></g><!--link 75 to 67--><g id="link_75_67"><path d="M1723.52,153.36 C1815.93,145.27 1938.6329,134.5134 2013.8929,127.9234 " fill="none" id="75-to-67" style="stroke:#FFFFFF;stroke-width:1.0;"/><polygon fill="#FFFFFF" points="2019.87,127.4,2010.5554,124.2003,2014.8891,127.8361,2011.2532,132.1698,2019.87,127.4" style="stroke:#FFFFFF;stroke-width:1.0;"/></g><!--link 72 to 71--><g id="link_72_71"><path d="M2852.28,220.38 C2890.77,224.29 2932.9107,228.5535 2976.1207,232.9435 " fill="none" id="72-to-71" style="stroke:#FFFFFF;stroke-width:1.0;"/><polygon fill="#FFFFFF" points="2982.09,233.55,2973.5404,228.6608,2977.1156,233.0446,2972.7318,236.6198,2982.09,233.55" style="stroke:#FFFFFF;stroke-width:1.0;"/><text fill="#FFFFFF" font-family="sans-serif" font-size="20" lengthAdjust="spacing" textLength="39" x="2907" y="221.7617">18.0</text></g><!--link 77 to 71--><g id="link_77_71"><path d="M2814.17,300.19 C2856.99,291.77 2925.8327,278.2472 2987.4427,266.1372 " fill="none" id="77-to-71" style="stroke:#FFFFFF;stroke-width:1.0;"/><polygon fill="#FFFFFF" points="2993.33,264.98,2983.7275,262.7909,2988.4239,265.9443,2985.2705,270.6407,2993.33,264.98" style="stroke:#FFFFFF;stroke-width:1.0;"/><text fill="#FFFFFF" font-family="sans-serif" font-size="20" lengthAdjust="spacing" textLength="39" x="2907" y="269.7617">14.0</text></g><!--link 94 to 71--><g id="link_94_71"><path d="M2820.1,369.4 C2854.22,356.08 2904.14,336.1 2947,317 C2974.53,304.73 2999.1272,292.9906 3024.8572,280.3206 " fill="none" id="94-to-71" style="stroke:#FFFFFF;stroke-width:1.0;"/><polygon fill="#FFFFFF" points="3030.24,277.67,3020.3988,278.0574,3025.7543,279.8788,3023.9329,285.2344,3030.24,277.67" style="stroke:#FFFFFF;stroke-width:1.0;"/><text fill="#FFFFFF" font-family="sans-serif" font-size="20" lengthAdjust="spacing" textLength="28" x="2912.5" y="311.7617">2.5</text></g><!--link 73 to 72--><g id="link_73_72"><path d="M2572.22,212.34 C2615.9,212.48 2659.21,212.6202 2698.55,212.7502 " fill="none" id="73-to-72" style="stroke:#FFFFFF;stroke-width:1.0;"/><polygon fill="#FFFFFF" points="2704.55,212.77,2695.5633,208.7403,2699.55,212.7535,2695.5368,216.7402,2704.55,212.77" style="stroke:#FFFFFF;stroke-width:1.0;"/></g><!--link 78 to 77--><g id="link_78_77"><path d="M2578.39,318.45 C2636.59,315.1 2697.32,311.6154 2736.86,309.3354 " fill="none" id="78-to-77" style="stroke:#FFFFFF;stroke-width:1.0;"/><polygon fill="#FFFFFF" points="2742.85,308.99,2733.6347,305.5147,2737.8583,309.2778,2734.0952,313.5015,2742.85,308.99" style="stroke:#FFFFFF;stroke-width:1.0;"/></g><!--link 95 to 94--><g id="link_95_94"><path d="M2563.11,421.3 C2602.35,414.66 2641.3344,408.0626 2679.8644,401.5326 " fill="none" id="95-to-94" style="stroke:#FFFFFF;stroke-width:1.0;"/><polygon fill="#FFFFFF" points="2685.78,400.53,2676.2382,398.0901,2680.8503,401.3655,2677.5749,405.9776,2685.78,400.53" style="stroke:#FFFFFF;stroke-width:1.0;"/></g><!--link 74 to 73--><g id="link_74_73"><path d="M2145.24,197.77 C2202.08,200.32 2281.636,203.8918 2349.586,206.9318 " fill="none" id="74-to-73" style="stroke:#FFFFFF;stroke-width:1.0;"/><polygon fill="#FFFFFF" points="2355.58,207.2,2346.7678,202.8018,2350.585,206.9765,2346.4102,210.7938,2355.58,207.2" style="stroke:#FFFFFF;stroke-width:1.0;"/><text fill="#FFFFFF" font-family="sans-serif" font-size="20" lengthAdjust="spacing" textLength="39" x="2226.5" y="194.7617">30.0</text></g><!--link 75 to 74--><g id="link_75_74"><path d="M1725,170.62 C1817.33,176.94 1939.104,185.2606 2013.964,190.3806 " fill="none" id="75-to-74" style="stroke:#FFFFFF;stroke-width:1.0;"/><polygon fill="#FFFFFF" points="2019.95,190.79,2011.2439,186.1852,2014.9617,190.4488,2010.698,194.1666,2019.95,190.79" style="stroke:#FFFFFF;stroke-width:1.0;"/></g><!--link 76 to 75--><g id="link_76_75"><path d="M1286.04,163 C1345.12,163 1423.59,163 1491.67,163 " fill="none" id="76-to-75" style="stroke:#FFFFFF;stroke-width:1.0;"/><polygon fill="#FFFFFF" points="1497.67,163,1488.67,159,1492.67,163,1488.67,167,1497.67,163" style="stroke:#FFFFFF;stroke-width:1.0;"/><text fill="#FFFFFF" font-family="sans-serif" font-size="20" lengthAdjust="spacing" textLength="39" x="1381" y="157.7617">0.28</text></g><!--link 79 to 78--><g id="link_79_78"><path d="M2113.24,321.31 C2162.97,321.84 2259.5603,322.8564 2340.7403,323.7164 " fill="none" id="79-to-78" style="stroke:#FFFFFF;stroke-width:1.0;"/><polygon fill="#FFFFFF" points="2346.74,323.78,2337.7829,319.6849,2341.7403,323.727,2337.6981,327.6844,2346.74,323.78" style="stroke:#FFFFFF;stroke-width:1.0;"/><text fill="#FFFFFF" font-family="sans-serif" font-size="20" lengthAdjust="spacing" textLength="39" x="2226.5" y="316.7617">28.0</text></g><!--link 113 to 79--><g id="link_113_79"><path d="M1714.76,321 C1822.27,321 1979.64,321 2045.96,321 " fill="none" id="113-to-79" style="stroke:#FFFFFF;stroke-width:1.0;"/><polygon fill="#FFFFFF" points="2051.96,321,2042.96,317,2046.96,321,2042.96,325,2051.96,321" style="stroke:#FFFFFF;stroke-width:1.0;"/></g><!--link 83 to 82--><g id="link_83_82"><path d="M722.06,160.36 C755.13,163.24 790.5526,166.3292 827.2826,169.5292 " fill="none" id="83-to-82" style="stroke:#FFFFFF;stroke-width:1.0;"/><polygon fill="#FFFFFF" points="833.26,170.05,824.6411,165.284,828.2789,169.616,823.9468,173.2538,833.26,170.05" style="stroke:#FFFFFF;stroke-width:1.0;"/><text fill="#FFFFFF" font-family="sans-serif" font-size="20" lengthAdjust="spacing" textLength="39" x="760" y="158.7617">8.84</text></g><!--link 86 to 82--><g id="link_86_82"><path d="M706.62,297.62 C734.56,301.38 770.4,302.43 800,291 C802.71,289.95 845.9658,250.4039 881.5058,217.6839 " fill="none" id="86-to-82" style="stroke:#FFFFFF;stroke-width:1.0;"/><polygon fill="#FFFFFF" points="885.92,213.62,876.5895,216.7731,882.2415,217.0066,882.008,222.6586,885.92,213.62" style="stroke:#FFFFFF;stroke-width:1.0;"/><text fill="#FFFFFF" font-family="sans-serif" font-size="20" lengthAdjust="spacing" textLength="39" x="760" y="285.7617">4.42</text></g><!--link 84 to 83--><g id="link_84_83"><path d="M513.58,174.05 C541.95,170.32 565.7212,167.2024 590.8112,163.9024 " fill="none" id="84-to-83" style="stroke:#FFFFFF;stroke-width:1.0;"/><polygon fill="#FFFFFF" points="596.76,163.12,587.3152,160.3278,591.8027,163.772,588.3585,168.2595,596.76,163.12" style="stroke:#FFFFFF;stroke-width:1.0;"/></g><!--link 87 to 86--><g id="link_87_86"><path d="M481.44,404.38 C497.63,396.69 514.31,387.78 529,378 C559.64,357.61 559.66,342.83 590,322 C599.96,315.16 606.0996,311.525 616.8396,306.275 " fill="none" id="87-to-86" style="stroke:#FFFFFF;stroke-width:1.0;"/><polygon fill="#FFFFFF" points="622.23,303.64,612.3877,303.9989,617.738,305.8358,615.901,311.1861,622.23,303.64" style="stroke:#FFFFFF;stroke-width:1.0;"/></g><!--link 85 to 84--><g id="link_85_84"><path d="M176.29,188 C211.13,188 247.2,188 285.73,188 " fill="none" id="85-to-84" style="stroke:#FFFFFF;stroke-width:1.0;"/><polygon fill="#FFFFFF" points="291.73,188,282.73,184,286.73,188,282.73,192,291.73,188" style="stroke:#FFFFFF;stroke-width:1.0;"/><text fill="#FFFFFF" font-family="sans-serif" font-size="20" lengthAdjust="spacing" textLength="39" x="214" y="182.7617">0.09</text></g><!--link 88 to 87--><g id="link_88_87"><path d="M160.76,434 C198.17,434 241.45,434 285.97,434 " fill="none" id="88-to-87" style="stroke:#FFFFFF;stroke-width:1.0;"/><polygon fill="#FFFFFF" points="291.97,434,282.97,430,286.97,434,282.97,438,291.97,434" style="stroke:#FFFFFF;stroke-width:1.0;"/><text fill="#FFFFFF" font-family="sans-serif" font-size="20" lengthAdjust="spacing" textLength="39" x="214" y="428.7617">0.06</text></g><!--link 96 to 95--><g id="link_96_95"><path d="M2135.27,456.99 C2148.24,457.41 2162.13,457.79 2175,458 C2238.1,459.03 2254.04,462.31 2317,458 C2331.75,456.99 2341.3334,456.1306 2356.5434,454.2906 " fill="none" id="96-to-95" style="stroke:#FFFFFF;stroke-width:1.0;"/><polygon fill="#FFFFFF" points="2362.5,453.57,2353.0848,450.6798,2357.5362,454.1705,2354.0455,458.6219,2362.5,453.57" style="stroke:#FFFFFF;stroke-width:1.0;"/><text fill="#FFFFFF" font-family="sans-serif" font-size="20" lengthAdjust="spacing" textLength="39" x="2226.5" y="452.7617">8.33</text></g><!--link 112 to 95--><g id="link_112_95"><path d="M2113.24,391.92 C2165.77,398.85 2271.2915,412.7756 2354.2515,423.7156 " fill="none" id="112-to-95" style="stroke:#FFFFFF;stroke-width:1.0;"/><polygon fill="#FFFFFF" points="2360.2,424.5,2351.8002,419.3577,2355.2429,423.8463,2350.7543,427.289,2360.2,424.5" style="stroke:#FFFFFF;stroke-width:1.0;"/><text fill="#FFFFFF" font-family="sans-serif" font-size="20" lengthAdjust="spacing" textLength="50" x="2221" y="394.7617">16.67</text></g><!--link 97 to 96--><g id="link_97_96"><path d="M1722.63,455 C1819.33,455 1950.25,455 2023.88,455 " fill="none" id="97-to-96" style="stroke:#FFFFFF;stroke-width:1.0;"/><polygon fill="#FFFFFF" points="2029.88,455,2020.88,451,2024.88,455,2020.88,459,2029.88,455" style="stroke:#FFFFFF;stroke-width:1.0;"/></g><!--link 113 to 112--><g id="link_113_112"><path d="M1708.21,334.56 C1815.44,349.91 1978.1105,373.2 2045.8905,382.9 " fill="none" id="113-to-112" style="stroke:#FFFFFF;stroke-width:1.0;"/><polygon fill="#FFFFFF" points="2051.83,383.75,2043.4874,378.5153,2046.8804,383.0417,2042.3541,386.4347,2051.83,383.75" style="stroke:#FFFFFF;stroke-width:1.0;"/></g><!--link 98 to 97--><g id="link_98_97"><path d="M1264.72,436.7 C1324.76,439.87 1419.9383,444.8943 1497.5583,448.9843 " fill="none" id="98-to-97" style="stroke:#FFFFFF;stroke-width:1.0;"/><polygon fill="#FFFFFF" points="1503.55,449.3,1494.7729,444.832,1498.5569,449.0369,1494.352,452.8209,1503.55,449.3" style="stroke:#FFFFFF;stroke-width:1.0;"/><text fill="#FFFFFF" font-family="sans-serif" font-size="20" lengthAdjust="spacing" textLength="39" x="1381" y="434.7617">5.56</text></g><!--link 106 to 97--><g id="link_106_97"><path d="M1251.57,499.21 C1301.43,496.59 1391.52,490.91 1468,481 C1483.44,479 1493.8351,477.467 1509.6951,474.767 " fill="none" id="106-to-97" style="stroke:#FFFFFF;stroke-width:1.0;"/><polygon fill="#FFFFFF" points="1515.61,473.76,1506.0663,471.3272,1510.6809,474.5991,1507.4089,479.2137,1515.61,473.76" style="stroke:#FFFFFF;stroke-width:1.0;"/><text fill="#FFFFFF" font-family="sans-serif" font-size="20" lengthAdjust="spacing" textLength="39" x="1381" y="475.7617">1.11</text></g><!--link 99 to 98--><g id="link_99_98"><path d="M1019.82,434 C1066.57,434 1115.38,434 1154.38,434 " fill="none" id="99-to-98" style="stroke:#FFFFFF;stroke-width:1.0;"/><polygon fill="#FFFFFF" points="1160.38,434,1151.38,430,1155.38,434,1151.38,438,1160.38,434" style="stroke:#FFFFFF;stroke-width:1.0;"/></g><!--link 107 to 106--><g id="link_107_106"><path d="M1010.88,542.34 C1024.3,539.54 1038.03,536.69 1051,534 C1092.78,525.34 1134.8324,516.7055 1167.3524,510.0355 " fill="none" id="107-to-106" style="stroke:#FFFFFF;stroke-width:1.0;"/><polygon fill="#FFFFFF" points="1173.23,508.83,1163.6098,506.7199,1168.332,509.8346,1165.2172,514.5567,1173.23,508.83" style="stroke:#FFFFFF;stroke-width:1.0;"/></g><!--link 100 to 99--><g id="link_100_99"><path d="M706.79,434 C741.17,434 783.22,434 825.43,434 " fill="none" id="100-to-99" style="stroke:#FFFFFF;stroke-width:1.0;"/><polygon fill="#FFFFFF" points="831.43,434,822.43,430,826.43,434,822.43,438,831.43,434" style="stroke:#FFFFFF;stroke-width:1.0;"/><text fill="#FFFFFF" font-family="sans-serif" font-size="20" lengthAdjust="spacing" textLength="39" x="760" y="428.7617">2.22</text></g><!--link 103 to 99--><g id="link_103_99"><path d="M722.08,224.59 C749.31,229.28 779.68,239.24 800,260 C837.55,298.37 797.96,333.93 830,377 C838.23,388.07 844.3059,394.1096 855.9759,401.8296 " fill="none" id="103-to-99" style="stroke:#FFFFFF;stroke-width:1.0;"/><polygon fill="#FFFFFF" points="860.98,405.14,855.6807,396.8384,856.8099,402.3814,851.2669,403.5105,860.98,405.14" style="stroke:#FFFFFF;stroke-width:1.0;"/><text fill="#FFFFFF" font-family="sans-serif" font-size="20" lengthAdjust="spacing" textLength="39" x="760" y="230.7617">2.22</text></g><!--link 87 to 100--><g id="link_87_100"><path d="M521.25,434 C553.42,434 580.62,434 606.32,434 " fill="none" id="87-to-100" style="stroke:#FFFFFF;stroke-width:1.0;"/><polygon fill="#FFFFFF" points="612.32,434,603.32,430,607.32,434,603.32,438,612.32,434" style="stroke:#FFFFFF;stroke-width:1.0;"/></g><!--link 84 to 103--><g id="link_84_103"><path d="M513.58,201.95 C541.95,205.68 565.7212,208.7976 590.8112,212.0976 " fill="none" id="84-to-103" style="stroke:#FFFFFF;stroke-width:1.0;"/><polygon fill="#FFFFFF" points="596.76,212.88,588.3585,207.7405,591.8027,212.228,587.3152,215.6722,596.76,212.88" style="stroke:#FFFFFF;stroke-width:1.0;"/></g><!--link 107 to 108--><g id="link_107_108"><path d="M1020.61,564.62 C1053.2,566.22 1083.6273,567.7143 1115.8473,569.3043 " fill="none" id="107-to-108" style="stroke:#FFFFFF;stroke-width:1.0;"/><polygon fill="#FFFFFF" points="1121.84,569.6,1113.0481,565.1613,1116.8461,569.3536,1112.6538,573.1515,1121.84,569.6" style="stroke:#FFFFFF;stroke-width:1.0;"/><text fill="#FFFFFF" font-family="sans-serif" font-size="20" lengthAdjust="spacing" textLength="39" x="1052" y="560.7617">0.56</text></g><!--link 109 to 107--><g id="link_109_107"><path d="M711.09,560 C744.7,560 783.87,560 823.99,560 " fill="none" id="109-to-107" style="stroke:#FFFFFF;stroke-width:1.0;"/><polygon fill="#FFFFFF" points="829.99,560,820.99,556,824.99,560,820.99,564,829.99,560" style="stroke:#FFFFFF;stroke-width:1.0;"/><text fill="#FFFFFF" font-family="sans-serif" font-size="20" lengthAdjust="spacing" textLength="39" x="760" y="554.7617">1.67</text></g><!--link 110 to 109--><g id="link_110_109"><path d="M529.32,560 C557.05,560 579.02,560 601.81,560 " fill="none" id="110-to-109" style="stroke:#FFFFFF;stroke-width:1.0;"/><polygon fill="#FFFFFF" points="607.81,560,598.81,556,602.81,560,598.81,564,607.81,560" style="stroke:#FFFFFF;stroke-width:1.0;"/></g><!--link 111 to 110--><g id="link_111_110"><path d="M154.33,560 C190.24,560 232.95,560 277.91,560 " fill="none" id="111-to-110" style="stroke:#FFFFFF;stroke-width:1.0;"/><polygon fill="#FFFFFF" points="283.91,560,274.91,556,278.91,560,274.91,564,283.91,560" style="stroke:#FFFFFF;stroke-width:1.0;"/><text fill="#FFFFFF" font-family="sans-serif" font-size="20" lengthAdjust="spacing" textLength="39" x="214" y="554.7617">0.01</text></g><!--link 114 to 113--><g id="link_114_113"><path d="M1280.1,260.53 C1331.54,268.12 1404.43,279.37 1468,291 C1485.9,294.28 1499.1238,296.8474 1517.3438,300.6074 " fill="none" id="114-to-113" style="stroke:#FFFFFF;stroke-width:1.0;"/><polygon fill="#FFFFFF" points="1523.22,301.82,1515.2142,296.0836,1518.3232,300.8095,1513.5973,303.9185,1523.22,301.82" style="stroke:#FFFFFF;stroke-width:1.0;"/><text fill="#FFFFFF" font-family="sans-serif" font-size="20" lengthAdjust="spacing" textLength="39" x="1381" y="264.7617">5.96</text></g><!--link 122 to 113--><g id="link_122_113"><path d="M1287.13,321.71 C1302.3,321.83 1318.17,321.94 1333,322 C1393,322.25 1408,322.21 1468,322 C1481.7,321.95 1490.1401,321.9179 1504.3701,321.8279 " fill="none" id="122-to-113" style="stroke:#FFFFFF;stroke-width:1.0;"/><polygon fill="#FFFFFF" points="1510.37,321.79,1501.3449,317.847,1505.3701,321.8216,1501.3955,325.8468,1510.37,321.79" style="stroke:#FFFFFF;stroke-width:1.0;"/><text fill="#FFFFFF" font-family="sans-serif" font-size="20" lengthAdjust="spacing" textLength="39" x="1381" y="316.7617">1.49</text></g><!--link 82 to 114--><g id="link_82_114"><path d="M1005.89,198.33 C1051.68,210.06 1102.5476,223.0915 1144.7976,233.9115 " fill="none" id="82-to-114" style="stroke:#FFFFFF;stroke-width:1.0;"/><polygon fill="#FFFFFF" points="1150.61,235.4,1142.8837,229.2923,1145.7663,234.1596,1140.899,237.0422,1150.61,235.4" style="stroke:#FFFFFF;stroke-width:1.0;"/></g><!--link 123 to 122--><g id="link_123_122"><path d="M1009.7,321 C1050.28,321 1092.67,321 1131.9,321 " fill="none" id="123-to-122" style="stroke:#FFFFFF;stroke-width:1.0;"/><polygon fill="#FFFFFF" points="1137.9,321,1128.9,317,1132.9,321,1128.9,325,1137.9,321" style="stroke:#FFFFFF;stroke-width:1.0;"/></g><!--link 124 to 123--><g id="link_124_123"><path d="M729.11,357.36 C739.14,357.62 749.33,357.85 759,358 C777.22,358.28 781.97,360.62 800,358 C819.41,355.18 834.2623,351.7216 852.9923,346.1116 " fill="none" id="124-to-123" style="stroke:#FFFFFF;stroke-width:1.0;"/><polygon fill="#FFFFFF" points="858.74,344.39,848.9707,343.1405,853.9502,345.8246,851.2661,350.8041,858.74,344.39" style="stroke:#FFFFFF;stroke-width:1.0;"/><text fill="#FFFFFF" font-family="sans-serif" font-size="20" lengthAdjust="spacing" textLength="39" x="760" y="352.7617">4.47</text></g><!--link 125 to 124--><g id="link_125_124"><path d="M513.22,335.32 C539.08,338.82 560.1343,341.6745 583.7543,344.8745 " fill="none" id="125-to-124" style="stroke:#FFFFFF;stroke-width:1.0;"/><polygon fill="#FFFFFF" points="589.7,345.68,581.3185,340.5079,584.7453,345.0087,580.2445,348.4355,589.7,345.68" style="stroke:#FFFFFF;stroke-width:1.0;"/></g><!--link 126 to 125--><g id="link_126_125"><path d="M183.04,321 C216.56,321 249.83,321 285.98,321 " fill="none" id="126-to-125" style="stroke:#FFFFFF;stroke-width:1.0;"/><polygon fill="#FFFFFF" points="291.98,321,282.98,317,286.98,321,282.98,325,291.98,321" style="stroke:#FFFFFF;stroke-width:1.0;"/><text fill="#FFFFFF" font-family="sans-serif" font-size="20" lengthAdjust="spacing" textLength="39" x="214" y="315.7617">0.04</text></g><!--link 52 to 0--><g id="link_52_0"><path d="M3768.12,172 C3793.5,172 3813.38,172 3834.94,172 " fill="none" id="52-to-0" style="stroke:#FFFFFF;stroke-width:1.0;"/><polygon fill="#FFFFFF" points="3840.94,172,3831.94,168,3835.94,172,3831.94,176,3840.94,172" style="stroke:#FFFFFF;stroke-width:1.0;"/><text fill="#FFFFFF" font-family="sans-serif" font-size="20" lengthAdjust="spacing" textLength="11" x="3799" y="166.7617">1</text></g><rect fill="none" height="60.3125" id="_legend" rx="7.5" ry="7.5" style="stroke:#000000;stroke-width:1.0;" width="293" x="1823" y="615.998"/><text fill="#FFFFFF" font-family="sans-serif" font-size="20" lengthAdjust="spacing" textLength="281" x="1828" y="641.7597">Total Number of Machines: 5.55</text><text fill="#FFFFFF" font-family="sans-serif" font-size="20" lengthAdjust="spacing" textLength="283" x="1828" y="666.916">Total Power required: 100.15 W</text><!--SRC=[TLRBSjms4BpZAn2Td8DW0CHJXrGbhgJYWo95IfMFBfeBIQnmIOMFE9klzmmUMb2sJzp6O7eQFGD8F_HZDso7G1bx-pYtpqzzTzazjVCQvhVJyzf_V6YxTPfF7vVrD0JMRyU1R4lesYLGBMcxq0lE6aD_NfPm_3I4cRpHh6deXnylIDVE1wgRkEbTFtTRlz9V9bZC8SjJQ3ujQplGcwNhXw65QXVd4YgNaA8kqJ1PLT29Pdf-3ZEzVmfXpH6J8lVzq7TjHMeogVRqtJGkwxpX6SaRoHfTyTgQz_tuEArd3bCuXDbpS6Qgqvl4STT-fdzkuEh_PmOhOaWmJg_RSKEVjpdwfs7fXS4carCspLwLM5ROWYjvoIV3xa8_Fanp5mxq_JoDz1PyhKetMRpRQz_PQjNtfUlI5KUl-n7SkVwRISpF_eqJJ9GrjNBSLp6upA3iNe9WpbOQVDpseP-hN5V6JZZwsxIDX_c4hNELxQwfMtSp5tTSaXGjkTbnbZdZVdSYmOGudyZj9cr_8cSBWzanm3oOYi6T1UppVV5KgNhI3JEL7xxIZoqjvn92ViCeNoI9tUKHUyfAKPxnHCbJBIYph7rNiVepwulzWa57NpW5vwzypijVjwMm2bxvTnSUqC5JfNM1wMWVSL_I-tje_ptHctw0pKj_sCurV7vKy563U5L2y592nCnV_rldjjnQNNL9Y7GtSTFjDEquojNHjQKMktO-lb3VU3bIICfyPU61XSVqzRCYPE4NzFuOXZL4SJMvL7k6lOsoZ15NhyPGLLTJIBCdIRCO2-H7UJe-Rn2y8BgvlFn9ooigeHV4yepWtI9Q8MY85V2rW3LYTKKrt69YTaWRH9eO_1fDj4LiW0Xcfo5E8eGaN3Qmt30jYKKAh8fHAs2pWxBM5gG0UPMHP9fO56iXqU7N4ey4NX4RDpL0ov40LosieXQhhoY-PCHwH0w8i0Xq6g4d3hyEJkoOKyIPZ1HJaZYaTQ0U5Jb3718xXOGSCb64in4PuZ7JQ-Hf6g2N6GgyuiGZWpUvB4I9nsnlqJuDwznaY4yIyQZLErZ6F0Z2B-oCz-Y3b02R6hgqZIV547p9T2Wl5l0HnmeW26vBn1v-YIY9nuC8m953D2WD9KjPi63AfrR29WZ4iw0Q6LDa4tq3SgaZnZqc_efDu8feJ8PAWWpXCOm7yjU4_nlyiHq_mInF3_2tidk2OLsYBpg7RwVF49t3FniyW8ShV82OW7adm91ulW00]--></g></svg>