<svg xmlns="http://www.w3.org/2000/svg" xmlns:xlink="http://www.w3.org/1999/xlink" contentStyleType="text/css" height="764px" preserveAspectRatio="none" style="width:3199px;height:764px;background:#FFFFFF;" version="1.1" viewBox="0 0 3199 764" width="3199px" zoomAndPan="magnify"><defs/><g><g id="elem_69"><ellipse cx="2952.7925" cy="192.0667" fill="#FFA500" rx="88.7925" ry="47.0667" style="stroke:#181818;stroke-width:0.5;"/><text fill="#000000" font-family="sans-serif" font-size="14" lengthAdjust="spacing" textLength="66" x="2911.9859" y="167.6694">Assembler</text><line style="stroke:#181818;stroke-width:1.0;" x1="2874.633" x2="3030.9521" y1="170.7456" y2="170.7456"/><text fill="#000000" font-family="sans-serif" font-size="14" lengthAdjust="spacing" textLength="89" x="2902.4859" y="189.2788">Nombre : 0.36</text><line style="stroke:#181818;stroke-width:1.0;" x1="2865.3693" x2="3040.2158" y1="196.3549" y2="196.3549"/><text fill="#000000" font-family="sans-serif" font-size="14" lengthAdjust="spacing" textLength="122" x="2883.9859" y="214.8881">Puissance : 5.33 W</text></g><!--entity 70--><g id="elem_70"><rect fill="#00FFFF" height="23.6094" rx="2.5" ry="2.5" style="stroke:#181818;stroke-width:0.5;" width="102" x="2662.5" y="141"/><text fill="#000000" font-family="sans-serif" font-size="14" lengthAdjust="spacing" textLength="82" x="2672.5" y="158.5332">Circuit Board</text></g><!--entity 104--><g id="elem_104"><rect fill="#00FFFF" height="23.6094" rx="2.5" ry="2.5" style="stroke:#181818;stroke-width:0.5;" width="127" x="2650" y="209"/><text fill="#000000" font-family="sans-serif" font-size="14" lengthAdjust="spacing" textLength="107" x="2660" y="226.5332">Crystal Oscillator</text></g><g id="elem_71"><ellipse cx="2497.2509" cy="114.8837" fill="#FFA500" rx="84.2509" ry="47.3837" style="stroke:#181818;stroke-width:0.5;"/><text fill="#000000" font-family="sans-serif" font-size="14" lengthAdjust="spacing" textLength="66" x="2456.6272" y="91.0676">Assembler</text><line style="stroke:#181818;stroke-width:1.0;" x1="2422.4992" x2="2572.0025" y1="94.1438" y2="94.1438"/><text fill="#000000" font-family="sans-serif" font-size="14" lengthAdjust="spacing" textLength="89" x="2447.1272" y="112.677">Nombre : 0.21</text><line style="stroke:#181818;stroke-width:1.0;" x1="2414.4461" x2="2580.0557" y1="119.7531" y2="119.7531"/><text fill="#000000" font-family="sans-serif" font-size="14" lengthAdjust="spacing" textLength="114" x="2432.6272" y="138.2863">Puissance : 3.2 W</text></g><!--entity 72--><g id="elem_72"><rect fill="#00FFFF" height="23.6094" rx="2.5" ry="2.5" style="stroke:#181818;stroke-width:0.5;" width="108" x="1769" y="7"/><text fill="#000000" font-family="sans-serif" font-size="14" lengthAdjust="spacing" textLength="88" x="1779" y="24.5332">Copper Sheet</text></g><!--entity 82--><g id="elem_82"><rect fill="#00FFFF" height="23.6094" rx="2.5" ry="2.5" style="stroke:#181818;stroke-width:0.5;" width="53" x="2220" y="103"/><text fill="#000000" font-family="sans-serif" font-size="14" lengthAdjust="spacing" textLength="33" x="2230" y="120.5332">Silica</text></g><g id="elem_73"><ellipse cx="1525.8424" cy="66.106" fill="#FFA500" rx="89.8424" ry="47.606" style="stroke:#181818;stroke-width:0.5;"/><text fill="#000000" font-family="sans-serif" font-size="14" lengthAdjust="spacing" textLength="74" x="1480.903" y="42.513">Constructor</text><line style="stroke:#181818;stroke-width:1.0;" x1="1445.7717" x2="1605.913" y1="45.5891" y2="45.5891"/><text fill="#000000" font-family="sans-serif" font-size="14" lengthAdjust="spacing" textLength="89" x="1475.403" y="64.1223">Nombre : 0.59</text><line style="stroke:#181818;stroke-width:1.0;" x1="1437.5155" x2="1614.1692" y1="71.1985" y2="71.1985"/><text fill="#000000" font-family="sans-serif" font-size="14" lengthAdjust="spacing" textLength="122" x="1456.903" y="89.7317">Puissance : 2.35 W</text></g><!--entity 74--><g id="elem_74"><rect fill="#00FFFF" height="23.6094" rx="2.5" ry="2.5" style="stroke:#181818;stroke-width:0.5;" width="102" x="1096" y="89"/><text fill="#000000" font-family="sans-serif" font-size="14" lengthAdjust="spacing" textLength="82" x="1106" y="106.5332">Copper Ingot</text></g><g id="elem_83"><ellipse cx="1996.8424" cy="115.106" fill="#FFA500" rx="89.8424" ry="47.606" style="stroke:#181818;stroke-width:0.5;"/><text fill="#000000" font-family="sans-serif" font-size="14" lengthAdjust="spacing" textLength="74" x="1951.903" y="91.513">Constructor</text><line style="stroke:#181818;stroke-width:1.0;" x1="1916.7717" x2="2076.913" y1="94.5891" y2="94.5891"/><text fill="#000000" font-family="sans-serif" font-size="14" lengthAdjust="spacing" textLength="89" x="1946.403" y="113.1223">Nombre : 0.16</text><line style="stroke:#181818;stroke-width:1.0;" x1="1908.5155" x2="2085.1692" y1="120.1985" y2="120.1985"/><text fill="#000000" font-family="sans-serif" font-size="14" lengthAdjust="spacing" textLength="122" x="1927.903" y="138.7317">Puissance : 0.63 W</text></g><!--entity 84--><g id="elem_84"><rect fill="#00FFFF" height="23.6094" rx="2.5" ry="2.5" style="stroke:#181818;stroke-width:0.5;" width="93" x="1646" y="117"/><text fill="#000000" font-family="sans-serif" font-size="14" lengthAdjust="spacing" textLength="73" x="1656" y="134.5332">Raw Quartz</text></g><g id="elem_105"><ellipse cx="2497.3094" cy="274.8595" fill="#FFA500" rx="91.3094" ry="48.3595" style="stroke:#181818;stroke-width:0.5;"/><text fill="#000000" font-family="sans-serif" font-size="14" lengthAdjust="spacing" textLength="84" x="2447.1876" y="252.3711">Manufacturer</text><line style="stroke:#181818;stroke-width:1.0;" x1="2414.6795" x2="2579.9393" y1="255.4473" y2="255.4473"/><text fill="#000000" font-family="sans-serif" font-size="14" lengthAdjust="spacing" textLength="81" x="2450.6876" y="273.9805">Nombre : 1.0</text><line style="stroke:#181818;stroke-width:1.0;" x1="2407.7528" x2="2586.8659" y1="281.0566" y2="281.0566"/><text fill="#000000" font-family="sans-serif" font-size="14" lengthAdjust="spacing" textLength="122" x="2428.1876" y="299.5898">Puissance : 55.0 W</text></g><!--entity 106--><g id="elem_106"><rect fill="#00FFFF" height="23.6094" rx="2.5" ry="2.5" style="stroke:#181818;stroke-width:0.5;" width="110" x="2191.5" y="245"/><text fill="#000000" font-family="sans-serif" font-size="14" lengthAdjust="spacing" textLength="90" x="2201.5" y="262.5332">Quartz Crystal</text></g><!--entity 111--><g id="elem_111"><rect fill="#00FFFF" height="23.6094" rx="2.5" ry="2.5" style="stroke:#181818;stroke-width:0.5;" width="57" x="2218" y="317"/><text fill="#000000" font-family="sans-serif" font-size="14" lengthAdjust="spacing" textLength="37" x="2228" y="334.5332">Cable</text></g><!--entity 128--><g id="elem_128"><rect fill="#00FFFF" height="23.6094" rx="2.5" ry="2.5" style="stroke:#181818;stroke-width:0.5;" width="145" x="2174" y="403"/><text fill="#000000" font-family="sans-serif" font-size="14" lengthAdjust="spacing" textLength="125" x="2184" y="420.5332">Reinforced Iron Plat</text></g><g id="elem_107"><ellipse cx="1996.8804" cy="246.0007" fill="#FFA500" rx="85.3804" ry="48.0007" style="stroke:#181818;stroke-width:0.5;"/><text fill="#000000" font-family="sans-serif" font-size="14" lengthAdjust="spacing" textLength="74" x="1952.1153" y="223.0928">Constructor</text><line style="stroke:#181818;stroke-width:1.0;" x1="1920.1278" x2="2073.633" y1="226.169" y2="226.169"/><text fill="#000000" font-family="sans-serif" font-size="14" lengthAdjust="spacing" textLength="81" x="1950.6153" y="244.7022">Nombre : 0.8</text><line style="stroke:#181818;stroke-width:1.0;" x1="1913.1207" x2="2080.64" y1="251.7783" y2="251.7783"/><text fill="#000000" font-family="sans-serif" font-size="14" lengthAdjust="spacing" textLength="114" x="1932.1153" y="270.3115">Puissance : 3.2 W</text></g><!--entity 108--><g id="elem_108"><rect fill="#00FFFF" height="23.6094" rx="2.5" ry="2.5" style="stroke:#181818;stroke-width:0.5;" width="93" x="1646" y="212"/><text fill="#000000" font-family="sans-serif" font-size="14" lengthAdjust="spacing" textLength="73" x="1656" y="229.5332">Raw Quartz</text></g><g id="elem_109"><ellipse cx="1317.1737" cy="208.7625" fill="#FFA500" rx="89.1737" ry="47.2625" style="stroke:#181818;stroke-width:0.5;"/><text fill="#000000" font-family="sans-serif" font-size="14" lengthAdjust="spacing" textLength="69" x="1274.8186" y="184.6586">Miner Mk.2</text><line style="stroke:#181818;stroke-width:1.0;" x1="1238.3121" x2="1396.0352" y1="187.7347" y2="187.7347"/><text fill="#000000" font-family="sans-serif" font-size="14" lengthAdjust="spacing" textLength="89" x="1266.8186" y="206.2679">Nombre : 0.28</text><line style="stroke:#181818;stroke-width:1.0;" x1="1229.42" x2="1404.9273" y1="213.3441" y2="213.3441"/><text fill="#000000" font-family="sans-serif" font-size="14" lengthAdjust="spacing" textLength="122" x="1248.3186" y="231.8773">Puissance : 3.35 W</text></g><!--entity 110--><g id="elem_110"><polygon fill="#98FB98" points="940,195,950,185,1056,185,1056,222.6094,1046,232.6094,940,232.6094,940,195" style="stroke:#181818;stroke-width:0.5;"/><line style="stroke:#181818;stroke-width:0.5;" x1="1046" x2="1056" y1="195" y2="185"/><line style="stroke:#181818;stroke-width:0.5;" x1="940" x2="1046" y1="195" y2="195"/><line style="stroke:#181818;stroke-width:0.5;" x1="1046" x2="1046" y1="195" y2="232.6094"/><text fill="#000000" font-family="sans-serif" font-size="14" lengthAdjust="spacing" textLength="76" x="955" y="219.5332">Quartz Mine</text></g><g id="elem_112"><ellipse cx="1996.8424" cy="377.106" fill="#FFA500" rx="89.8424" ry="47.606" style="stroke:#181818;stroke-width:0.5;"/><text fill="#000000" font-family="sans-serif" font-size="14" lengthAdjust="spacing" textLength="74" x="1951.903" y="353.513">Constructor</text><line style="stroke:#181818;stroke-width:1.0;" x1="1916.7717" x2="2076.913" y1="356.5891" y2="356.5891"/><text fill="#000000" font-family="sans-serif" font-size="14" lengthAdjust="spacing" textLength="89" x="1946.403" y="375.1223">Nombre : 0.47</text><line style="stroke:#181818;stroke-width:1.0;" x1="1908.5155" x2="2085.1692" y1="382.1985" y2="382.1985"/><text fill="#000000" font-family="sans-serif" font-size="14" lengthAdjust="spacing" textLength="122" x="1927.903" y="400.7317">Puissance : 1.87 W</text></g><!--entity 113--><g id="elem_113"><rect fill="#00FFFF" height="23.6094" rx="2.5" ry="2.5" style="stroke:#181818;stroke-width:0.5;" width="49" x="1668" y="365"/><text fill="#000000" font-family="sans-serif" font-size="14" lengthAdjust="spacing" textLength="29" x="1678" y="382.5332">Wire</text></g><g id="elem_116"><ellipse cx="755.3575" cy="230.8296" fill="#FFA500" rx="87.3575" ry="46.3296" style="stroke:#181818;stroke-width:0.5;"/><text fill="#000000" font-family="sans-serif" font-size="14" lengthAdjust="spacing" textLength="53" x="721.2359" y="205.3122">Foundry</text><line style="stroke:#181818;stroke-width:1.0;" x1="679.9323" x2="830.7828" y1="208.3884" y2="208.3884"/><text fill="#000000" font-family="sans-serif" font-size="14" lengthAdjust="spacing" textLength="89" x="705.2359" y="226.9216">Nombre : 0.18</text><line style="stroke:#181818;stroke-width:1.0;" x1="669.2045" x2="841.5106" y1="233.9977" y2="233.9977"/><text fill="#000000" font-family="sans-serif" font-size="14" lengthAdjust="spacing" textLength="122" x="686.7359" y="252.5309">Puissance : 2.83 W</text></g><!--entity 117--><g id="elem_117"><rect fill="#00FFFF" height="23.6094" rx="2.5" ry="2.5" style="stroke:#181818;stroke-width:0.5;" width="95" x="481" y="205"/><text fill="#000000" font-family="sans-serif" font-size="14" lengthAdjust="spacing" textLength="75" x="491" y="222.5332">Copper Ore</text></g><!--entity 120--><g id="elem_120"><rect fill="#00FFFF" height="23.6094" rx="2.5" ry="2.5" style="stroke:#181818;stroke-width:0.5;" width="72" x="492.5" y="323"/><text fill="#000000" font-family="sans-serif" font-size="14" lengthAdjust="spacing" textLength="52" x="502.5" y="340.5332">Iron Ore</text></g><g id="elem_118"><ellipse cx="324.6737" cy="232.7625" fill="#FFA500" rx="89.1737" ry="47.2625" style="stroke:#181818;stroke-width:0.5;"/><text fill="#000000" font-family="sans-serif" font-size="14" lengthAdjust="spacing" textLength="69" x="282.3186" y="208.6586">Miner Mk.2</text><line style="stroke:#181818;stroke-width:1.0;" x1="245.8121" x2="403.5352" y1="211.7347" y2="211.7347"/><text fill="#000000" font-family="sans-serif" font-size="14" lengthAdjust="spacing" textLength="89" x="274.3186" y="230.2679">Nombre : 0.09</text><line style="stroke:#181818;stroke-width:1.0;" x1="236.92" x2="412.4273" y1="237.3441" y2="237.3441"/><text fill="#000000" font-family="sans-serif" font-size="14" lengthAdjust="spacing" textLength="122" x="255.8186" y="255.8773">Puissance : 1.11 W</text></g><!--entity 119--><g id="elem_119"><polygon fill="#98FB98" points="21,219,31,209,142,209,142,246.6094,132,256.6094,21,256.6094,21,219" style="stroke:#181818;stroke-width:0.5;"/><line style="stroke:#181818;stroke-width:0.5;" x1="132" x2="142" y1="219" y2="209"/><line style="stroke:#181818;stroke-width:0.5;" x1="21" x2="132" y1="219" y2="219"/><line style="stroke:#181818;stroke-width:0.5;" x1="132" x2="132" y1="219" y2="256.6094"/><text fill="#000000" font-family="sans-serif" font-size="14" lengthAdjust="spacing" textLength="81" x="36" y="243.5332">Copper Mine</text></g><g id="elem_121"><ellipse cx="324.6737" cy="503.7625" fill="#FFA500" rx="89.1737" ry="47.2625" style="stroke:#181818;stroke-width:0.5;"/><text fill="#000000" font-family="sans-serif" font-size="14" lengthAdjust="spacing" textLength="69" x="282.3186" y="479.6586">Miner Mk.2</text><line style="stroke:#181818;stroke-width:1.0;" x1="245.8121" x2="403.5352" y1="482.7347" y2="482.7347"/><text fill="#000000" font-family="sans-serif" font-size="14" lengthAdjust="spacing" textLength="89" x="274.3186" y="501.2679">Nombre : 0.06</text><line style="stroke:#181818;stroke-width:1.0;" x1="236.92" x2="412.4273" y1="508.3441" y2="508.3441"/><text fill="#000000" font-family="sans-serif" font-size="14" lengthAdjust="spacing" textLength="122" x="255.8186" y="526.8773">Puissance : 0.66 W</text></g><!--entity 122--><g id="elem_122"><polygon fill="#98FB98" points="32.5,490,42.5,480,130.5,480,130.5,517.6094,120.5,527.6094,32.5,527.6094,32.5,490" style="stroke:#181818;stroke-width:0.5;"/><line style="stroke:#181818;stroke-width:0.5;" x1="120.5" x2="130.5" y1="490" y2="480"/><line style="stroke:#181818;stroke-width:0.5;" x1="32.5" x2="120.5" y1="490" y2="490"/><line style="stroke:#181818;stroke-width:0.5;" x1="120.5" x2="120.5" y1="490" y2="527.6094"/><text fill="#000000" font-family="sans-serif" font-size="14" lengthAdjust="spacing" textLength="58" x="47.5" y="514.5332">Iron Mine</text></g><g id="elem_129"><ellipse cx="1996.7925" cy="507.0667" fill="#FFA500" rx="88.7925" ry="47.0667" style="stroke:#181818;stroke-width:0.5;"/><text fill="#000000" font-family="sans-serif" font-size="14" lengthAdjust="spacing" textLength="66" x="1955.9859" y="482.6694">Assembler</text><line style="stroke:#181818;stroke-width:1.0;" x1="1918.633" x2="2074.9521" y1="485.7456" y2="485.7456"/><text fill="#000000" font-family="sans-serif" font-size="14" lengthAdjust="spacing" textLength="89" x="1946.4859" y="504.2788">Nombre : 0.44</text><line style="stroke:#181818;stroke-width:1.0;" x1="1909.3693" x2="2084.2158" y1="511.3549" y2="511.3549"/><text fill="#000000" font-family="sans-serif" font-size="14" lengthAdjust="spacing" textLength="122" x="1927.9859" y="529.8881">Puissance : 6.67 W</text></g><!--entity 130--><g id="elem_130"><rect fill="#00FFFF" height="23.6094" rx="2.5" ry="2.5" style="stroke:#181818;stroke-width:0.5;" width="80" x="1652.5" y="495"/><text fill="#000000" font-family="sans-serif" font-size="14" lengthAdjust="spacing" textLength="60" x="1662.5" y="512.5332">Iron Plate</text></g><!--entity 146--><g id="elem_146"><rect fill="#00FFFF" height="23.6094" rx="2.5" ry="2.5" style="stroke:#181818;stroke-width:0.5;" width="49" x="1668" y="430"/><text fill="#000000" font-family="sans-serif" font-size="14" lengthAdjust="spacing" textLength="29" x="1678" y="447.5332">Wire</text></g><g id="elem_131"><ellipse cx="1316.7925" cy="507.0667" fill="#FFA500" rx="88.7925" ry="47.0667" style="stroke:#181818;stroke-width:0.5;"/><text fill="#000000" font-family="sans-serif" font-size="14" lengthAdjust="spacing" textLength="66" x="1275.9859" y="482.6694">Assembler</text><line style="stroke:#181818;stroke-width:1.0;" x1="1238.633" x2="1394.9521" y1="485.7456" y2="485.7456"/><text fill="#000000" font-family="sans-serif" font-size="14" lengthAdjust="spacing" textLength="89" x="1266.4859" y="504.2788">Nombre : 0.11</text><line style="stroke:#181818;stroke-width:1.0;" x1="1229.3693" x2="1404.2158" y1="511.3549" y2="511.3549"/><text fill="#000000" font-family="sans-serif" font-size="14" lengthAdjust="spacing" textLength="122" x="1247.9859" y="529.8881">Puissance : 1.67 W</text></g><!--entity 132--><g id="elem_132"><rect fill="#00FFFF" height="23.6094" rx="2.5" ry="2.5" style="stroke:#181818;stroke-width:0.5;" width="79" x="958.5" y="493"/><text fill="#000000" font-family="sans-serif" font-size="14" lengthAdjust="spacing" textLength="59" x="968.5" y="510.5332">Iron Ingot</text></g><!--entity 140--><g id="elem_140"><rect fill="#00FFFF" height="23.6094" rx="2.5" ry="2.5" style="stroke:#181818;stroke-width:0.5;" width="61" x="967.5" y="555"/><text fill="#000000" font-family="sans-serif" font-size="14" lengthAdjust="spacing" textLength="41" x="977.5" y="572.5332">Plastic</text></g><g id="elem_133"><ellipse cx="755.3575" cy="504.8296" fill="#FFA500" rx="87.3575" ry="46.3296" style="stroke:#181818;stroke-width:0.5;"/><text fill="#000000" font-family="sans-serif" font-size="14" lengthAdjust="spacing" textLength="53" x="721.2359" y="479.3122">Foundry</text><line style="stroke:#181818;stroke-width:1.0;" x1="679.9323" x2="830.7828" y1="482.3884" y2="482.3884"/><text fill="#000000" font-family="sans-serif" font-size="14" lengthAdjust="spacing" textLength="89" x="705.2359" y="500.9216">Nombre : 0.11</text><line style="stroke:#181818;stroke-width:1.0;" x1="669.2045" x2="841.5106" y1="507.9977" y2="507.9977"/><text fill="#000000" font-family="sans-serif" font-size="14" lengthAdjust="spacing" textLength="122" x="686.7359" y="526.5309">Puissance : 1.78 W</text></g><!--entity 134--><g id="elem_134"><rect fill="#00FFFF" height="23.6094" rx="2.5" ry="2.5" style="stroke:#181818;stroke-width:0.5;" width="72" x="492.5" y="493"/><text fill="#000000" font-family="sans-serif" font-size="14" lengthAdjust="spacing" textLength="52" x="502.5" y="510.5332">Iron Ore</text></g><!--entity 137--><g id="elem_137"><rect fill="#00FFFF" height="23.6094" rx="2.5" ry="2.5" style="stroke:#181818;stroke-width:0.5;" width="95" x="481" y="264"/><text fill="#000000" font-family="sans-serif" font-size="14" lengthAdjust="spacing" textLength="75" x="491" y="281.5332">Copper Ore</text></g><g id="elem_141"><ellipse cx="755.3575" cy="632.8296" fill="#FFA500" rx="87.3575" ry="46.3296" style="stroke:#181818;stroke-width:0.5;"/><text fill="#000000" font-family="sans-serif" font-size="14" lengthAdjust="spacing" textLength="53" x="721.2359" y="607.3122">Refinery</text><line style="stroke:#181818;stroke-width:1.0;" x1="679.9323" x2="830.7828" y1="610.3884" y2="610.3884"/><text fill="#000000" font-family="sans-serif" font-size="14" lengthAdjust="spacing" textLength="89" x="705.2359" y="628.9216">Nombre : 0.06</text><line style="stroke:#181818;stroke-width:1.0;" x1="669.2045" x2="841.5106" y1="635.9977" y2="635.9977"/><text fill="#000000" font-family="sans-serif" font-size="14" lengthAdjust="spacing" textLength="122" x="686.7359" y="654.5309">Puissance : 1.67 W</text></g><!--entity 142--><g id="elem_142"><rect fill="#008000" height="37.6094" rx="35" ry="35" style="stroke:#181818;stroke-width:0.5;" width="136" x="930" y="614"/><text fill="#000000" font-family="sans-serif" font-size="14" lengthAdjust="spacing" textLength="116" x="940" y="638.5332">Heavy Oil Residue</text></g><!--entity 143--><g id="elem_143"><rect fill="#00FFFF" height="23.6094" rx="2.5" ry="2.5" style="stroke:#181818;stroke-width:0.5;" width="80" x="488.5" y="621"/><text fill="#000000" font-family="sans-serif" font-size="14" lengthAdjust="spacing" textLength="60" x="498.5" y="638.5332">Crude Oil</text></g><g id="elem_144"><ellipse cx="324.2641" cy="634.8226" fill="#FFA500" rx="90.2641" ry="47.8226" style="stroke:#181818;stroke-width:0.5;"/><text fill="#000000" font-family="sans-serif" font-size="14" lengthAdjust="spacing" textLength="77" x="277.7719" y="611.5493">Oil Extractor</text><line style="stroke:#181818;stroke-width:1.0;" x1="243.445" x2="405.0832" y1="614.6255" y2="614.6255"/><text fill="#000000" font-family="sans-serif" font-size="14" lengthAdjust="spacing" textLength="89" x="273.7719" y="633.1587">Nombre : 0.01</text><line style="stroke:#181818;stroke-width:1.0;" x1="235.5799" x2="412.9483" y1="640.2349" y2="640.2349"/><text fill="#000000" font-family="sans-serif" font-size="14" lengthAdjust="spacing" textLength="122" x="255.2719" y="658.7681">Puissance : 0.56 W</text></g><!--entity 145--><g id="elem_145"><polygon fill="#98FB98" points="37,621,47,611,126,611,126,648.6094,116,658.6094,37,658.6094,37,621" style="stroke:#181818;stroke-width:0.5;"/><line style="stroke:#181818;stroke-width:0.5;" x1="116" x2="126" y1="621" y2="611"/><line style="stroke:#181818;stroke-width:0.5;" x1="37" x2="116" y1="621" y2="621"/><line style="stroke:#181818;stroke-width:0.5;" x1="116" x2="116" y1="621" y2="658.6094"/><text fill="#000000" font-family="sans-serif" font-size="14" lengthAdjust="spacing" textLength="49" x="52" y="645.5332">Oil Pool</text></g><g id="elem_147"><ellipse cx="1316.7925" cy="377.0667" fill="#FFA500" rx="88.7925" ry="47.0667" style="stroke:#181818;stroke-width:0.5;"/><text fill="#000000" font-family="sans-serif" font-size="14" lengthAdjust="spacing" textLength="66" x="1275.9859" y="352.6694">Assembler</text><line style="stroke:#181818;stroke-width:1.0;" x1="1238.633" x2="1394.9521" y1="355.7456" y2="355.7456"/><text fill="#000000" font-family="sans-serif" font-size="14" lengthAdjust="spacing" textLength="81" x="1270.4859" y="374.2788">Nombre : 0.5</text><line style="stroke:#181818;stroke-width:1.0;" x1="1229.3693" x2="1404.2158" y1="381.3549" y2="381.3549"/><text fill="#000000" font-family="sans-serif" font-size="14" lengthAdjust="spacing" textLength="122" x="1247.9859" y="399.8881">Puissance : 7.44 W</text></g><!--entity 148--><g id="elem_148"><rect fill="#00FFFF" height="23.6094" rx="2.5" ry="2.5" style="stroke:#181818;stroke-width:0.5;" width="102" x="947" y="278"/><text fill="#000000" font-family="sans-serif" font-size="14" lengthAdjust="spacing" textLength="82" x="957" y="295.5332">Copper Ingot</text></g><!--entity 156--><g id="elem_156"><rect fill="#00FFFF" height="23.6094" rx="2.5" ry="2.5" style="stroke:#181818;stroke-width:0.5;" width="112" x="942" y="365"/><text fill="#000000" font-family="sans-serif" font-size="14" lengthAdjust="spacing" textLength="92" x="952" y="382.5332">Caterium Ingot</text></g><g id="elem_157"><ellipse cx="755.6237" cy="377.2217" fill="#FFA500" rx="82.1237" ry="46.2217" style="stroke:#181818;stroke-width:0.5;"/><text fill="#000000" font-family="sans-serif" font-size="14" lengthAdjust="spacing" textLength="48" x="724.2732" y="351.6519">Smelter</text><line style="stroke:#181818;stroke-width:1.0;" x1="684.8805" x2="826.367" y1="354.7281" y2="354.7281"/><text fill="#000000" font-family="sans-serif" font-size="14" lengthAdjust="spacing" textLength="81" x="709.7732" y="373.2613">Nombre : 0.1</text><line style="stroke:#181818;stroke-width:1.0;" x1="674.6868" x2="836.5607" y1="380.3375" y2="380.3375"/><text fill="#000000" font-family="sans-serif" font-size="14" lengthAdjust="spacing" textLength="114" x="691.2732" y="398.8707">Puissance : 0.4 W</text></g><!--entity 158--><g id="elem_158"><rect fill="#00FFFF" height="23.6094" rx="2.5" ry="2.5" style="stroke:#181818;stroke-width:0.5;" width="105" x="476" y="382"/><text fill="#000000" font-family="sans-serif" font-size="14" lengthAdjust="spacing" textLength="85" x="486" y="399.5332">Caterium Ore</text></g><g id="elem_159"><ellipse cx="324.6737" cy="373.7625" fill="#FFA500" rx="89.1737" ry="47.2625" style="stroke:#181818;stroke-width:0.5;"/><text fill="#000000" font-family="sans-serif" font-size="14" lengthAdjust="spacing" textLength="69" x="282.3186" y="349.6586">Miner Mk.2</text><line style="stroke:#181818;stroke-width:1.0;" x1="245.8121" x2="403.5352" y1="352.7347" y2="352.7347"/><text fill="#000000" font-family="sans-serif" font-size="14" lengthAdjust="spacing" textLength="89" x="274.3186" y="371.2679">Nombre : 0.04</text><line style="stroke:#181818;stroke-width:1.0;" x1="236.92" x2="412.4273" y1="378.3441" y2="378.3441"/><text fill="#000000" font-family="sans-serif" font-size="14" lengthAdjust="spacing" textLength="122" x="255.8186" y="396.8773">Puissance : 0.45 W</text></g><!--entity 160--><g id="elem_160"><polygon fill="#98FB98" points="16,360,26,350,147,350,147,387.6094,137,397.6094,16,397.6094,16,360" style="stroke:#181818;stroke-width:0.5;"/><line style="stroke:#181818;stroke-width:0.5;" x1="137" x2="147" y1="360" y2="350"/><line style="stroke:#181818;stroke-width:0.5;" x1="16" x2="137" y1="360" y2="360"/><line style="stroke:#181818;stroke-width:0.5;" x1="137" x2="137" y1="360" y2="397.6094"/><text fill="#000000" font-family="sans-serif" font-size="14" lengthAdjust="spacing" textLength="91" x="31" y="384.5332">Caterium Mine</text></g><!--entity 0--><g id="elem_0"><rect fill="#00FFFF" height="23.6094" rx="2.5" ry="2.5" style="stroke:#181818;stroke-width:0.5;" width="82" x="3111" y="180"/><text fill="#000000" font-family="sans-serif" font-size="14" lengthAdjust="spacing" textLength="62" x="3121" y="197.5332">Computer</text></g><!--link 70 to 69--><g id="link_70_69"><path d="M2764.58,161.22 C2794.52,166.14 2827.4092,171.5381 2861.9492,177.2081 " fill="none" id="70-to-69" style="stroke:#181818;stroke-width:1.0;"/><polygon fill="#181818" points="2867.87,178.18,2859.6368,172.7749,2862.936,177.3701,2858.3409,180.6693,2867.87,178.18" style="stroke:#181818;stroke-width:1.0;"/><text fill="#000000" font-family="sans-serif" font-size="13" lengthAdjust="spacing" textLength="25" x="2808" y="166.4951">2.67</text></g><!--link 104 to 69--><g id="link_104_69"><path d="M2777.19,223.31 C2787.16,223.6 2797.36,223.84 2807,224 C2819,224.19 2822.11,225.58 2834,224 C2847.78,222.16 2856.4152,220.6094 2870.2952,217.1794 " fill="none" id="104-to-69" style="stroke:#181818;stroke-width:1.0;"/><polygon fill="#181818" points="2876.12,215.74,2866.4232,214.0159,2871.266,216.9395,2868.3424,221.7823,2876.12,215.74" style="stroke:#181818;stroke-width:1.0;"/><text fill="#000000" font-family="sans-serif" font-size="13" lengthAdjust="spacing" textLength="18" x="2811.5" y="220.4951">1.0</text></g><!--link 71 to 70--><g id="link_71_70"><path d="M2578.19,129.15 C2606.35,134.15 2631.3126,138.5797 2656.3426,143.0297 " fill="none" id="71-to-70" style="stroke:#181818;stroke-width:1.0;"/><polygon fill="#181818" points="2662.25,144.08,2654.0891,138.5664,2657.3272,143.2048,2652.6888,146.4429,2662.25,144.08" style="stroke:#181818;stroke-width:1.0;"/></g><!--link 105 to 104--><g id="link_105_104"><path d="M2580.32,254.35 C2608.87,247.15 2634.1523,240.7679 2659.0023,234.4979 " fill="none" id="105-to-104" style="stroke:#181818;stroke-width:1.0;"/><polygon fill="#181818" points="2664.82,233.03,2655.1149,231.3534,2659.9719,234.2532,2657.0721,239.1103,2664.82,233.03" style="stroke:#181818;stroke-width:1.0;"/></g><!--link 72 to 71--><g id="link_72_71"><path d="M1877.15,24.05 C1975.86,33.81 2194.02,57.14 2376,89 C2389.91,91.44 2398.7874,93.1102 2413.0174,96.0902 " fill="none" id="72-to-71" style="stroke:#181818;stroke-width:1.0;"/><polygon fill="#181818" points="2418.89,97.32,2410.901,91.5602,2413.9962,96.2951,2409.2612,99.3903,2418.89,97.32" style="stroke:#181818;stroke-width:1.0;"/><text fill="#000000" font-family="sans-serif" font-size="13" lengthAdjust="spacing" textLength="25" x="2118" y="48.4951">5.87</text></g><!--link 82 to 71--><g id="link_82_71"><path d="M2273.21,115 C2305.95,115 2358.13,115 2406.9,115 " fill="none" id="82-to-71" style="stroke:#181818;stroke-width:1.0;"/><polygon fill="#181818" points="2412.9,115,2403.9,111,2407.9,115,2403.9,119,2412.9,115" style="stroke:#181818;stroke-width:1.0;"/><text fill="#000000" font-family="sans-serif" font-size="13" lengthAdjust="spacing" textLength="25" x="2350" y="111.4951">5.87</text></g><!--link 73 to 72--><g id="link_73_72"><path d="M1612.33,52.41 C1662.87,44.35 1719.3946,35.3429 1762.9446,28.4129 " fill="none" id="73-to-72" style="stroke:#181818;stroke-width:1.0;"/><polygon fill="#181818" points="1768.87,27.47,1759.3532,24.9341,1763.9321,28.2558,1760.6104,32.8347,1768.87,27.47" style="stroke:#181818;stroke-width:1.0;"/></g><!--link 83 to 82--><g id="link_83_82"><path d="M2087,115 C2134.12,115 2182.56,115 2213.81,115 " fill="none" id="83-to-82" style="stroke:#181818;stroke-width:1.0;"/><polygon fill="#181818" points="2219.81,115,2210.81,111,2214.81,115,2210.81,119,2219.81,115" style="stroke:#181818;stroke-width:1.0;"/></g><!--link 74 to 73--><g id="link_74_73"><path d="M1198.06,96.35 C1258.95,90.7 1356.8157,81.6146 1431.1457,74.7146 " fill="none" id="74-to-73" style="stroke:#181818;stroke-width:1.0;"/><polygon fill="#181818" points="1437.12,74.16,1427.7888,71.009,1432.1414,74.6222,1428.5283,78.9748,1437.12,74.16" style="stroke:#181818;stroke-width:1.0;"/><text fill="#000000" font-family="sans-serif" font-size="13" lengthAdjust="spacing" textLength="32" x="1301" y="74.4951">11.73</text></g><!--link 116 to 74--><g id="link_116_74"><path d="M827.09,203.93 C858.46,192.17 895.92,178.48 930,167 C990.01,146.78 1054.5095,127.4884 1098.1995,114.7584 " fill="none" id="116-to-74" style="stroke:#181818;stroke-width:1.0;"/><polygon fill="#181818" points="1103.96,113.08,1094.2004,111.7573,1099.1596,114.4787,1096.4383,119.438,1103.96,113.08" style="stroke:#181818;stroke-width:1.0;"/></g><!--link 84 to 83--><g id="link_84_83"><path d="M1739.11,126.89 C1783.51,124.83 1846.1764,121.9381 1901.3464,119.3781 " fill="none" id="84-to-83" style="stroke:#181818;stroke-width:1.0;"/><polygon fill="#181818" points="1907.34,119.1,1898.1643,115.5215,1902.3454,119.3318,1898.5351,123.5129,1907.34,119.1" style="stroke:#181818;stroke-width:1.0;"/><text fill="#000000" font-family="sans-serif" font-size="13" lengthAdjust="spacing" textLength="25" x="1810.5" y="117.4951">3.52</text></g><!--link 109 to 84--><g id="link_109_84"><path d="M1399.97,191.44 C1475.45,175.28 1578.823,153.1364 1639.903,140.0564 " fill="none" id="109-to-84" style="stroke:#181818;stroke-width:1.0;"/><polygon fill="#181818" points="1645.77,138.8,1636.1319,136.7733,1640.8808,139.847,1637.8071,144.5959,1645.77,138.8" style="stroke:#181818;stroke-width:1.0;"/></g><!--link 106 to 105--><g id="link_106_105"><path d="M2301.53,260.91 C2332.14,263.12 2365.2356,265.5073 2400.3656,268.0473 " fill="none" id="106-to-105" style="stroke:#181818;stroke-width:1.0;"/><polygon fill="#181818" points="2406.35,268.48,2397.6619,263.8414,2401.363,268.1194,2397.085,271.8206,2406.35,268.48" style="stroke:#181818;stroke-width:1.0;"/><text fill="#000000" font-family="sans-serif" font-size="13" lengthAdjust="spacing" textLength="25" x="2350" y="261.4951">18.0</text></g><!--link 111 to 105--><g id="link_111_105"><path d="M2275.1,323.01 C2308.08,315.86 2358.9563,304.8317 2406.7263,294.4717 " fill="none" id="111-to-105" style="stroke:#181818;stroke-width:1.0;"/><polygon fill="#181818" points="2412.59,293.2,2402.9467,291.1984,2407.7036,294.2597,2404.6422,299.0166,2412.59,293.2" style="stroke:#181818;stroke-width:1.0;"/><text fill="#000000" font-family="sans-serif" font-size="13" lengthAdjust="spacing" textLength="25" x="2350" y="298.4951">14.0</text></g><!--link 128 to 105--><g id="link_128_105"><path d="M2269.16,402.82 C2305.55,382.36 2375.0001,343.3108 2428.8501,313.0308 " fill="none" id="128-to-105" style="stroke:#181818;stroke-width:1.0;"/><polygon fill="#181818" points="2434.08,310.09,2424.2746,311.0146,2429.7218,312.5407,2428.1957,317.9878,2434.08,310.09" style="stroke:#181818;stroke-width:1.0;"/><text fill="#000000" font-family="sans-serif" font-size="13" lengthAdjust="spacing" textLength="18" x="2353.5" y="341.4951">2.5</text></g><!--link 107 to 106--><g id="link_107_106"><path d="M2082.48,249.75 C2118.47,251.35 2153.416,252.9027 2185.256,254.3227 " fill="none" id="107-to-106" style="stroke:#181818;stroke-width:1.0;"/><polygon fill="#181818" points="2191.25,254.59,2182.4372,250.193,2186.255,254.3672,2182.0807,258.185,2191.25,254.59" style="stroke:#181818;stroke-width:1.0;"/></g><!--link 112 to 111--><g id="link_112_111"><path d="M2081.79,360.75 C2129.05,351.58 2179.1298,341.8724 2211.8698,335.5224 " fill="none" id="112-to-111" style="stroke:#181818;stroke-width:1.0;"/><polygon fill="#181818" points="2217.76,334.38,2208.163,332.1668,2212.8515,335.332,2209.6863,340.0205,2217.76,334.38" style="stroke:#181818;stroke-width:1.0;"/></g><!--link 129 to 128--><g id="link_129_128"><path d="M2070.25,480.14 C2117.48,462.59 2171.2655,442.5893 2207.3655,429.1793 " fill="none" id="129-to-128" style="stroke:#181818;stroke-width:1.0;"/><polygon fill="#181818" points="2212.99,427.09,2203.1604,426.4743,2208.3029,428.8311,2205.9462,433.9736,2212.99,427.09" style="stroke:#181818;stroke-width:1.0;"/></g><!--link 108 to 107--><g id="link_108_107"><path d="M1739.11,227.32 C1784.75,230.64 1850.0358,235.3854 1905.9358,239.4454 " fill="none" id="108-to-107" style="stroke:#181818;stroke-width:1.0;"/><polygon fill="#181818" points="1911.92,239.88,1903.2334,235.2386,1906.9331,239.5178,1902.6539,243.2175,1911.92,239.88" style="stroke:#181818;stroke-width:1.0;"/><text fill="#000000" font-family="sans-serif" font-size="13" lengthAdjust="spacing" textLength="25" x="1810.5" y="226.4951">30.0</text></g><!--link 109 to 108--><g id="link_109_108"><path d="M1406.04,212.54 C1481.2,215.55 1580.3048,219.54 1639.7648,221.92 " fill="none" id="109-to-108" style="stroke:#181818;stroke-width:1.0;"/><polygon fill="#181818" points="1645.76,222.16,1636.9272,217.8032,1640.764,221.96,1636.6072,225.7968,1645.76,222.16" style="stroke:#181818;stroke-width:1.0;"/></g><!--link 110 to 109--><g id="link_110_109"><path d="M1056.04,209 C1103.81,209 1166.8,209 1221.7,209 " fill="none" id="110-to-109" style="stroke:#181818;stroke-width:1.0;"/><polygon fill="#181818" points="1227.7,209,1218.7,205,1222.7,209,1218.7,213,1227.7,209" style="stroke:#181818;stroke-width:1.0;"/><text fill="#000000" font-family="sans-serif" font-size="13" lengthAdjust="spacing" textLength="25" x="1134.5" y="205.4951">0.28</text></g><!--link 113 to 112--><g id="link_113_112"><path d="M1717.24,377 C1757.56,377 1835.41,377 1900.67,377 " fill="none" id="113-to-112" style="stroke:#181818;stroke-width:1.0;"/><polygon fill="#181818" points="1906.67,377,1897.67,373,1901.67,377,1897.67,381,1906.67,377" style="stroke:#181818;stroke-width:1.0;"/><text fill="#000000" font-family="sans-serif" font-size="13" lengthAdjust="spacing" textLength="25" x="1810.5" y="373.4951">28.0</text></g><!--link 147 to 113--><g id="link_147_113"><path d="M1406.04,377 C1491.66,377 1610.13,377 1661.72,377 " fill="none" id="147-to-113" style="stroke:#181818;stroke-width:1.0;"/><polygon fill="#181818" points="1667.72,377,1658.72,373,1662.72,377,1658.72,381,1667.72,377" style="stroke:#181818;stroke-width:1.0;"/></g><!--link 117 to 116--><g id="link_117_116"><path d="M576.12,219.9 C602.76,221.56 631.0316,223.3176 662.3916,225.2676 " fill="none" id="117-to-116" style="stroke:#181818;stroke-width:1.0;"/><polygon fill="#181818" points="668.38,225.64,659.6456,221.0892,663.3896,225.3297,659.1491,229.0737,668.38,225.64" style="stroke:#181818;stroke-width:1.0;"/><text fill="#000000" font-family="sans-serif" font-size="13" lengthAdjust="spacing" textLength="25" x="612" y="219.4951">8.84</text></g><!--link 120 to 116--><g id="link_120_116"><path d="M564.88,342.27 C586.68,345.16 614.81,345.97 638,337 C642.69,335.19 676.0154,304.6058 707.2854,275.3958 " fill="none" id="120-to-116" style="stroke:#181818;stroke-width:1.0;"/><polygon fill="#181818" points="711.67,271.3,702.3626,274.5206,708.0162,274.7131,707.8236,280.3667,711.67,271.3" style="stroke:#181818;stroke-width:1.0;"/><text fill="#000000" font-family="sans-serif" font-size="13" lengthAdjust="spacing" textLength="25" x="612" y="333.4951">4.42</text></g><!--link 118 to 117--><g id="link_118_117"><path d="M412.63,226.1 C436.12,224.24 454.6588,222.7741 474.9688,221.1641 " fill="none" id="118-to-117" style="stroke:#181818;stroke-width:1.0;"/><polygon fill="#181818" points="480.95,220.69,471.6621,217.4137,475.9656,221.0851,472.2942,225.3887,480.95,220.69" style="stroke:#181818;stroke-width:1.0;"/></g><!--link 121 to 120--><g id="link_121_120"><path d="M381.24,466.97 C392.85,458.32 404.68,448.77 415,439 C446.2,409.46 443.15,391.69 476,364 C483.69,357.52 487.7607,354.6012 496.3707,349.9512 " fill="none" id="121-to-120" style="stroke:#181818;stroke-width:1.0;"/><polygon fill="#181818" points="501.65,347.1,491.8303,347.8572,497.2506,349.476,495.6319,354.8963,501.65,347.1" style="stroke:#181818;stroke-width:1.0;"/></g><!--link 119 to 118--><g id="link_119_118"><path d="M142.07,233 C170.23,233 198.41,233 229.48,233 " fill="none" id="119-to-118" style="stroke:#181818;stroke-width:1.0;"/><polygon fill="#181818" points="235.48,233,226.48,229,230.48,233,226.48,237,235.48,233" style="stroke:#181818;stroke-width:1.0;"/><text fill="#000000" font-family="sans-serif" font-size="13" lengthAdjust="spacing" textLength="25" x="178" y="229.4951">0.09</text></g><!--link 122 to 121--><g id="link_122_121"><path d="M130.69,504 C160.64,504 194.04,504 229.41,504 " fill="none" id="122-to-121" style="stroke:#181818;stroke-width:1.0;"/><polygon fill="#181818" points="235.41,504,226.41,500,230.41,504,226.41,508,235.41,504" style="stroke:#181818;stroke-width:1.0;"/><text fill="#000000" font-family="sans-serif" font-size="13" lengthAdjust="spacing" textLength="25" x="178" y="500.4951">0.06</text></g><!--link 130 to 129--><g id="link_130_129"><path d="M1732.74,507 C1776.86,507 1843.91,507 1901.89,507 " fill="none" id="130-to-129" style="stroke:#181818;stroke-width:1.0;"/><polygon fill="#181818" points="1907.89,507,1898.89,503,1902.89,507,1898.89,511,1907.89,507" style="stroke:#181818;stroke-width:1.0;"/><text fill="#000000" font-family="sans-serif" font-size="13" lengthAdjust="spacing" textLength="25" x="1810.5" y="503.4951">8.33</text></g><!--link 146 to 129--><g id="link_146_129"><path d="M1717.24,447.1 C1759.16,456.11 1842.274,473.9693 1908.484,488.1993 " fill="none" id="146-to-129" style="stroke:#181818;stroke-width:1.0;"/><polygon fill="#181818" points="1914.35,489.46,1906.3914,483.6582,1909.4616,488.4094,1904.7104,491.4796,1914.35,489.46" style="stroke:#181818;stroke-width:1.0;"/><text fill="#000000" font-family="sans-serif" font-size="13" lengthAdjust="spacing" textLength="32" x="1807" y="455.4951">16.67</text></g><!--link 131 to 130--><g id="link_131_130"><path d="M1406.04,507 C1484.11,507 1588.49,507 1646.46,507 " fill="none" id="131-to-130" style="stroke:#181818;stroke-width:1.0;"/><polygon fill="#181818" points="1652.46,507,1643.46,503,1647.46,507,1643.46,511,1652.46,507" style="stroke:#181818;stroke-width:1.0;"/></g><!--link 147 to 146--><g id="link_147_146"><path d="M1401.82,391.59 C1487.64,406.52 1609.7087,427.7719 1662.0287,436.8719 " fill="none" id="147-to-146" style="stroke:#181818;stroke-width:1.0;"/><polygon fill="#181818" points="1667.94,437.9,1659.7585,432.417,1663.014,437.0432,1658.3877,440.2986,1667.94,437.9" style="stroke:#181818;stroke-width:1.0;"/></g><!--link 132 to 131--><g id="link_132_131"><path d="M1037.55,505.24 C1084.5,505.54 1159.2401,506.0126 1221.7301,506.4026 " fill="none" id="132-to-131" style="stroke:#181818;stroke-width:1.0;"/><polygon fill="#181818" points="1227.73,506.44,1218.7551,502.3839,1222.7301,506.4088,1218.7052,510.3838,1227.73,506.44" style="stroke:#181818;stroke-width:1.0;"/><text fill="#000000" font-family="sans-serif" font-size="13" lengthAdjust="spacing" textLength="25" x="1134.5" y="501.4951">5.56</text></g><!--link 140 to 131--><g id="link_140_131"><path d="M1028.73,562.1 C1067.68,555.61 1138.08,543.61 1198,532 C1209.82,529.71 1216.4054,528.4101 1228.6354,525.8701 " fill="none" id="140-to-131" style="stroke:#181818;stroke-width:1.0;"/><polygon fill="#181818" points="1234.51,524.65,1224.8847,522.5637,1229.6145,525.6667,1226.5114,530.3965,1234.51,524.65" style="stroke:#181818;stroke-width:1.0;"/><text fill="#000000" font-family="sans-serif" font-size="13" lengthAdjust="spacing" textLength="25" x="1134.5" y="528.4951">1.11</text></g><!--link 133 to 132--><g id="link_133_132"><path d="M843.33,505 C882.75,505 921.38,505 952.34,505 " fill="none" id="133-to-132" style="stroke:#181818;stroke-width:1.0;"/><polygon fill="#181818" points="958.34,505,949.34,501,953.34,505,949.34,509,958.34,505" style="stroke:#181818;stroke-width:1.0;"/></g><!--link 141 to 140--><g id="link_141_140"><path d="M833.59,611.84 C879.07,599.36 928.2541,585.8686 961.4341,576.7586 " fill="none" id="141-to-140" style="stroke:#181818;stroke-width:1.0;"/><polygon fill="#181818" points="967.22,575.17,957.4821,573.6956,962.3984,576.4938,959.6002,581.4101,967.22,575.17" style="stroke:#181818;stroke-width:1.0;"/></g><!--link 134 to 133--><g id="link_134_133"><path d="M564.66,505 C592.22,505 625.78,505 661.67,505 " fill="none" id="134-to-133" style="stroke:#181818;stroke-width:1.0;"/><polygon fill="#181818" points="667.67,505,658.67,501,662.67,505,658.67,509,667.67,505" style="stroke:#181818;stroke-width:1.0;"/><text fill="#000000" font-family="sans-serif" font-size="13" lengthAdjust="spacing" textLength="25" x="612" y="501.4951">2.22</text></g><!--link 137 to 133--><g id="link_137_133"><path d="M576.09,282.37 C597.76,287.65 622.19,297.32 638,315 C676.38,357.91 636.27,392.97 668,441 C675.41,452.22 680.8135,458.4534 691.4835,466.9834 " fill="none" id="137-to-133" style="stroke:#181818;stroke-width:1.0;"/><polygon fill="#181818" points="696.17,470.73,691.638,461.9858,692.2646,467.6079,686.6425,468.2345,696.17,470.73" style="stroke:#181818;stroke-width:1.0;"/><text fill="#000000" font-family="sans-serif" font-size="13" lengthAdjust="spacing" textLength="25" x="612" y="293.4951">2.22</text></g><!--link 121 to 134--><g id="link_121_134"><path d="M413.51,504.44 C441.37,504.57 464.5601,504.6898 486.4301,504.7998 " fill="none" id="121-to-134" style="stroke:#181818;stroke-width:1.0;"/><polygon fill="#181818" points="492.43,504.83,483.4502,500.7848,487.4301,504.8049,483.41,508.7847,492.43,504.83" style="stroke:#181818;stroke-width:1.0;"/></g><!--link 118 to 137--><g id="link_118_137"><path d="M407.37,250.43 C432.41,255.76 453.2211,260.1926 475.0511,264.8326 " fill="none" id="118-to-137" style="stroke:#181818;stroke-width:1.0;"/><polygon fill="#181818" points="480.92,266.08,472.9483,260.2962,476.0293,265.0405,471.285,268.1214,480.92,266.08" style="stroke:#181818;stroke-width:1.0;"/></g><!--link 141 to 142--><g id="link_141_142"><path d="M843.33,633 C871.85,633 897.1,633 923.93,633 " fill="none" id="141-to-142" style="stroke:#181818;stroke-width:1.0;"/><polygon fill="#181818" points="929.93,633,920.93,629,924.93,633,920.93,637,929.93,633" style="stroke:#181818;stroke-width:1.0;"/><text fill="#000000" font-family="sans-serif" font-size="13" lengthAdjust="spacing" textLength="25" x="874" y="629.4951">0.56</text></g><!--link 143 to 141--><g id="link_143_141"><path d="M568.69,633 C596.01,633 627.55,633 661.74,633 " fill="none" id="143-to-141" style="stroke:#181818;stroke-width:1.0;"/><polygon fill="#181818" points="667.74,633,658.74,629,662.74,633,658.74,637,667.74,633" style="stroke:#181818;stroke-width:1.0;"/><text fill="#000000" font-family="sans-serif" font-size="13" lengthAdjust="spacing" textLength="25" x="612" y="629.4951">1.67</text></g><!--link 144 to 143--><g id="link_144_143"><path d="M415.28,634.11 C440.88,633.86 461.4603,633.6475 482.3203,633.4475 " fill="none" id="144-to-143" style="stroke:#181818;stroke-width:1.0;"/><polygon fill="#181818" points="488.32,633.39,479.2821,629.4765,483.3202,633.4379,479.3588,637.4761,488.32,633.39" style="stroke:#181818;stroke-width:1.0;"/></g><!--link 145 to 144--><g id="link_145_144"><path d="M126.14,635 C156.12,635 190.99,635 227.76,635 " fill="none" id="145-to-144" style="stroke:#181818;stroke-width:1.0;"/><polygon fill="#181818" points="233.76,635,224.76,631,228.76,635,224.76,639,233.76,635" style="stroke:#181818;stroke-width:1.0;"/><text fill="#000000" font-family="sans-serif" font-size="13" lengthAdjust="spacing" textLength="25" x="178" y="631.4951">0.01</text></g><!--link 148 to 147--><g id="link_148_147"><path d="M1042.74,302.01 C1092.93,315.78 1170.4238,337.0527 1231.8838,353.9127 " fill="none" id="148-to-147" style="stroke:#181818;stroke-width:1.0;"/><polygon fill="#181818" points="1237.67,355.5,1230.0489,349.2616,1232.8481,354.1772,1227.9325,356.9765,1237.67,355.5" style="stroke:#181818;stroke-width:1.0;"/><text fill="#000000" font-family="sans-serif" font-size="13" lengthAdjust="spacing" textLength="25" x="1134.5" y="315.4951">5.96</text></g><!--link 156 to 147--><g id="link_156_147"><path d="M1054.22,377 C1102.11,377 1166.29,377 1221.93,377 " fill="none" id="156-to-147" style="stroke:#181818;stroke-width:1.0;"/><polygon fill="#181818" points="1227.93,377,1218.93,373,1222.93,377,1218.93,381,1227.93,377" style="stroke:#181818;stroke-width:1.0;"/><text fill="#000000" font-family="sans-serif" font-size="13" lengthAdjust="spacing" textLength="25" x="1134.5" y="373.4951">1.49</text></g><!--link 116 to 148--><g id="link_116_148"><path d="M835.25,250.32 C872.37,259.43 909.6825,268.5815 942.0725,276.5215 " fill="none" id="116-to-148" style="stroke:#181818;stroke-width:1.0;"/><polygon fill="#181818" points="947.9,277.95,940.1112,271.9222,943.0438,276.7596,938.2065,279.6922,947.9,277.95" style="stroke:#181818;stroke-width:1.0;"/></g><!--link 157 to 156--><g id="link_157_156"><path d="M837.59,377 C871.82,377 904.8,377 935.64,377 " fill="none" id="157-to-156" style="stroke:#181818;stroke-width:1.0;"/><polygon fill="#181818" points="941.64,377,932.64,373,936.64,377,932.64,381,941.64,377" style="stroke:#181818;stroke-width:1.0;"/></g><!--link 158 to 157--><g id="link_158_157"><path d="M581.23,395.46 C591.11,395.69 601.38,395.88 611,396 C623,396.15 626.04,396.97 638,396 C650.77,394.97 658.3036,394.1714 671.3836,392.2514 " fill="none" id="158-to-157" style="stroke:#181818;stroke-width:1.0;"/><polygon fill="#181818" points="677.32,391.38,667.8345,388.7295,672.373,392.1062,668.9964,396.6447,677.32,391.38" style="stroke:#181818;stroke-width:1.0;"/><text fill="#000000" font-family="sans-serif" font-size="13" lengthAdjust="spacing" textLength="25" x="612" y="392.4951">4.47</text></g><!--link 159 to 158--><g id="link_159_158"><path d="M412.05,382.57 C433.78,384.72 450.4594,386.3666 469.8794,388.2966 " fill="none" id="159-to-158" style="stroke:#181818;stroke-width:1.0;"/><polygon fill="#181818" points="475.85,388.89,467.2897,384.0196,470.8745,388.3955,466.4985,391.9803,475.85,388.89" style="stroke:#181818;stroke-width:1.0;"/></g><!--link 160 to 159--><g id="link_160_159"><path d="M147.08,374 C174.13,374 200.01,374 229.18,374 " fill="none" id="160-to-159" style="stroke:#181818;stroke-width:1.0;"/><polygon fill="#181818" points="235.18,374,226.18,370,230.18,374,226.18,378,235.18,374" style="stroke:#181818;stroke-width:1.0;"/><text fill="#000000" font-family="sans-serif" font-size="13" lengthAdjust="spacing" textLength="25" x="178" y="370.4951">0.04</text></g><!--link 69 to 0--><g id="link_69_0"><path d="M3042.13,192 C3066.1,192 3084.9,192 3104.77,192 " fill="none" id="69-to-0" style="stroke:#181818;stroke-width:1.0;"/><polygon fill="#181818" points="3110.77,192,3101.77,188,3105.77,192,3101.77,196,3110.77,192" style="stroke:#181818;stroke-width:1.0;"/><text fill="#000000" font-family="sans-serif" font-size="13" lengthAdjust="spacing" textLength="7" x="3073" y="188.4951">1</text></g><rect fill="#DDDDDD" height="45.2188" id="_legend" rx="7.5" ry="7.5" style="stroke:#000000;stroke-width:1.0;" width="179" x="1503" y="699.6451"/><text fill="#000000" font-family="sans-serif" font-size="14" lengthAdjust="spacing" textLength="169" x="1508" y="719.1783">Number of machines : 5.55</text><text fill="#000000" font-family="sans-serif" font-size="14" lengthAdjust="spacing" textLength="169" x="1508" y="736.7877">Power required : 100.15 W</text><!--SRC=[ZLPBRziu4BxhLn2vHyitgQ8eq0OjjeSqsURGCoFJZX1PybBIjcxH_xv3KYzRWjsJnHdEzysRRbwBwc2SsQFM_cXDMUmgbDkgjIufxRP5ROrSiNjfqQPmDc-BkahUDksnjE-ItBWD-lN1vAyxLtVLvgukQuVoewb-9rrZSzFOfRfsfjhPtqbLRrQq1rFQdRCM49eMhkvMxlJwjt_rRWnKCaEcGJVlcyRkdqlm__OsGL_g_REpw0t2APD1yjWLJMEgt0j5oXZwTXCZKJZOtnKkxueMVQX1sAi8vb7dZWta23qqUL6M1Zoy6UaLkKnFoOAUfNHYfv6XFXoiGqylrhQzHaVDKr4MkPdniTwWQbhNvU3BEQF85emqPMAYv7FApzMkRYTuVHMUBFE9KpdbKqVuh-Ox-gSphlqvWHCiWkxULDtMv6tdplD5KhoibaZnY4wm310H6lML6PGa5kFEG2K66TNH7rjKszhbTeC-kxf2Zr37kMVgMjpwOXq9rXV2ZYrwNrIGyFlNb2wQP0qybYmC325u7hK7ci4JUirthXRu9DLgyfx4id-3OPy3nrn_yaFeZej6q2jzfjaCLCqRxS5D9OdHX3eyd3BgAvd2sKeaKFOfKzcSz2nJb5o3NsrkES5JEhb-3dvb4N6-m9Qfd1M1pTBYstFC5vThrM5NDWyXAwawuPl5qg-1dYyw0ZuqRP7FATd5XbWZL7f6oC_gtekNVJ8oSj9FxzRNxFW7zHfY71uImcEOVrlptn4z52NwQfjYqqtPxLUUww30e9-pHuUzqSSVhJDhiuN9Iik8MSjmCO8yrlK9lBfSGR50Lj15KpwvNjdaKILalmdXHI-w_VcQ9o9IF-rjsQwqpaf8CrwXJy5FIoQkRJlCr-1dsqxYK_muQ86xrzJxGmVAcqJXszjty1V0xnwf4dYnXxD_IXI1ay8W5l01oaHHBo7XJu1MYJuzAkQFDD7-LzD4UJHuSG4DEfabi16zW2VQApGBUrfGmC_ycSE734J2csZm09waIS2zWEfHGA72yFA4iuIhtXamW3iU3cw2DjvMdWbxyy04OhYEmrSsl22mn8CzzSY1cmTeulsENn9KElL-KZmAUCeX0XA82AIG1e-fzprmmKxkDozilw0Ym-p1oWg2BE0o8E9o510PAi8271lTuTuiuB2OTm42ZaU1N-Tm8yJ2m34Ux3dOCnvaB6IEWegfCq5qdV4X7AP6UzhF9GW2D2VzhW11mENU-z0cC6BzOCE41O4AZcPWBEGe82dF-ew0Uw0AtdW64Qo4Yia51X4IAU2I386AR1W4wJNOey7_xfsjDicNRlyCWrDlqTxaBz3vJSoII1xhxw1mzjyE7eADjy4mgZ0t2TX5w_y1]--></g></svg>