<svg xmlns="http://www.w3.org/2000/svg" xmlns:xlink="http://www.w3.org/1999/xlink" contentStyleType="text/css" height="372px" preserveAspectRatio="none" style="width:1104px;height:372px;background:#FFFFFF;" version="1.1" viewBox="0 0 1104 372" width="1104px" zoomAndPan="magnify"><defs/><g><g id="elem_8"><ellipse cx="827.271" cy="124.4033" fill="#FFA500" rx="115.271" ry="61.9033" style="stroke:#181818;stroke-width:0.5;"/><text fill="#000000" font-family="sans-serif" font-size="14" lengthAdjust="spacing" textLength="53" x="793.4566" y="82.3445">Foundry</text><line style="stroke:#181818;stroke-width:1.0;" x1="738.7272" x2="915.8148" y1="85.4207" y2="85.4207"/><text fill="#000000" font-family="sans-serif" font-size="14" lengthAdjust="spacing" textLength="81" x="781.4566" y="103.9539">Nombre : 1.2</text><line style="stroke:#181818;stroke-width:1.0;" x1="715.722" x2="938.82" y1="111.0301" y2="111.0301"/><text fill="#000000" font-family="sans-serif" font-size="14" lengthAdjust="spacing" textLength="122" x="760.9566" y="129.5633">Puissance : 19.2 W</text><line style="stroke:#181818;stroke-width:1.0;" x1="715.2744" x2="939.2676" y1="136.6394" y2="136.6394"/><text fill="#000000" font-family="sans-serif" font-size="14" lengthAdjust="spacing" textLength="168" x="735.9566" y="155.1726">Dico Index : ('Iron Ingot', 1)</text></g><!--entity 9--><g id="elem_9"><rect fill="#00FFFF" height="23.6094" rx="2.5" ry="2.5" style="stroke:#181818;stroke-width:0.5;" width="72" x="541.5" y="69.5"/><text fill="#000000" font-family="sans-serif" font-size="14" lengthAdjust="spacing" textLength="52" x="551.5" y="87.0332">Iron Ore</text></g><!--entity 12--><g id="elem_12"><rect fill="#00FFFF" height="23.6094" rx="2.5" ry="2.5" style="stroke:#181818;stroke-width:0.5;" width="95" x="530" y="141.5"/><text fill="#000000" font-family="sans-serif" font-size="14" lengthAdjust="spacing" textLength="75" x="540" y="159.0332">Copper Ore</text></g><g id="elem_10"><ellipse cx="343.1361" cy="68.5754" fill="#FFA500" rx="112.1361" ry="62.5754" style="stroke:#181818;stroke-width:0.5;"/><text fill="#000000" font-family="sans-serif" font-size="14" lengthAdjust="spacing" textLength="69" x="301.3569" y="27.6476">Miner Mk.2</text><line style="stroke:#181818;stroke-width:1.0;" x1="254.8417" x2="431.4305" y1="30.7237" y2="30.7237"/><text fill="#000000" font-family="sans-serif" font-size="14" lengthAdjust="spacing" textLength="81" x="297.3569" y="49.2569">Nombre : 0.2</text><line style="stroke:#181818;stroke-width:1.0;" x1="234.1669" x2="452.1052" y1="56.3331" y2="56.3331"/><text fill="#000000" font-family="sans-serif" font-size="14" lengthAdjust="spacing" textLength="114" x="280.8569" y="74.8663">Puissance : 2.4 W</text><line style="stroke:#181818;stroke-width:1.0;" x1="234.5884" x2="451.6837" y1="81.9425" y2="81.9425"/><text fill="#000000" font-family="sans-serif" font-size="14" lengthAdjust="spacing" textLength="161" x="255.3569" y="100.4757">Dico Index : ('Iron Ore', 0)</text></g><!--entity 11--><g id="elem_11"><polygon fill="#98FB98" points="27.5,54.5,37.5,44.5,125.5,44.5,125.5,82.1094,115.5,92.1094,27.5,92.1094,27.5,54.5" style="stroke:#181818;stroke-width:0.5;"/><line style="stroke:#181818;stroke-width:0.5;" x1="115.5" x2="125.5" y1="54.5" y2="44.5"/><line style="stroke:#181818;stroke-width:0.5;" x1="27.5" x2="115.5" y1="54.5" y2="54.5"/><line style="stroke:#181818;stroke-width:0.5;" x1="115.5" x2="115.5" y1="54.5" y2="92.1094"/><text fill="#000000" font-family="sans-serif" font-size="14" lengthAdjust="spacing" textLength="58" x="42.5" y="79.0332">Iron Mine</text></g><g id="elem_13"><ellipse cx="343.0747" cy="228.3004" fill="#FFA500" rx="126.0747" ry="62.3004" style="stroke:#181818;stroke-width:0.5;"/><text fill="#000000" font-family="sans-serif" font-size="14" lengthAdjust="spacing" textLength="69" x="300.8306" y="186.712">Miner Mk.2</text><line style="stroke:#181818;stroke-width:1.0;" x1="244.9743" x2="441.1751" y1="189.7882" y2="189.7882"/><text fill="#000000" font-family="sans-serif" font-size="14" lengthAdjust="spacing" textLength="81" x="296.8306" y="208.3214">Nombre : 0.2</text><line style="stroke:#181818;stroke-width:1.0;" x1="220.7335" x2="465.416" y1="215.3976" y2="215.3976"/><text fill="#000000" font-family="sans-serif" font-size="14" lengthAdjust="spacing" textLength="114" x="280.3306" y="233.9308">Puissance : 2.4 W</text><line style="stroke:#181818;stroke-width:1.0;" x1="220.6501" x2="465.4993" y1="241.0069" y2="241.0069"/><text fill="#000000" font-family="sans-serif" font-size="14" lengthAdjust="spacing" textLength="184" x="243.3306" y="259.5401">Dico Index : ('Copper Ore', 0)</text></g><!--entity 14--><g id="elem_14"><polygon fill="#98FB98" points="16,214.5,26,204.5,137,204.5,137,242.1094,127,252.1094,16,252.1094,16,214.5" style="stroke:#181818;stroke-width:0.5;"/><line style="stroke:#181818;stroke-width:0.5;" x1="127" x2="137" y1="214.5" y2="204.5"/><line style="stroke:#181818;stroke-width:0.5;" x1="16" x2="127" y1="214.5" y2="214.5"/><line style="stroke:#181818;stroke-width:0.5;" x1="127" x2="127" y1="214.5" y2="252.1094"/><text fill="#000000" font-family="sans-serif" font-size="14" lengthAdjust="spacing" textLength="81" x="31" y="239.0332">Copper Mine</text></g><!--entity 0--><g id="elem_0"><rect fill="#00FFFF" height="23.6094" rx="2.5" ry="2.5" style="stroke:#181818;stroke-width:0.5;" width="79" x="1019" y="112.5"/><text fill="#000000" font-family="sans-serif" font-size="14" lengthAdjust="spacing" textLength="59" x="1029" y="130.0332">Iron Ingot</text></g><!--link 9 to 8--><g id="link_9_8"><path d="M613.51,87.57 C640.68,92.28 673.9883,98.0542 711.3883,104.5442 " fill="none" id="9-to-8" style="stroke:#181818;stroke-width:1.0;"/><polygon fill="#181818" points="717.3,105.57,709.1164,100.0901,712.3736,104.7151,707.7486,107.9723,717.3,105.57" style="stroke:#181818;stroke-width:1.0;"/><text fill="#000000" font-family="sans-serif" font-size="13" lengthAdjust="spacing" textLength="25" x="656" y="91.9951">24.0</text></g><!--link 12 to 8--><g id="link_12_8"><path d="M625.01,155.62 C634.91,155.98 645.3,156.31 655,156.5 C667,156.74 670.07,157.81 682,156.5 C695.15,155.06 702.9625,154.0144 716.4725,151.4844 " fill="none" id="12-to-8" style="stroke:#181818;stroke-width:1.0;"/><polygon fill="#181818" points="722.37,150.38,712.7875,148.105,717.4554,151.3003,714.2601,155.9683,722.37,150.38" style="stroke:#181818;stroke-width:1.0;"/><text fill="#000000" font-family="sans-serif" font-size="13" lengthAdjust="spacing" textLength="25" x="656" y="152.9951">24.0</text></g><!--link 10 to 9--><g id="link_10_9"><path d="M454.46,74.68 C485.98,76.44 512.0794,77.8939 535.4294,79.2039 " fill="none" id="10-to-9" style="stroke:#181818;stroke-width:1.0;"/><polygon fill="#181818" points="541.42,79.54,532.6582,75.0421,536.4279,79.2599,532.2101,83.0296,541.42,79.54" style="stroke:#181818;stroke-width:1.0;"/></g><!--link 13 to 12--><g id="link_13_12"><path d="M449.03,194.62 C481.28,184.22 508.9796,175.2814 533.5096,167.3714 " fill="none" id="13-to-12" style="stroke:#181818;stroke-width:1.0;"/><polygon fill="#181818" points="539.22,165.53,529.4267,164.4851,534.4613,167.0645,531.8819,172.0991,539.22,165.53" style="stroke:#181818;stroke-width:1.0;"/></g><!--link 11 to 10--><g id="link_11_10"><path d="M125.71,68.5 C155.13,68.5 188.04,68.5 224.74,68.5 " fill="none" id="11-to-10" style="stroke:#181818;stroke-width:1.0;"/><polygon fill="#181818" points="230.74,68.5,221.74,64.5,225.74,68.5,221.74,72.5,230.74,68.5" style="stroke:#181818;stroke-width:1.0;"/><text fill="#000000" font-family="sans-serif" font-size="13" lengthAdjust="spacing" textLength="18" x="168" y="64.9951">0.2</text></g><!--link 14 to 13--><g id="link_14_13"><path d="M137.19,228.5 C160.88,228.5 183.07,228.5 210.85,228.5 " fill="none" id="14-to-13" style="stroke:#181818;stroke-width:1.0;"/><polygon fill="#181818" points="216.85,228.5,207.85,224.5,211.85,228.5,207.85,232.5,216.85,228.5" style="stroke:#181818;stroke-width:1.0;"/><text fill="#000000" font-family="sans-serif" font-size="13" lengthAdjust="spacing" textLength="18" x="168" y="224.9951">0.2</text></g><!--link 8 to 0--><g id="link_8_0"><path d="M943,124.5 C970.4,124.5 991.79,124.5 1012.91,124.5 " fill="none" id="8-to-0" style="stroke:#181818;stroke-width:1.0;"/><polygon fill="#181818" points="1018.91,124.5,1009.91,120.5,1013.91,124.5,1009.91,128.5,1018.91,124.5" style="stroke:#181818;stroke-width:1.0;"/><text fill="#000000" font-family="sans-serif" font-size="13" lengthAdjust="spacing" textLength="14" x="974" y="120.9951">60</text></g><rect fill="#DDDDDD" height="45.2188" id="_legend" rx="7.5" ry="7.5" style="stroke:#000000;stroke-width:1.0;" width="171" x="459.5" y="307.6007"/><text fill="#000000" font-family="sans-serif" font-size="14" lengthAdjust="spacing" textLength="161" x="464.5" y="327.1339">Number of machines : 1.6</text><text fill="#000000" font-family="sans-serif" font-size="14" lengthAdjust="spacing" textLength="153" x="464.5" y="344.7433">Power required : 24.0 W</text><!--SRC=[hLAnRi8m4Dtz5HOBhTIaTeWGgH13gIenGDaw6-Sm4OcTseuAglZtNameeA9EdQpttldUkxFTjj2riAAY7dPUb8NIL8BsO4a9Qq-zeRPG6q_pmeBqXT5axFo-X0cHmkRqwrd8hRAcqVdKbCPIkHVwG1e7KZZuBHihj883qIQ_eTQY16K1i8FpMAfkr7Jw-B6BSR8QKU5exxKjj7iIHOGkJBMoG9yeZvD0B9l2EQ5buB8ueU-1VYcaeJETmmxvk_xC6erG6Tz_eFo-Tnmq2-s3zcQX8taIsAcfQx17_XI7io3D2utAVDib-8d4RaHAulIFHDWTyp3C4tR7-JbGQtBXFFW_v_DaLzxfvTX7zx0FTiuK5jWZMHHDHgr36ZF2aol446M43_3W2U6yFLcNaASj6dHeXA1LXWn_fGATaqLJhT3Rh6abv0OJkF3EGx8qdyXR-6Zmm-QT5mw7buvNlm40]--></g></svg>