<svg xmlns="http://www.w3.org/2000/svg" xmlns:xlink="http://www.w3.org/1999/xlink" contentStyleType="text/css" height="294px" preserveAspectRatio="none" style="width:1125px;height:294px;background:#474A55;" version="1.1" viewBox="0 0 1125 294" width="1125px" zoomAndPan="magnify"><defs/><g><rect fill="#474A55" height="294" style="stroke:none;stroke-width:1.0;" width="1125" x="0" y="0"/><g id="elem_8"><ellipse cx="845.112" cy="85.2399" fill="#ECA54E" rx="86.112" ry="38.7399" style="stroke:#ECA54E;stroke-width:0.5;"/><text fill="#FFFFFF" font-family="sans-serif" font-size="20" lengthAdjust="spacing" textLength="105" x="789.612" y="80.2927">1.2 Foundry</text><text fill="#FFFFFF" font-family="sans-serif" font-size="20" lengthAdjust="spacing" textLength="78" x="803.112" y="105.4489">(19.2 W)</text></g><!--entity 9--><g id="elem_9"><rect fill="#5BB0C5" height="31.1563" rx="2.5" ry="2.5" style="stroke:#5BB0C5;stroke-width:0.5;" width="94" x="548.5" y="31.5"/><text fill="#FFFFFF" font-family="sans-serif" font-size="20" lengthAdjust="spacing" textLength="74" x="558.5" y="55.2617">Iron Ore</text></g><!--entity 12--><g id="elem_12"><rect fill="#5BB0C5" height="31.1563" rx="2.5" ry="2.5" style="stroke:#5BB0C5;stroke-width:0.5;" width="125" x="533" y="108.5"/><text fill="#FFFFFF" font-family="sans-serif" font-size="20" lengthAdjust="spacing" textLength="105" x="543" y="132.2617">Copper Ore</text></g><g id="elem_10"><ellipse cx="365.4828" cy="44.9068" fill="#ECA54E" rx="106.4828" ry="38.9068" style="stroke:#ECA54E;stroke-width:0.5;"/><text fill="#FFFFFF" font-family="sans-serif" font-size="20" lengthAdjust="spacing" textLength="133" x="295.9828" y="39.9595">0.2 Miner Mk.2</text><text fill="#FFFFFF" font-family="sans-serif" font-size="20" lengthAdjust="spacing" textLength="67" x="328.9828" y="65.1157">(2.4 W)</text></g><!--entity 11--><g id="elem_11"><polygon fill="#6A9058" points="31.5,27.5,41.5,17.5,153.5,17.5,153.5,62.6563,143.5,72.6563,31.5,72.6563,31.5,27.5" style="stroke:#6A9058;stroke-width:0.5;"/><line style="stroke:#6A9058;stroke-width:0.5;" x1="143.5" x2="153.5" y1="27.5" y2="17.5"/><line style="stroke:#6A9058;stroke-width:0.5;" x1="31.5" x2="143.5" y1="27.5" y2="27.5"/><line style="stroke:#6A9058;stroke-width:0.5;" x1="143.5" x2="143.5" y1="27.5" y2="72.6563"/><text fill="#FFFFFF" font-family="sans-serif" font-size="20" lengthAdjust="spacing" textLength="82" x="46.5" y="58.2617">Iron Mine</text></g><g id="elem_13"><ellipse cx="365.4828" cy="157.9068" fill="#ECA54E" rx="106.4828" ry="38.9068" style="stroke:#ECA54E;stroke-width:0.5;"/><text fill="#FFFFFF" font-family="sans-serif" font-size="20" lengthAdjust="spacing" textLength="133" x="295.9828" y="152.9595">0.2 Miner Mk.2</text><text fill="#FFFFFF" font-family="sans-serif" font-size="20" lengthAdjust="spacing" textLength="67" x="328.9828" y="178.1157">(2.4 W)</text></g><!--entity 14--><g id="elem_14"><polygon fill="#6A9058" points="16,140.5,26,130.5,169,130.5,169,175.6563,159,185.6563,16,185.6563,16,140.5" style="stroke:#6A9058;stroke-width:0.5;"/><line style="stroke:#6A9058;stroke-width:0.5;" x1="159" x2="169" y1="140.5" y2="130.5"/><line style="stroke:#6A9058;stroke-width:0.5;" x1="16" x2="159" y1="140.5" y2="140.5"/><line style="stroke:#6A9058;stroke-width:0.5;" x1="159" x2="159" y1="140.5" y2="185.6563"/><text fill="#FFFFFF" font-family="sans-serif" font-size="20" lengthAdjust="spacing" textLength="113" x="31" y="171.2617">Copper Mine</text></g><!--entity 0--><g id="elem_0"><rect fill="#5BB0C5" height="31.1563" rx="2.5" ry="2.5" style="stroke:#5BB0C5;stroke-width:0.5;" width="104" x="1015" y="69.5"/><text fill="#FFFFFF" font-family="sans-serif" font-size="20" lengthAdjust="spacing" textLength="84" x="1025" y="93.2617">Iron Ingot</text></g><!--link 9 to 8--><g id="link_9_8"><path d="M642.76,54.1 C676.62,59.3 717.4994,65.58 757.4494,71.71 " fill="none" id="9-to-8" style="stroke:#FFFFFF;stroke-width:1.0;"/><polygon fill="#FFFFFF" points="763.38,72.62,755.0908,67.3013,758.4378,71.8617,753.8774,75.2087,763.38,72.62" style="stroke:#FFFFFF;stroke-width:1.0;"/><text fill="#FFFFFF" font-family="sans-serif" font-size="20" lengthAdjust="spacing" textLength="39" x="689" y="56.7617">24.0</text></g><!--link 12 to 8--><g id="link_12_8"><path d="M658.32,114.26 C690.1,109.25 723.3029,104.0126 757.4329,98.6426 " fill="none" id="12-to-8" style="stroke:#FFFFFF;stroke-width:1.0;"/><polygon fill="#FFFFFF" points="763.36,97.71,753.8477,95.1575,758.4208,98.4871,755.0911,103.0602,763.36,97.71" style="stroke:#FFFFFF;stroke-width:1.0;"/><text fill="#FFFFFF" font-family="sans-serif" font-size="20" lengthAdjust="spacing" textLength="39" x="689" y="98.7617">24.0</text></g><!--link 10 to 9--><g id="link_10_9"><path d="M472.16,45.93 C498.95,46.16 520.3602,46.3456 542.4202,46.5456 " fill="none" id="10-to-9" style="stroke:#FFFFFF;stroke-width:1.0;"/><polygon fill="#FFFFFF" points="548.42,46.6,539.4566,42.5186,543.4202,46.5547,539.3841,50.5182,548.42,46.6" style="stroke:#FFFFFF;stroke-width:1.0;"/></g><!--link 13 to 12--><g id="link_13_12"><path d="M464.52,143.38 C487.69,139.93 505.8257,137.2256 526.8657,134.0856 " fill="none" id="13-to-12" style="stroke:#FFFFFF;stroke-width:1.0;"/><polygon fill="#FFFFFF" points="532.8,133.2,523.3082,130.5723,527.8548,133.938,524.489,138.4846,532.8,133.2" style="stroke:#FFFFFF;stroke-width:1.0;"/></g><!--link 11 to 10--><g id="link_11_10"><path d="M153.64,45 C184.6,45 217.24,45 252.96,45 " fill="none" id="11-to-10" style="stroke:#FFFFFF;stroke-width:1.0;"/><polygon fill="#FFFFFF" points="258.96,45,249.96,41,253.96,45,249.96,49,258.96,45" style="stroke:#FFFFFF;stroke-width:1.0;"/><text fill="#FFFFFF" font-family="sans-serif" font-size="20" lengthAdjust="spacing" textLength="28" x="200" y="39.7617">0.2</text></g><!--link 14 to 13--><g id="link_14_13"><path d="M169.35,158 C197.06,158 222.94,158 252.79,158 " fill="none" id="14-to-13" style="stroke:#FFFFFF;stroke-width:1.0;"/><polygon fill="#FFFFFF" points="258.79,158,249.79,154,253.79,158,249.79,162,258.79,158" style="stroke:#FFFFFF;stroke-width:1.0;"/><text fill="#FFFFFF" font-family="sans-serif" font-size="20" lengthAdjust="spacing" textLength="28" x="200" y="152.7617">0.2</text></g><!--link 8 to 0--><g id="link_8_0"><path d="M931.06,85 C959.35,85 983.97,85 1008.88,85 " fill="none" id="8-to-0" style="stroke:#FFFFFF;stroke-width:1.0;"/><polygon fill="#FFFFFF" points="1014.88,85,1005.88,81,1009.88,85,1005.88,89,1014.88,85" style="stroke:#FFFFFF;stroke-width:1.0;"/><text fill="#FFFFFF" font-family="sans-serif" font-size="20" lengthAdjust="spacing" textLength="22" x="962" y="79.7617">60</text></g><rect fill="none" height="60.3125" id="_legend" rx="7.5" ry="7.5" style="stroke:#000000;stroke-width:1.0;" width="280" x="415.5" y="213.8135"/><text fill="#FFFFFF" font-family="sans-serif" font-size="20" lengthAdjust="spacing" textLength="270" x="420.5" y="239.5752">Total Number of Machines: 1.6</text><text fill="#FFFFFF" font-family="sans-serif" font-size="20" lengthAdjust="spacing" textLength="261" x="420.5" y="264.7315">Total Power required: 24.0 W</text><!--SRC=[ZKwnReCm4Dtz5LUcTC3n6HG1GvTAbJBGTgYKCNAD0rQ9JGseukzxGAemThfxxzrxxnwiq-rO6U1yNmVLDLR7kb5XC67lky6UBqeFFapdVfXQm-ruRTdO6wrw0nce7YBa4bxywAemiHtcX4wF4TCgL90l1yVW7Rm5SoDHBkopxpeJLlul4CKY2SeehIEr_EAIxIHFbqpdwK_4U-Xyj74d_t2ds_BLltmbxgb7L_iXOdaSFsK5o9GBXd8B186SOK839KESfoY0YXccCqXMaD5E_46mrjJ6LUp33wg5r_7wIUN-0gNI3RtG5u3yS5FV_G-9mNoFDfXghOGJ8_iQyWi0]--></g></svg>