<svg xmlns="http://www.w3.org/2000/svg" xmlns:xlink="http://www.w3.org/1999/xlink" contentStyleType="text/css" height="642px" preserveAspectRatio="none" style="width:2969px;height:642px;background:#474A55;" version="1.1" viewBox="0 0 2969 642" width="2969px" zoomAndPan="magnify"><defs/><g><rect fill="#474A55" height="642" style="stroke:none;stroke-width:1.0;" width="2969" x="0" y="0"/><g id="elem_1"><ellipse cx="2664.8518" cy="324.8747" fill="#ECA54E" rx="118.8518" ry="38.9802" style="stroke:#ECA54E;stroke-width:0.5;"/><text fill="#FFFFFF" font-family="sans-serif" font-size="20" lengthAdjust="spacing" textLength="150" x="2586.8518" y="319.9275">0.4 Manufacturer</text><text fill="#FFFFFF" font-family="sans-serif" font-size="20" lengthAdjust="spacing" textLength="78" x="2622.8518" y="345.0837">(22.0 W)</text></g><!--entity 2--><g id="elem_2"><rect fill="#5BB0C5" height="31.1563" rx="2.5" ry="2.5" style="stroke:#5BB0C5;stroke-width:0.5;" width="134" x="2287.5" y="274.3945"/><text fill="#FFFFFF" font-family="sans-serif" font-size="20" lengthAdjust="spacing" textLength="114" x="2297.5" y="298.1563">Circuit Board</text></g><!--entity 19--><g id="elem_19"><rect fill="#5BB0C5" height="31.1563" rx="2.5" ry="2.5" style="stroke:#5BB0C5;stroke-width:0.5;" width="71" x="2319" y="346.3945"/><text fill="#FFFFFF" font-family="sans-serif" font-size="20" lengthAdjust="spacing" textLength="51" x="2329" y="370.1563">Cable</text></g><!--entity 36--><g id="elem_36"><rect fill="#5BB0C5" height="31.1563" rx="2.5" ry="2.5" style="stroke:#5BB0C5;stroke-width:0.5;" width="78" x="2315.5" y="416.3945"/><text fill="#FFFFFF" font-family="sans-serif" font-size="20" lengthAdjust="spacing" textLength="58" x="2325.5" y="440.1563">Plastic</text></g><!--entity 42--><g id="elem_42"><rect fill="#5BB0C5" height="31.1563" rx="2.5" ry="2.5" style="stroke:#5BB0C5;stroke-width:0.5;" width="76" x="1840" y="116.3945"/><text fill="#FFFFFF" font-family="sans-serif" font-size="20" lengthAdjust="spacing" textLength="56" x="1850" y="140.1563">Screw</text></g><g id="elem_3"><ellipse cx="2054.6174" cy="279.7711" fill="#ECA54E" rx="102.1174" ry="38.8766" style="stroke:#ECA54E;stroke-width:0.5;"/><text fill="#FFFFFF" font-family="sans-serif" font-size="20" lengthAdjust="spacing" textLength="127" x="1988.1174" y="274.8239">0.8 Assembler</text><text fill="#FFFFFF" font-family="sans-serif" font-size="20" lengthAdjust="spacing" textLength="78" x="2012.6174" y="299.9801">(12.0 W)</text></g><!--entity 4--><g id="elem_4"><rect fill="#5BB0C5" height="31.1563" rx="2.5" ry="2.5" style="stroke:#5BB0C5;stroke-width:0.5;" width="142" x="1668" y="264.3945"/><text fill="#FFFFFF" font-family="sans-serif" font-size="20" lengthAdjust="spacing" textLength="122" x="1678" y="288.1563">Copper Sheet</text></g><!--entity 14--><g id="elem_14"><rect fill="#5BB0C5" height="31.1563" rx="2.5" ry="2.5" style="stroke:#5BB0C5;stroke-width:0.5;" width="66" x="1706" y="163.3945"/><text fill="#FFFFFF" font-family="sans-serif" font-size="20" lengthAdjust="spacing" textLength="46" x="1716" y="187.1563">Silica</text></g><g id="elem_5"><ellipse cx="1484.6655" cy="279.8155" fill="#ECA54E" rx="108.6655" ry="38.9209" style="stroke:#ECA54E;stroke-width:0.5;"/><text fill="#FFFFFF" font-family="sans-serif" font-size="20" lengthAdjust="spacing" textLength="136" x="1413.6655" y="274.8682">2.2 Constructor</text><text fill="#FFFFFF" font-family="sans-serif" font-size="20" lengthAdjust="spacing" textLength="67" x="1448.1655" y="300.0244">(8.8 W)</text></g><!--entity 6--><g id="elem_6"><rect fill="#5BB0C5" height="31.1563" rx="2.5" ry="2.5" style="stroke:#5BB0C5;stroke-width:0.5;" width="135" x="1119" y="264.3945"/><text fill="#FFFFFF" font-family="sans-serif" font-size="20" lengthAdjust="spacing" textLength="115" x="1129" y="288.1563">Copper Ingot</text></g><g id="elem_15"><ellipse cx="1484.669" cy="166.8629" fill="#ECA54E" rx="116.669" ry="38.9684" style="stroke:#ECA54E;stroke-width:0.5;"/><text fill="#FFFFFF" font-family="sans-serif" font-size="20" lengthAdjust="spacing" textLength="147" x="1408.169" y="161.9156">0.59 Constructor</text><text fill="#FFFFFF" font-family="sans-serif" font-size="20" lengthAdjust="spacing" textLength="78" x="1442.669" y="187.0719">(2.35 W)</text></g><!--entity 16--><g id="elem_16"><rect fill="#5BB0C5" height="31.1563" rx="2.5" ry="2.5" style="stroke:#5BB0C5;stroke-width:0.5;" width="125" x="1124" y="151.3945"/><text fill="#FFFFFF" font-family="sans-serif" font-size="20" lengthAdjust="spacing" textLength="105" x="1134" y="175.1563">Raw Quartz</text></g><g id="elem_17"><ellipse cx="936.4862" cy="166.8506" fill="#ECA54E" rx="114.4862" ry="38.9561" style="stroke:#ECA54E;stroke-width:0.5;"/><text fill="#FFFFFF" font-family="sans-serif" font-size="20" lengthAdjust="spacing" textLength="144" x="861.4862" y="161.9034">0.11 Miner Mk.2</text><text fill="#FFFFFF" font-family="sans-serif" font-size="20" lengthAdjust="spacing" textLength="78" x="894.4862" y="187.0596">(1.32 W)</text></g><!--entity 18--><g id="elem_18"><polygon fill="#6A9058" points="574,149.3945,584,139.3945,721,139.3945,721,184.5508,711,194.5508,574,194.5508,574,149.3945" style="stroke:#6A9058;stroke-width:0.5;"/><line style="stroke:#6A9058;stroke-width:0.5;" x1="711" x2="721" y1="149.3945" y2="139.3945"/><line style="stroke:#6A9058;stroke-width:0.5;" x1="574" x2="711" y1="149.3945" y2="149.3945"/><line style="stroke:#6A9058;stroke-width:0.5;" x1="711" x2="711" y1="149.3945" y2="194.5508"/><text fill="#FFFFFF" font-family="sans-serif" font-size="20" lengthAdjust="spacing" textLength="107" x="589" y="180.1563">Quartz Mine</text></g><g id="elem_20"><ellipse cx="2054.6655" cy="392.8155" fill="#ECA54E" rx="108.6655" ry="38.9209" style="stroke:#ECA54E;stroke-width:0.5;"/><text fill="#FFFFFF" font-family="sans-serif" font-size="20" lengthAdjust="spacing" textLength="136" x="1983.6655" y="387.8682">0.3 Constructor</text><text fill="#FFFFFF" font-family="sans-serif" font-size="20" lengthAdjust="spacing" textLength="67" x="2018.1655" y="413.0244">(1.2 W)</text></g><!--entity 21--><g id="elem_21"><rect fill="#5BB0C5" height="31.1563" rx="2.5" ry="2.5" style="stroke:#5BB0C5;stroke-width:0.5;" width="61" x="1708.5" y="377.3945"/><text fill="#FFFFFF" font-family="sans-serif" font-size="20" lengthAdjust="spacing" textLength="41" x="1718.5" y="401.1563">Wire</text></g><g id="elem_22"><ellipse cx="1484.6174" cy="392.7711" fill="#ECA54E" rx="102.1174" ry="38.8766" style="stroke:#ECA54E;stroke-width:0.5;"/><text fill="#FFFFFF" font-family="sans-serif" font-size="20" lengthAdjust="spacing" textLength="127" x="1418.1174" y="387.8239">0.2 Assembler</text><text fill="#FFFFFF" font-family="sans-serif" font-size="20" lengthAdjust="spacing" textLength="67" x="1448.1174" y="412.9801">(3.0 W)</text></g><!--entity 23--><g id="elem_23"><rect fill="#5BB0C5" height="31.1563" rx="2.5" ry="2.5" style="stroke:#5BB0C5;stroke-width:0.5;" width="135" x="1119" y="330.3945"/><text fill="#FFFFFF" font-family="sans-serif" font-size="20" lengthAdjust="spacing" textLength="115" x="1129" y="354.1563">Copper Ingot</text></g><!--entity 31--><g id="elem_31"><rect fill="#5BB0C5" height="31.1563" rx="2.5" ry="2.5" style="stroke:#5BB0C5;stroke-width:0.5;" width="149" x="1112" y="398.3945"/><text fill="#FFFFFF" font-family="sans-serif" font-size="20" lengthAdjust="spacing" textLength="129" x="1122" y="422.1563">Caterium Ingot</text></g><g id="elem_24"><ellipse cx="936.6145" cy="290.7086" fill="#ECA54E" rx="94.1145" ry="38.814" style="stroke:#ECA54E;stroke-width:0.5;"/><text fill="#FFFFFF" font-family="sans-serif" font-size="20" lengthAdjust="spacing" textLength="116" x="875.6145" y="285.7613">0.46 Foundry</text><text fill="#FFFFFF" font-family="sans-serif" font-size="20" lengthAdjust="spacing" textLength="78" x="894.6145" y="310.9176">(7.42 W)</text></g><!--entity 25--><g id="elem_25"><rect fill="#5BB0C5" height="31.1563" rx="2.5" ry="2.5" style="stroke:#5BB0C5;stroke-width:0.5;" width="125" x="585" y="229.3945"/><text fill="#FFFFFF" font-family="sans-serif" font-size="20" lengthAdjust="spacing" textLength="105" x="595" y="253.1563">Copper Ore</text></g><!--entity 28--><g id="elem_28"><rect fill="#5BB0C5" height="31.1563" rx="2.5" ry="2.5" style="stroke:#5BB0C5;stroke-width:0.5;" width="94" x="600.5" y="295.3945"/><text fill="#FFFFFF" font-family="sans-serif" font-size="20" lengthAdjust="spacing" textLength="74" x="610.5" y="319.1563">Iron Ore</text></g><g id="elem_26"><ellipse cx="398.4862" cy="64.8506" fill="#ECA54E" rx="114.4862" ry="38.9561" style="stroke:#ECA54E;stroke-width:0.5;"/><text fill="#FFFFFF" font-family="sans-serif" font-size="20" lengthAdjust="spacing" textLength="144" x="323.4862" y="59.9034">0.24 Miner Mk.2</text><text fill="#FFFFFF" font-family="sans-serif" font-size="20" lengthAdjust="spacing" textLength="78" x="356.4862" y="85.0596">(2.84 W)</text></g><!--entity 27--><g id="elem_27"><polygon fill="#6A9058" points="23,47.3945,33,37.3945,176,37.3945,176,82.5508,166,92.5508,23,92.5508,23,47.3945" style="stroke:#6A9058;stroke-width:0.5;"/><line style="stroke:#6A9058;stroke-width:0.5;" x1="166" x2="176" y1="47.3945" y2="37.3945"/><line style="stroke:#6A9058;stroke-width:0.5;" x1="23" x2="166" y1="47.3945" y2="47.3945"/><line style="stroke:#6A9058;stroke-width:0.5;" x1="166" x2="166" y1="47.3945" y2="92.5508"/><text fill="#FFFFFF" font-family="sans-serif" font-size="20" lengthAdjust="spacing" textLength="113" x="38" y="78.1563">Copper Mine</text></g><g id="elem_29"><ellipse cx="398.4862" cy="218.8506" fill="#ECA54E" rx="114.4862" ry="38.9561" style="stroke:#ECA54E;stroke-width:0.5;"/><text fill="#FFFFFF" font-family="sans-serif" font-size="20" lengthAdjust="spacing" textLength="144" x="323.4862" y="213.9034">0.14 Miner Mk.2</text><text fill="#FFFFFF" font-family="sans-serif" font-size="20" lengthAdjust="spacing" textLength="78" x="356.4862" y="239.0596">(1.68 W)</text></g><!--entity 30--><g id="elem_30"><polygon fill="#6A9058" points="38.5,201.3945,48.5,191.3945,160.5,191.3945,160.5,236.5508,150.5,246.5508,38.5,246.5508,38.5,201.3945" style="stroke:#6A9058;stroke-width:0.5;"/><line style="stroke:#6A9058;stroke-width:0.5;" x1="150.5" x2="160.5" y1="201.3945" y2="191.3945"/><line style="stroke:#6A9058;stroke-width:0.5;" x1="38.5" x2="150.5" y1="201.3945" y2="201.3945"/><line style="stroke:#6A9058;stroke-width:0.5;" x1="150.5" x2="150.5" y1="201.3945" y2="246.5508"/><text fill="#FFFFFF" font-family="sans-serif" font-size="20" lengthAdjust="spacing" textLength="82" x="53.5" y="232.1563">Iron Mine</text></g><g id="elem_32"><ellipse cx="936.4319" cy="413.6896" fill="#ECA54E" rx="91.9319" ry="38.7951" style="stroke:#ECA54E;stroke-width:0.5;"/><text fill="#FFFFFF" font-family="sans-serif" font-size="20" lengthAdjust="spacing" textLength="113" x="876.9319" y="408.7424">0.04 Smelter</text><text fill="#FFFFFF" font-family="sans-serif" font-size="20" lengthAdjust="spacing" textLength="78" x="894.4319" y="433.8986">(0.16 W)</text></g><!--entity 33--><g id="elem_33"><rect fill="#5BB0C5" height="31.1563" rx="2.5" ry="2.5" style="stroke:#5BB0C5;stroke-width:0.5;" width="139" x="578" y="398.3945"/><text fill="#FFFFFF" font-family="sans-serif" font-size="20" lengthAdjust="spacing" textLength="119" x="588" y="422.1563">Caterium Ore</text></g><g id="elem_34"><ellipse cx="398.4862" cy="413.8506" fill="#ECA54E" rx="114.4862" ry="38.9561" style="stroke:#ECA54E;stroke-width:0.5;"/><text fill="#FFFFFF" font-family="sans-serif" font-size="20" lengthAdjust="spacing" textLength="144" x="323.4862" y="408.9034">0.02 Miner Mk.2</text><text fill="#FFFFFF" font-family="sans-serif" font-size="20" lengthAdjust="spacing" textLength="78" x="356.4862" y="434.0596">(0.18 W)</text></g><!--entity 35--><g id="elem_35"><polygon fill="#6A9058" points="16,396.3945,26,386.3945,183,386.3945,183,431.5508,173,441.5508,16,441.5508,16,396.3945" style="stroke:#6A9058;stroke-width:0.5;"/><line style="stroke:#6A9058;stroke-width:0.5;" x1="173" x2="183" y1="396.3945" y2="386.3945"/><line style="stroke:#6A9058;stroke-width:0.5;" x1="16" x2="173" y1="396.3945" y2="396.3945"/><line style="stroke:#6A9058;stroke-width:0.5;" x1="173" x2="173" y1="396.3945" y2="441.5508"/><text fill="#FFFFFF" font-family="sans-serif" font-size="20" lengthAdjust="spacing" textLength="127" x="31" y="427.1563">Caterium Mine</text></g><g id="elem_37"><ellipse cx="2054.5669" cy="505.6489" fill="#ECA54E" rx="87.5669" ry="38.7544" style="stroke:#ECA54E;stroke-width:0.5;"/><text fill="#FFFFFF" font-family="sans-serif" font-size="20" lengthAdjust="spacing" textLength="107" x="1998.0669" y="500.7017">0.9 Refinery</text><text fill="#FFFFFF" font-family="sans-serif" font-size="20" lengthAdjust="spacing" textLength="78" x="2012.5669" y="525.8579">(27.0 W)</text></g><!--entity 38--><g id="elem_38"><rect fill="#692787" height="45.1563" rx="35" ry="35" style="stroke:#692787;stroke-width:0.5;" width="181" x="2264" y="483.3945"/><text fill="#FFFFFF" font-family="sans-serif" font-size="20" lengthAdjust="spacing" textLength="161" x="2274" y="514.1563">Heavy Oil Residue</text></g><!--entity 39--><g id="elem_39"><rect fill="#5BB0C5" height="31.1563" rx="2.5" ry="2.5" style="stroke:#5BB0C5;stroke-width:0.5;" width="103" x="1687.5" y="490.3945"/><text fill="#FFFFFF" font-family="sans-serif" font-size="20" lengthAdjust="spacing" textLength="83" x="1697.5" y="514.1563">Crude Oil</text></g><g id="elem_40"><ellipse cx="1484.4898" cy="505.8935" fill="#ECA54E" rx="122.4898" ry="38.999" style="stroke:#ECA54E;stroke-width:0.5;"/><text fill="#FFFFFF" font-family="sans-serif" font-size="20" lengthAdjust="spacing" textLength="155" x="1403.9898" y="500.9463">0.23 Oil Extractor</text><text fill="#FFFFFF" font-family="sans-serif" font-size="20" lengthAdjust="spacing" textLength="67" x="1447.9898" y="526.1025">(9.0 W)</text></g><!--entity 41--><g id="elem_41"><polygon fill="#6A9058" points="1132,488.3945,1142,478.3945,1241,478.3945,1241,523.5508,1231,533.5508,1132,533.5508,1132,488.3945" style="stroke:#6A9058;stroke-width:0.5;"/><line style="stroke:#6A9058;stroke-width:0.5;" x1="1231" x2="1241" y1="488.3945" y2="478.3945"/><line style="stroke:#6A9058;stroke-width:0.5;" x1="1132" x2="1231" y1="488.3945" y2="488.3945"/><line style="stroke:#6A9058;stroke-width:0.5;" x1="1231" x2="1231" y1="488.3945" y2="533.5508"/><text fill="#FFFFFF" font-family="sans-serif" font-size="20" lengthAdjust="spacing" textLength="69" x="1147" y="519.1563">Oil Pool</text></g><g id="elem_43"><ellipse cx="1484.669" cy="53.8629" fill="#ECA54E" rx="116.669" ry="38.9684" style="stroke:#ECA54E;stroke-width:0.5;"/><text fill="#FFFFFF" font-family="sans-serif" font-size="20" lengthAdjust="spacing" textLength="147" x="1408.169" y="48.9156">1.04 Constructor</text><text fill="#FFFFFF" font-family="sans-serif" font-size="20" lengthAdjust="spacing" textLength="78" x="1442.669" y="74.0719">(4.16 W)</text></g><!--entity 44--><g id="elem_44"><rect fill="#5BB0C5" height="31.1563" rx="2.5" ry="2.5" style="stroke:#5BB0C5;stroke-width:0.5;" width="104" x="1134.5" y="38.3945"/><text fill="#FFFFFF" font-family="sans-serif" font-size="20" lengthAdjust="spacing" textLength="84" x="1144.5" y="62.1563">Iron Ingot</text></g><g id="elem_45"><ellipse cx="936.6145" cy="53.7086" fill="#ECA54E" rx="94.1145" ry="38.814" style="stroke:#ECA54E;stroke-width:0.5;"/><text fill="#FFFFFF" font-family="sans-serif" font-size="20" lengthAdjust="spacing" textLength="116" x="875.6145" y="48.7613">0.26 Foundry</text><text fill="#FFFFFF" font-family="sans-serif" font-size="20" lengthAdjust="spacing" textLength="78" x="894.6145" y="73.9176">(4.16 W)</text></g><!--entity 46--><g id="elem_46"><rect fill="#5BB0C5" height="31.1563" rx="2.5" ry="2.5" style="stroke:#5BB0C5;stroke-width:0.5;" width="94" x="600.5" y="73.3945"/><text fill="#FFFFFF" font-family="sans-serif" font-size="20" lengthAdjust="spacing" textLength="74" x="610.5" y="97.1563">Iron Ore</text></g><!--entity 49--><g id="elem_49"><rect fill="#5BB0C5" height="31.1563" rx="2.5" ry="2.5" style="stroke:#5BB0C5;stroke-width:0.5;" width="125" x="585" y="7.3945"/><text fill="#FFFFFF" font-family="sans-serif" font-size="20" lengthAdjust="spacing" textLength="105" x="595" y="31.1563">Copper Ore</text></g><!--entity 0--><g id="elem_0"><rect fill="#5BB0C5" height="31.1563" rx="2.5" ry="2.5" style="stroke:#5BB0C5;stroke-width:0.5;" width="106" x="2857" y="309.3945"/><text fill="#FFFFFF" font-family="sans-serif" font-size="20" lengthAdjust="spacing" textLength="86" x="2867" y="333.1563">Computer</text></g><!--link 2 to 1--><g id="link_2_1"><path d="M2421.68,297.4045 C2459.75,301.7245 2502.6082,306.5887 2546.4482,311.5587 " fill="none" id="2-to-1" style="stroke:#FFFFFF;stroke-width:1.0;"/><polygon fill="#FFFFFF" points="2552.41,312.2345,2543.9179,307.2462,2547.4418,311.6713,2543.0167,315.1953,2552.41,312.2345" style="stroke:#FFFFFF;stroke-width:1.0;"/><text fill="#FFFFFF" font-family="sans-serif" font-size="20" lengthAdjust="spacing" textLength="39" x="2476" y="299.6563">10.0</text></g><!--link 19 to 1--><g id="link_19_1"><path d="M2390.26,357.8145 C2422.77,353.9845 2472.68,348.0945 2516,342.8945 C2528.08,341.4445 2534.7539,340.6489 2547.3339,339.1189 " fill="none" id="19-to-1" style="stroke:#FFFFFF;stroke-width:1.0;"/><polygon fill="#FFFFFF" points="2553.29,338.3945,2543.8729,335.5104,2548.3266,338.9982,2544.8388,343.4519,2553.29,338.3945" style="stroke:#FFFFFF;stroke-width:1.0;"/><text fill="#FFFFFF" font-family="sans-serif" font-size="20" lengthAdjust="spacing" textLength="28" x="2481.5" y="337.6563">9.0</text></g><!--link 36 to 1--><g id="link_36_1"><path d="M2393.71,421.1345 C2426.4,411.7045 2474.59,397.3045 2516,382.8945 C2540.24,374.4545 2560.8181,366.695 2584.3081,357.435 " fill="none" id="36-to-1" style="stroke:#FFFFFF;stroke-width:1.0;"/><polygon fill="#FFFFFF" points="2589.89,355.2345,2580.0501,354.8139,2585.2384,357.0682,2582.9841,362.2565,2589.89,355.2345" style="stroke:#FFFFFF;stroke-width:1.0;"/><text fill="#FFFFFF" font-family="sans-serif" font-size="20" lengthAdjust="spacing" textLength="39" x="2476" y="377.6563">18.0</text></g><!--link 42 to 1--><g id="link_42_1"><path d="M1916.08,138.0245 C2014.79,154.7345 2291.73,204.2945 2516,269.8945 C2540.07,276.9345 2560.2226,283.8662 2583.4026,292.5662 " fill="none" id="42-to-1" style="stroke:#FFFFFF;stroke-width:1.0;"/><polygon fill="#FFFFFF" points="2589.02,294.6745,2581.9995,287.7671,2584.3389,292.9176,2579.1884,295.2569,2589.02,294.6745" style="stroke:#FFFFFF;stroke-width:1.0;"/><text fill="#FFFFFF" font-family="sans-serif" font-size="20" lengthAdjust="spacing" textLength="39" x="2194" y="185.6563">52.0</text></g><!--link 3 to 2--><g id="link_3_2"><path d="M2156.39,283.2845 C2199.62,284.7345 2242.8934,286.1834 2281.3634,287.4734 " fill="none" id="3-to-2" style="stroke:#FFFFFF;stroke-width:1.0;"/><polygon fill="#FFFFFF" points="2287.36,287.6745,2278.4991,283.3752,2282.3628,287.507,2278.231,291.3707,2287.36,287.6745" style="stroke:#FFFFFF;stroke-width:1.0;"/></g><!--link 20 to 19--><g id="link_20_19"><path d="M2158.89,382.1345 C2214.7,376.3345 2273.9923,370.1659 2312.9823,366.1059 " fill="none" id="20-to-19" style="stroke:#FFFFFF;stroke-width:1.0;"/><polygon fill="#FFFFFF" points="2318.95,365.4845,2309.5841,362.4382,2313.9769,366.0024,2310.4127,370.3951,2318.95,365.4845" style="stroke:#FFFFFF;stroke-width:1.0;"/></g><!--link 37 to 36--><g id="link_37_36"><path d="M2130.75,486.5845 C2150.96,481.4445 2172.8,475.9145 2193,470.8945 C2234.74,460.5145 2276.8366,450.3086 2309.3666,442.4786 " fill="none" id="37-to-36" style="stroke:#FFFFFF;stroke-width:1.0;"/><polygon fill="#FFFFFF" points="2315.2,441.0745,2305.5138,439.2918,2310.3388,442.2446,2307.386,447.0696,2315.2,441.0745" style="stroke:#FFFFFF;stroke-width:1.0;"/></g><!--link 43 to 42--><g id="link_43_42"><path d="M1585.05,73.7245 C1667.97,90.2445 1775.6356,111.7023 1833.6656,123.2623 " fill="none" id="43-to-42" style="stroke:#FFFFFF;stroke-width:1.0;"/><polygon fill="#FFFFFF" points="1839.55,124.4345,1831.5049,118.7533,1834.6464,123.4577,1829.942,126.5991,1839.55,124.4345" style="stroke:#FFFFFF;stroke-width:1.0;"/></g><!--link 4 to 3--><g id="link_4_3"><path d="M1810.36,279.8945 C1852.24,279.8945 1900.09,279.8945 1946.46,279.8945 " fill="none" id="4-to-3" style="stroke:#FFFFFF;stroke-width:1.0;"/><polygon fill="#FFFFFF" points="1952.46,279.8945,1943.46,275.8945,1947.46,279.8945,1943.46,283.8945,1952.46,279.8945" style="stroke:#FFFFFF;stroke-width:1.0;"/><text fill="#FFFFFF" font-family="sans-serif" font-size="20" lengthAdjust="spacing" textLength="39" x="1858.5" y="274.6563">22.0</text></g><!--link 14 to 3--><g id="link_14_3"><path d="M1772.08,189.2245 C1819.67,204.5645 1904.719,231.965 1970.319,253.095 " fill="none" id="14-to-3" style="stroke:#FFFFFF;stroke-width:1.0;"/><polygon fill="#FFFFFF" points="1976.03,254.9345,1968.6898,248.3678,1971.2708,253.4016,1966.2371,255.9826,1976.03,254.9345" style="stroke:#FFFFFF;stroke-width:1.0;"/><text fill="#FFFFFF" font-family="sans-serif" font-size="20" lengthAdjust="spacing" textLength="39" x="1858.5" y="206.6563">22.0</text></g><!--link 5 to 4--><g id="link_5_4"><path d="M1593.32,279.8945 C1618.51,279.8945 1638.72,279.8945 1661.79,279.8945 " fill="none" id="5-to-4" style="stroke:#FFFFFF;stroke-width:1.0;"/><polygon fill="#FFFFFF" points="1667.79,279.8945,1658.79,275.8945,1662.79,279.8945,1658.79,283.8945,1667.79,279.8945" style="stroke:#FFFFFF;stroke-width:1.0;"/></g><!--link 15 to 14--><g id="link_15_14"><path d="M1599.93,172.3345 C1638.68,174.1745 1672.9467,175.8001 1699.9167,177.0801 " fill="none" id="15-to-14" style="stroke:#FFFFFF;stroke-width:1.0;"/><polygon fill="#FFFFFF" points="1705.91,177.3645,1697.1097,172.9424,1700.9156,177.1275,1696.7305,180.9334,1705.91,177.3645" style="stroke:#FFFFFF;stroke-width:1.0;"/></g><!--link 6 to 5--><g id="link_6_5"><path d="M1254.3,279.8945 C1290.1,279.8945 1329.1,279.8945 1369.72,279.8945 " fill="none" id="6-to-5" style="stroke:#FFFFFF;stroke-width:1.0;"/><polygon fill="#FFFFFF" points="1375.72,279.8945,1366.72,275.8945,1370.72,279.8945,1366.72,283.8945,1375.72,279.8945" style="stroke:#FFFFFF;stroke-width:1.0;"/><text fill="#FFFFFF" font-family="sans-serif" font-size="20" lengthAdjust="spacing" textLength="39" x="1292" y="274.6563">44.0</text></g><!--link 24 to 6--><g id="link_24_6"><path d="M1030.2,286.7845 C1059.64,285.4745 1085.6058,284.3187 1112.8358,283.1187 " fill="none" id="24-to-6" style="stroke:#FFFFFF;stroke-width:1.0;"/><polygon fill="#FFFFFF" points="1118.83,282.8545,1109.6626,279.2546,1113.8348,283.0747,1110.0148,287.2469,1118.83,282.8545" style="stroke:#FFFFFF;stroke-width:1.0;"/></g><!--link 16 to 15--><g id="link_16_15"><path d="M1249.19,166.8945 C1283.5,166.8945 1321.32,166.8945 1361.77,166.8945 " fill="none" id="16-to-15" style="stroke:#FFFFFF;stroke-width:1.0;"/><polygon fill="#FFFFFF" points="1367.77,166.8945,1358.77,162.8945,1362.77,166.8945,1358.77,170.8945,1367.77,166.8945" style="stroke:#FFFFFF;stroke-width:1.0;"/><text fill="#FFFFFF" font-family="sans-serif" font-size="20" lengthAdjust="spacing" textLength="39" x="1292" y="161.6563">13.2</text></g><!--link 17 to 16--><g id="link_17_16"><path d="M1051.34,166.8945 C1076.3,166.8945 1095.81,166.8945 1117.79,166.8945 " fill="none" id="17-to-16" style="stroke:#FFFFFF;stroke-width:1.0;"/><polygon fill="#FFFFFF" points="1123.79,166.8945,1114.79,162.8945,1118.79,166.8945,1114.79,170.8945,1123.79,166.8945" style="stroke:#FFFFFF;stroke-width:1.0;"/></g><!--link 18 to 17--><g id="link_18_17"><path d="M721.29,166.8945 C751.77,166.8945 781.91,166.8945 815.75,166.8945 " fill="none" id="18-to-17" style="stroke:#FFFFFF;stroke-width:1.0;"/><polygon fill="#FFFFFF" points="821.75,166.8945,812.75,162.8945,816.75,166.8945,812.75,170.8945,821.75,166.8945" style="stroke:#FFFFFF;stroke-width:1.0;"/><text fill="#FFFFFF" font-family="sans-serif" font-size="20" lengthAdjust="spacing" textLength="39" x="752" y="161.6563">0.11</text></g><!--link 21 to 20--><g id="link_21_20"><path d="M1769.78,392.8945 C1809.97,392.8945 1877.74,392.8945 1939.98,392.8945 " fill="none" id="21-to-20" style="stroke:#FFFFFF;stroke-width:1.0;"/><polygon fill="#FFFFFF" points="1945.98,392.8945,1936.98,388.8945,1940.98,392.8945,1936.98,396.8945,1945.98,392.8945" style="stroke:#FFFFFF;stroke-width:1.0;"/><text fill="#FFFFFF" font-family="sans-serif" font-size="20" lengthAdjust="spacing" textLength="39" x="1858.5" y="387.6563">18.0</text></g><!--link 22 to 21--><g id="link_22_21"><path d="M1586.75,392.8945 C1630.51,392.8945 1672.46,392.8945 1702.38,392.8945 " fill="none" id="22-to-21" style="stroke:#FFFFFF;stroke-width:1.0;"/><polygon fill="#FFFFFF" points="1708.38,392.8945,1699.38,388.8945,1703.38,392.8945,1699.38,396.8945,1708.38,392.8945" style="stroke:#FFFFFF;stroke-width:1.0;"/></g><!--link 23 to 22--><g id="link_23_22"><path d="M1254.3,356.5045 C1294.37,362.8645 1340.0143,370.1133 1384.0843,377.1133 " fill="none" id="23-to-22" style="stroke:#FFFFFF;stroke-width:1.0;"/><polygon fill="#FFFFFF" points="1390.01,378.0545,1381.7489,372.6922,1385.0719,377.2702,1380.4939,380.5932,1390.01,378.0545" style="stroke:#FFFFFF;stroke-width:1.0;"/><text fill="#FFFFFF" font-family="sans-serif" font-size="20" lengthAdjust="spacing" textLength="28" x="1297.5" y="357.6563">2.4</text></g><!--link 31 to 22--><g id="link_31_22"><path d="M1261.28,416.2945 C1271.27,416.5445 1281.38,416.7545 1291,416.8945 C1309.22,417.1545 1313.83,418.3245 1332,416.8945 C1351.65,415.3445 1366.6573,413.5907 1386.5173,410.5907 " fill="none" id="31-to-22" style="stroke:#FFFFFF;stroke-width:1.0;"/><polygon fill="#FFFFFF" points="1392.45,409.6945,1382.9535,407.0837,1387.5061,410.4413,1384.1484,414.9939,1392.45,409.6945" style="stroke:#FFFFFF;stroke-width:1.0;"/><text fill="#FFFFFF" font-family="sans-serif" font-size="20" lengthAdjust="spacing" textLength="28" x="1297.5" y="411.6563">0.6</text></g><!--link 24 to 23--><g id="link_24_23"><path d="M1019.74,309.1345 C1051.88,316.2645 1082.4123,323.0354 1112.8923,329.7954 " fill="none" id="24-to-23" style="stroke:#FFFFFF;stroke-width:1.0;"/><polygon fill="#FFFFFF" points="1118.75,331.0945,1110.8296,325.2407,1113.8686,330.0119,1109.0974,333.0509,1118.75,331.0945" style="stroke:#FFFFFF;stroke-width:1.0;"/></g><!--link 32 to 31--><g id="link_32_31"><path d="M1028.79,413.8945 C1056.14,413.8945 1079.77,413.8945 1105.83,413.8945 " fill="none" id="32-to-31" style="stroke:#FFFFFF;stroke-width:1.0;"/><polygon fill="#FFFFFF" points="1111.83,413.8945,1102.83,409.8945,1106.83,413.8945,1102.83,417.8945,1111.83,413.8945" style="stroke:#FFFFFF;stroke-width:1.0;"/></g><!--link 25 to 24--><g id="link_25_24"><path d="M710.07,254.7645 C750.42,261.2345 797.8456,268.8351 842.5256,275.9951 " fill="none" id="25-to-24" style="stroke:#FFFFFF;stroke-width:1.0;"/><polygon fill="#FFFFFF" points="848.45,276.9445,840.1963,271.5708,843.513,276.1534,838.9305,279.4701,848.45,276.9445" style="stroke:#FFFFFF;stroke-width:1.0;"/><text fill="#FFFFFF" font-family="sans-serif" font-size="20" lengthAdjust="spacing" textLength="39" x="752" y="257.6563">23.2</text></g><!--link 28 to 24--><g id="link_28_24"><path d="M694.67,312.5345 C712.3,313.0845 732.58,313.6245 751,313.8945 C769.22,314.1645 773.84,315.3445 792,313.8945 C810.99,312.3845 825.33,310.6785 844.47,307.7285 " fill="none" id="28-to-24" style="stroke:#FFFFFF;stroke-width:1.0;"/><polygon fill="#FFFFFF" points="850.4,306.8145,840.8957,304.2322,845.4584,307.5762,842.1143,312.1388,850.4,306.8145" style="stroke:#FFFFFF;stroke-width:1.0;"/><text fill="#FFFFFF" font-family="sans-serif" font-size="20" lengthAdjust="spacing" textLength="39" x="752" y="308.6563">11.6</text></g><!--link 26 to 25--><g id="link_26_25"><path d="M442.07,101.2545 C491.39,143.3045 566.84,207.3745 574,211.8945 C584.29,218.3945 590.6034,221.8514 601.6334,226.8414 " fill="none" id="26-to-25" style="stroke:#FFFFFF;stroke-width:1.0;"/><polygon fill="#FFFFFF" points="607.1,229.3145,600.5488,221.9605,602.5445,227.2536,597.2514,229.2493,607.1,229.3145" style="stroke:#FFFFFF;stroke-width:1.0;"/></g><!--link 29 to 28--><g id="link_29_28"><path d="M476.64,247.6245 C518.96,263.3845 564.1578,280.2191 599.1178,293.2491 " fill="none" id="29-to-28" style="stroke:#FFFFFF;stroke-width:1.0;"/><polygon fill="#FFFFFF" points="604.74,295.3445,597.7037,288.4532,600.0548,293.5983,594.9097,295.9495,604.74,295.3445" style="stroke:#FFFFFF;stroke-width:1.0;"/></g><!--link 27 to 26--><g id="link_27_26"><path d="M176.21,64.8945 C208.87,64.8945 241.76,64.8945 277.76,64.8945 " fill="none" id="27-to-26" style="stroke:#FFFFFF;stroke-width:1.0;"/><polygon fill="#FFFFFF" points="283.76,64.8945,274.76,60.8945,278.76,64.8945,274.76,68.8945,283.76,64.8945" style="stroke:#FFFFFF;stroke-width:1.0;"/><text fill="#FFFFFF" font-family="sans-serif" font-size="20" lengthAdjust="spacing" textLength="39" x="214" y="59.6563">0.24</text></g><!--link 30 to 29--><g id="link_30_29"><path d="M160.6,218.8945 C195.94,218.8945 235.79,218.8945 277.72,218.8945 " fill="none" id="30-to-29" style="stroke:#FFFFFF;stroke-width:1.0;"/><polygon fill="#FFFFFF" points="283.72,218.8945,274.72,214.8945,278.72,218.8945,274.72,222.8945,283.72,218.8945" style="stroke:#FFFFFF;stroke-width:1.0;"/><text fill="#FFFFFF" font-family="sans-serif" font-size="20" lengthAdjust="spacing" textLength="39" x="214" y="213.6563">0.14</text></g><!--link 33 to 32--><g id="link_33_32"><path d="M717.24,413.8945 C755.3,413.8945 797.09,413.8945 838.25,413.8945 " fill="none" id="33-to-32" style="stroke:#FFFFFF;stroke-width:1.0;"/><polygon fill="#FFFFFF" points="844.25,413.8945,835.25,409.8945,839.25,413.8945,835.25,417.8945,844.25,413.8945" style="stroke:#FFFFFF;stroke-width:1.0;"/><text fill="#FFFFFF" font-family="sans-serif" font-size="20" lengthAdjust="spacing" textLength="28" x="757.5" y="408.6563">1.8</text></g><!--link 34 to 33--><g id="link_34_33"><path d="M513.24,413.8945 C535.27,413.8945 551.72,413.8945 571.75,413.8945 " fill="none" id="34-to-33" style="stroke:#FFFFFF;stroke-width:1.0;"/><polygon fill="#FFFFFF" points="577.75,413.8945,568.75,409.8945,572.75,413.8945,568.75,417.8945,577.75,413.8945" style="stroke:#FFFFFF;stroke-width:1.0;"/></g><!--link 35 to 34--><g id="link_35_34"><path d="M183.23,413.8945 C214.38,413.8945 244.38,413.8945 277.86,413.8945 " fill="none" id="35-to-34" style="stroke:#FFFFFF;stroke-width:1.0;"/><polygon fill="#FFFFFF" points="283.86,413.8945,274.86,409.8945,278.86,413.8945,274.86,417.8945,283.86,413.8945" style="stroke:#FFFFFF;stroke-width:1.0;"/><text fill="#FFFFFF" font-family="sans-serif" font-size="20" lengthAdjust="spacing" textLength="39" x="214" y="408.6563">0.02</text></g><!--link 37 to 38--><g id="link_37_38"><path d="M2142.09,505.8945 C2180.33,505.8945 2219.26,505.8945 2257.84,505.8945 " fill="none" id="37-to-38" style="stroke:#FFFFFF;stroke-width:1.0;"/><polygon fill="#FFFFFF" points="2263.84,505.8945,2254.84,501.8945,2258.84,505.8945,2254.84,509.8945,2263.84,505.8945" style="stroke:#FFFFFF;stroke-width:1.0;"/><text fill="#FFFFFF" font-family="sans-serif" font-size="20" lengthAdjust="spacing" textLength="28" x="2199.5" y="500.6563">9.0</text></g><!--link 39 to 37--><g id="link_39_37"><path d="M1790.72,505.8945 C1838.2,505.8945 1904.12,505.8945 1960.72,505.8945 " fill="none" id="39-to-37" style="stroke:#FFFFFF;stroke-width:1.0;"/><polygon fill="#FFFFFF" points="1966.72,505.8945,1957.72,501.8945,1961.72,505.8945,1957.72,509.8945,1966.72,505.8945" style="stroke:#FFFFFF;stroke-width:1.0;"/><text fill="#FFFFFF" font-family="sans-serif" font-size="20" lengthAdjust="spacing" textLength="39" x="1858.5" y="500.6563">27.0</text></g><!--link 40 to 39--><g id="link_40_39"><path d="M1607.31,505.8945 C1635.56,505.8945 1658.11,505.8945 1681.28,505.8945 " fill="none" id="40-to-39" style="stroke:#FFFFFF;stroke-width:1.0;"/><polygon fill="#FFFFFF" points="1687.28,505.8945,1678.28,501.8945,1682.28,505.8945,1678.28,509.8945,1687.28,505.8945" style="stroke:#FFFFFF;stroke-width:1.0;"/></g><!--link 41 to 40--><g id="link_41_40"><path d="M1241.1,505.8945 C1274.84,505.8945 1313.81,505.8945 1355.84,505.8945 " fill="none" id="41-to-40" style="stroke:#FFFFFF;stroke-width:1.0;"/><polygon fill="#FFFFFF" points="1361.84,505.8945,1352.84,501.8945,1356.84,505.8945,1352.84,509.8945,1361.84,505.8945" style="stroke:#FFFFFF;stroke-width:1.0;"/><text fill="#FFFFFF" font-family="sans-serif" font-size="20" lengthAdjust="spacing" textLength="39" x="1292" y="500.6563">0.23</text></g><!--link 44 to 43--><g id="link_44_43"><path d="M1238.72,53.8945 C1274.3,53.8945 1317.16,53.8945 1361.87,53.8945 " fill="none" id="44-to-43" style="stroke:#FFFFFF;stroke-width:1.0;"/><polygon fill="#FFFFFF" points="1367.87,53.8945,1358.87,49.8945,1362.87,53.8945,1358.87,57.8945,1367.87,53.8945" style="stroke:#FFFFFF;stroke-width:1.0;"/><text fill="#FFFFFF" font-family="sans-serif" font-size="20" lengthAdjust="spacing" textLength="39" x="1292" y="48.6563">13.0</text></g><!--link 45 to 44--><g id="link_45_44"><path d="M1030.55,53.8945 C1065.74,53.8945 1098.47,53.8945 1128.41,53.8945 " fill="none" id="45-to-44" style="stroke:#FFFFFF;stroke-width:1.0;"/><polygon fill="#FFFFFF" points="1134.41,53.8945,1125.41,49.8945,1129.41,53.8945,1125.41,57.8945,1134.41,53.8945" style="stroke:#FFFFFF;stroke-width:1.0;"/></g><!--link 46 to 45--><g id="link_46_45"><path d="M694.75,84.4645 C722.9,81.6745 759.55,77.8545 792,73.8945 C809.98,71.7045 823.2459,69.9813 841.5859,67.4613 " fill="none" id="46-to-45" style="stroke:#FFFFFF;stroke-width:1.0;"/><polygon fill="#FFFFFF" points="847.53,66.6445,838.0693,63.9069,842.5765,67.3252,839.1583,71.8324,847.53,66.6445" style="stroke:#FFFFFF;stroke-width:1.0;"/><text fill="#FFFFFF" font-family="sans-serif" font-size="20" lengthAdjust="spacing" textLength="28" x="757.5" y="68.6563">5.2</text></g><!--link 49 to 45--><g id="link_49_45"><path d="M710.07,29.5445 C749.52,33.8045 795.4248,38.7596 839.4548,43.5196 " fill="none" id="49-to-45" style="stroke:#FFFFFF;stroke-width:1.0;"/><polygon fill="#FFFFFF" points="845.42,44.1645,836.9021,39.2204,840.449,43.6271,836.0422,47.174,845.42,44.1645" style="stroke:#FFFFFF;stroke-width:1.0;"/><text fill="#FFFFFF" font-family="sans-serif" font-size="20" lengthAdjust="spacing" textLength="28" x="757.5" y="29.6563">5.2</text></g><!--link 29 to 46--><g id="link_29_46"><path d="M457.44,185.1545 C491.11,165.9345 534.54,141.8045 574,121.8945 C585.85,115.9145 593.5404,112.241 605.3604,106.911 " fill="none" id="29-to-46" style="stroke:#FFFFFF;stroke-width:1.0;"/><polygon fill="#FFFFFF" points="610.83,104.4445,600.9813,104.4977,606.272,106.4999,604.2698,111.7906,610.83,104.4445" style="stroke:#FFFFFF;stroke-width:1.0;"/></g><!--link 26 to 49--><g id="link_26_49"><path d="M501.39,47.5645 C529.7,42.7545 553.6448,38.6799 578.8848,34.3899 " fill="none" id="26-to-49" style="stroke:#FFFFFF;stroke-width:1.0;"/><polygon fill="#FFFFFF" points="584.8,33.3845,575.257,30.9492,579.8707,34.2224,576.5975,38.8361,584.8,33.3845" style="stroke:#FFFFFF;stroke-width:1.0;"/></g><!--link 1 to 0--><g id="link_1_0"><path d="M2784.3,324.8945 C2809.76,324.8945 2829.42,324.8945 2850.78,324.8945 " fill="none" id="1-to-0" style="stroke:#FFFFFF;stroke-width:1.0;"/><polygon fill="#FFFFFF" points="2856.78,324.8945,2847.78,320.8945,2851.78,324.8945,2847.78,328.8945,2856.78,324.8945" style="stroke:#FFFFFF;stroke-width:1.0;"/><text fill="#FFFFFF" font-family="sans-serif" font-size="20" lengthAdjust="spacing" textLength="11" x="2815" y="319.6563">1</text></g><rect fill="none" height="60.3125" id="_legend" rx="7.5" ry="7.5" style="stroke:#000000;stroke-width:1.0;" width="293" x="1331" y="561.8925"/><text fill="#FFFFFF" font-family="sans-serif" font-size="20" lengthAdjust="spacing" textLength="281" x="1336" y="587.6542">Total Number of Machines: 7.92</text><text fill="#FFFFFF" font-family="sans-serif" font-size="20" lengthAdjust="spacing" textLength="283" x="1336" y="612.8105">Total Power required: 107.27 W</text><!--SRC=[RLLDSvim4BthLwWvfOSeQBLWyA4pRQQTvf0sZJkJOuPWnMQAmHNGDFtrtKKYW2Sdl1zwR_VjIdvNraNLRwrKwdBdykE-B2wAVUuwwowROrS-FEL5rxYNXxPxgQmg-qCb-jOMUMkbbdahpoA5yYQlUqxidNNY7415ylxzcIXojvKmP5sLhkZBJdvgo1SYElEX_B6omMMImNLRvMrN5i697c9JEFjyzifk0digFxQjFH06KUi5DNhyvdYqJcxsrdOZiuziogeiyWao7hoWG5urTTkvdbiNvobnl68cSyphUjTqqtaTXvhYR8a0oiGJXFOOT_cp_D6JrFzc2Ak0eBMyAMkYkFcbWFfI1WQ0kg5PwNJ8yeU7l0a1ee1WbYLe1REP-D7Tbsv-4i99c2jg5hCqRtJl1wV3B6bnQ4bEbG4SToMHNvg-theNSRvIEAyfdcD_T-DAW6_ssZMrzxvY9cEzkD0AL8gJLh2QmvvebOrguudQIJeXc6WgO7dUZ8f5A3S7MtKi6A4bKrV6B7LPT616LI9Oy1F4d3zUGfpKC6vC9k_i4uEGih0AKsjfzlcEiho8Nst-vqL-BolARSjj_thjmarq_19GU8B7SPrez7pkyz_EvNwZii0n58b-_fnospHp02-0PeqM2uaBdH0daKzs1yTR1RFTEJcTdEo8zsPlRrGKt8TZJvAU2RYu-A3NKjCSXCwyGSq9auH0IWQ6h1WuGhz1GCIkJ9WLVKqYaDq80jbSItu6XPuRCSU5vez6mUZncZgd271Q8lJ0I4vjQ0yqushoflnThIK_2m8qaqUXBE2oWBn3IK142eNHmOXKug712CEPXZAP7f0ocGFIO6dDkSmFiG1M0L81N04a30G4o_r2DjH15ZCQ8j4g5MPeaqWOt22dH124IOEQZ6ce2rvEWOnbCe5SAaO3Wn78C6Y6_Ybdq0i5SbL8giHKC6OpOwWJGzsO2GPZPKHbTxRUYfzDbrVoMtzuf0LedkX_gjZJ5MdNSgKo2E7RvfcYplxkwJdSyXwi5BqQzu8GFCv_]--></g></svg>