<svg xmlns="http://www.w3.org/2000/svg" xmlns:xlink="http://www.w3.org/1999/xlink" contentStyleType="text/css" height="294px" preserveAspectRatio="none" style="width:1197px;height:294px;background:#474A55;" version="1.1" viewBox="0 0 1197 294" width="1197px" zoomAndPan="magnify"><defs/><g><rect fill="#474A55" height="294" style="stroke:none;stroke-width:1.0;" width="1197" x="0" y="0"/><g id="elem_1"><ellipse cx="907.5695" cy="84.8262" fill="#ECA54E" rx="95.5695" ry="38.8262" style="stroke:#ECA54E;stroke-width:0.5;"/><text fill="#FFFFFF" font-family="sans-serif" font-size="20" lengthAdjust="spacing" textLength="118" x="845.5695" y="79.8789">0.92 Refinery</text><text fill="#FFFFFF" font-family="sans-serif" font-size="20" lengthAdjust="spacing" textLength="89" x="860.0695" y="105.0352">(27.69 W)</text></g><!--entity 2--><g id="elem_2"><rect fill="#5BB0C5" height="31.1563" rx="2.5" ry="2.5" style="stroke:#5BB0C5;stroke-width:0.5;" width="94" x="606" y="31.5"/><text fill="#FFFFFF" font-family="sans-serif" font-size="20" lengthAdjust="spacing" textLength="74" x="616" y="55.2617">Iron Ore</text></g><!--entity 5--><g id="elem_5"><rect fill="#5BB0C5" height="31.1563" rx="2.5" ry="2.5" style="stroke:#5BB0C5;stroke-width:0.5;" width="74" x="616" y="108.5"/><text fill="#FFFFFF" font-family="sans-serif" font-size="20" lengthAdjust="spacing" textLength="54" x="626" y="132.2617">Water</text></g><g id="elem_3"><ellipse cx="400.4862" cy="44.9561" fill="#ECA54E" rx="114.4862" ry="38.9561" style="stroke:#ECA54E;stroke-width:0.5;"/><text fill="#FFFFFF" font-family="sans-serif" font-size="20" lengthAdjust="spacing" textLength="144" x="325.4862" y="40.0088">0.27 Miner Mk.2</text><text fill="#FFFFFF" font-family="sans-serif" font-size="20" lengthAdjust="spacing" textLength="78" x="358.4862" y="65.1651">(3.23 W)</text></g><!--entity 4--><g id="elem_4"><polygon fill="#6A9058" points="24.5,27.5,34.5,17.5,146.5,17.5,146.5,62.6563,136.5,72.6563,24.5,72.6563,24.5,27.5" style="stroke:#6A9058;stroke-width:0.5;"/><line style="stroke:#6A9058;stroke-width:0.5;" x1="136.5" x2="146.5" y1="27.5" y2="17.5"/><line style="stroke:#6A9058;stroke-width:0.5;" x1="24.5" x2="136.5" y1="27.5" y2="27.5"/><line style="stroke:#6A9058;stroke-width:0.5;" x1="136.5" x2="136.5" y1="27.5" y2="72.6563"/><text fill="#FFFFFF" font-family="sans-serif" font-size="20" lengthAdjust="spacing" textLength="82" x="39.5" y="58.2617">Iron Mine</text></g><g id="elem_6"><ellipse cx="400.3187" cy="158.0919" fill="#ECA54E" rx="144.3187" ry="39.0919" style="stroke:#ECA54E;stroke-width:0.5;"/><text fill="#FFFFFF" font-family="sans-serif" font-size="20" lengthAdjust="spacing" textLength="185" x="304.8187" y="153.1446">0.15 Water Extractor</text><text fill="#FFFFFF" font-family="sans-serif" font-size="20" lengthAdjust="spacing" textLength="78" x="358.3187" y="178.3008">(3.08 W)</text></g><!--entity 7--><g id="elem_7"><polygon fill="#6A9058" points="16,140.5,26,130.5,155,130.5,155,175.6563,145,185.6563,16,185.6563,16,140.5" style="stroke:#6A9058;stroke-width:0.5;"/><line style="stroke:#6A9058;stroke-width:0.5;" x1="145" x2="155" y1="140.5" y2="130.5"/><line style="stroke:#6A9058;stroke-width:0.5;" x1="16" x2="145" y1="140.5" y2="140.5"/><line style="stroke:#6A9058;stroke-width:0.5;" x1="145" x2="145" y1="140.5" y2="185.6563"/><text fill="#FFFFFF" font-family="sans-serif" font-size="20" lengthAdjust="spacing" textLength="99" x="31" y="171.2617">Water Pool</text></g><!--entity 0--><g id="elem_0"><rect fill="#5BB0C5" height="31.1563" rx="2.5" ry="2.5" style="stroke:#5BB0C5;stroke-width:0.5;" width="104" x="1087" y="69.5"/><text fill="#FFFFFF" font-family="sans-serif" font-size="20" lengthAdjust="spacing" textLength="84" x="1097" y="93.2617">Iron Ingot</text></g><!--link 2 to 1--><g id="link_2_1"><path d="M700.02,53.93 C732.81,58.86 771.9867,64.7578 811.6867,70.7278 " fill="none" id="2-to-1" style="stroke:#FFFFFF;stroke-width:1.0;"/><polygon fill="#FFFFFF" points="817.62,71.62,809.3149,66.3261,812.6756,70.8765,808.1252,74.2372,817.62,71.62" style="stroke:#FFFFFF;stroke-width:1.0;"/><text fill="#FFFFFF" font-family="sans-serif" font-size="20" lengthAdjust="spacing" textLength="50" x="731" y="54.7617">32.31</text></g><!--link 5 to 1--><g id="link_5_1"><path d="M690.18,118.41 C723.38,113.28 768.0003,106.396 811.8903,99.616 " fill="none" id="5-to-1" style="stroke:#FFFFFF;stroke-width:1.0;"/><polygon fill="#FFFFFF" points="817.82,98.7,808.3148,96.1209,812.8786,99.4633,809.5362,104.0271,817.82,98.7" style="stroke:#FFFFFF;stroke-width:1.0;"/><text fill="#FFFFFF" font-family="sans-serif" font-size="20" lengthAdjust="spacing" textLength="50" x="731" y="99.7617">18.46</text></g><!--link 3 to 2--><g id="link_3_2"><path d="M515.02,45.91 C547.13,46.16 574.2702,46.3832 599.9102,46.5832 " fill="none" id="3-to-2" style="stroke:#FFFFFF;stroke-width:1.0;"/><polygon fill="#FFFFFF" points="605.91,46.63,596.9415,42.5599,600.9102,46.591,596.8791,50.5597,605.91,46.63" style="stroke:#FFFFFF;stroke-width:1.0;"/></g><!--link 6 to 5--><g id="link_6_5"><path d="M530.05,140.55 C561.65,136.26 587.0145,132.8172 609.9945,129.6972 " fill="none" id="6-to-5" style="stroke:#FFFFFF;stroke-width:1.0;"/><polygon fill="#FFFFFF" points="615.94,128.89,606.4837,126.1372,610.9855,129.5627,607.56,134.0645,615.94,128.89" style="stroke:#FFFFFF;stroke-width:1.0;"/></g><!--link 4 to 3--><g id="link_4_3"><path d="M146.85,45 C186.2,45 232.79,45 279.79,45 " fill="none" id="4-to-3" style="stroke:#FFFFFF;stroke-width:1.0;"/><polygon fill="#FFFFFF" points="285.79,45,276.79,41,280.79,45,276.79,49,285.79,45" style="stroke:#FFFFFF;stroke-width:1.0;"/><text fill="#FFFFFF" font-family="sans-serif" font-size="20" lengthAdjust="spacing" textLength="39" x="186" y="39.7617">0.27</text></g><!--link 7 to 6--><g id="link_7_6"><path d="M155.19,158 C184.88,158 214.81,158 249.87,158 " fill="none" id="7-to-6" style="stroke:#FFFFFF;stroke-width:1.0;"/><polygon fill="#FFFFFF" points="255.87,158,246.87,154,250.87,158,246.87,162,255.87,158" style="stroke:#FFFFFF;stroke-width:1.0;"/><text fill="#FFFFFF" font-family="sans-serif" font-size="20" lengthAdjust="spacing" textLength="39" x="186" y="152.7617">0.15</text></g><!--link 1 to 0--><g id="link_1_0"><path d="M1003.17,85 C1031.82,85 1056.19,85 1080.83,85 " fill="none" id="1-to-0" style="stroke:#FFFFFF;stroke-width:1.0;"/><polygon fill="#FFFFFF" points="1086.83,85,1077.83,81,1081.83,85,1077.83,89,1086.83,85" style="stroke:#FFFFFF;stroke-width:1.0;"/><text fill="#FFFFFF" font-family="sans-serif" font-size="20" lengthAdjust="spacing" textLength="22" x="1034" y="79.7617">60</text></g><rect fill="none" height="60.3125" id="_legend" rx="7.5" ry="7.5" style="stroke:#000000;stroke-width:1.0;" width="291" x="446" y="214.1837"/><text fill="#FFFFFF" font-family="sans-serif" font-size="20" lengthAdjust="spacing" textLength="281" x="451" y="239.9454">Total Number of Machines: 1.35</text><text fill="#FFFFFF" font-family="sans-serif" font-size="20" lengthAdjust="spacing" textLength="261" x="451" y="265.1017">Total Power required: 34.0 W</text><!--SRC=[HOyzRuCm48Rt-nLNfdJ0mJOV2KEt3XbeeweIO-GO9w0Id1gZbd_VWw2odExpUTzxQZhT3fL1nhPNf-vreqDTA-UDszgxRquNfRrruwdtOsjOCznQ67gZLM-Ge-enYDXUu8UvD9rn8sn4nj8zbiy1QEKg5FFEmTaEtvrPcidSB1M91FyqkT14XiN4mkAB2TX89kICwoovZ5VSjBHUfyirJt3cukklTxFr2H7jLaIsYkFHsdRn5AtaGtUrFW0HXYyyHocOv90y2hvZSGgI2W4fnGHYYZB7oJTabATJpXFWb4SvfX6qvcgw2ZwjLos-3RSp2TiB5ahNz49FK2QJPNoqFpHrvdjedAb8F6OHba3t3yeV]--></g></svg>