<svg xmlns="http://www.w3.org/2000/svg" xmlns:xlink="http://www.w3.org/1999/xlink" contentStyleType="text/css" height="626px" preserveAspectRatio="none" style="width:1438px;height:626px;background:#474A55;" version="1.1" viewBox="0 0 1438 626" width="1438px" zoomAndPan="magnify"><defs/><g><rect fill="#474A55" height="626" style="stroke:none;stroke-width:1.0;" width="1438" x="0" y="0"/><!--entity 0--><g id="elem_0"><rect fill="#5BB0C5" height="31.1563" rx="2.5" ry="2.5" style="stroke:#5BB0C5;stroke-width:0.5;" width="104" x="1328" y="308"/><text fill="#FFFFFF" font-family="sans-serif" font-size="20" lengthAdjust="spacing" textLength="84" x="1338" y="331.7617">Iron Ingot</text></g><g id="elem_1"><ellipse cx="1082.4813" cy="164.3185" fill="#ECA54E" rx="161.4813" ry="39.8185" style="stroke:#ECA54E;stroke-width:0.5;"/><text fill="#FFFFFF" font-family="sans-serif" font-size="20" lengthAdjust="spacing" textLength="73" x="1031.0226" y="151.1512">Refinery</text><line style="stroke:#ECA54E;stroke-width:1.0;" x1="925.968" x2="1238.9947" y1="155.5457" y2="155.5457"/><text fill="#FFFF00" font-family="sans-serif" font-size="20" lengthAdjust="spacing" textLength="233" x="954.0226" y="180.3074">Dico Index: ('Iron Ingot', 0)</text></g><!--entity 2--><g id="elem_2"><rect fill="#5BB0C5" height="31.1563" rx="2.5" ry="2.5" style="stroke:#5BB0C5;stroke-width:0.5;" width="94" x="699.5" y="44"/><text fill="#FFFFFF" font-family="sans-serif" font-size="20" lengthAdjust="spacing" textLength="74" x="709.5" y="67.7617">Iron Ore</text></g><g id="elem_3"><ellipse cx="446.3911" cy="46.3566" fill="#ECA54E" rx="157.3911" ry="40.3566" style="stroke:#ECA54E;stroke-width:0.5;"/><text fill="#FFFFFF" font-family="sans-serif" font-size="20" lengthAdjust="spacing" textLength="99" x="381.9583" y="34.0649">Miner Mk.2</text><line style="stroke:#ECA54E;stroke-width:1.0;" x1="293.0428" x2="599.7393" y1="38.4595" y2="38.4595"/><text fill="#FFFF00" font-family="sans-serif" font-size="20" lengthAdjust="spacing" textLength="223" x="322.9583" y="63.2212">Dico Index: ('Iron Ore', 0)</text></g><!--entity 4--><g id="elem_4"><polygon fill="#6A9058" points="31.5,29,41.5,19,153.5,19,153.5,64.1563,143.5,74.1563,31.5,74.1563,31.5,29" style="stroke:#6A9058;stroke-width:0.5;"/><line style="stroke:#6A9058;stroke-width:0.5;" x1="143.5" x2="153.5" y1="29" y2="19"/><line style="stroke:#6A9058;stroke-width:0.5;" x1="31.5" x2="143.5" y1="29" y2="29"/><line style="stroke:#6A9058;stroke-width:0.5;" x1="143.5" x2="143.5" y1="29" y2="74.1563"/><text fill="#FFFFFF" font-family="sans-serif" font-size="20" lengthAdjust="spacing" textLength="82" x="46.5" y="59.7617">Iron Mine</text></g><!--entity 5--><g id="elem_5"><rect fill="#5BB0C5" height="31.1563" rx="2.5" ry="2.5" style="stroke:#5BB0C5;stroke-width:0.5;" width="74" x="709.5" y="149"/><text fill="#FFFFFF" font-family="sans-serif" font-size="20" lengthAdjust="spacing" textLength="54" x="719.5" y="172.7617">Water</text></g><g id="elem_6"><ellipse cx="446.6109" cy="164.3163" fill="#ECA54E" rx="150.1109" ry="41.8163" style="stroke:#ECA54E;stroke-width:0.5;"/><text fill="#FFFFFF" font-family="sans-serif" font-size="20" lengthAdjust="spacing" textLength="140" x="361.5979" y="154.2938">Water Extractor</text><line style="stroke:#ECA54E;stroke-width:1.0;" x1="298.8658" x2="594.3561" y1="158.6884" y2="158.6884"/><text fill="#FFFF00" font-family="sans-serif" font-size="20" lengthAdjust="spacing" textLength="203" x="333.0979" y="183.4501">Dico Index: ('Water', 0)</text></g><!--entity 7--><g id="elem_7"><polygon fill="#6A9058" points="23,147,33,137,162,137,162,182.1563,152,192.1563,23,192.1563,23,147" style="stroke:#6A9058;stroke-width:0.5;"/><line style="stroke:#6A9058;stroke-width:0.5;" x1="152" x2="162" y1="147" y2="137"/><line style="stroke:#6A9058;stroke-width:0.5;" x1="23" x2="152" y1="147" y2="147"/><line style="stroke:#6A9058;stroke-width:0.5;" x1="152" x2="152" y1="147" y2="192.1563"/><text fill="#FFFFFF" font-family="sans-serif" font-size="20" lengthAdjust="spacing" textLength="99" x="38" y="177.7617">Water Pool</text></g><g id="elem_8"><ellipse cx="1082.3494" cy="323.2878" fill="#ECA54E" rx="161.3494" ry="39.7878" style="stroke:#ECA54E;stroke-width:0.5;"/><text fill="#FFFFFF" font-family="sans-serif" font-size="20" lengthAdjust="spacing" textLength="71" x="1031.916" y="310.072">Foundry</text><line style="stroke:#ECA54E;stroke-width:1.0;" x1="926.0155" x2="1238.6833" y1="314.4665" y2="314.4665"/><text fill="#FFFF00" font-family="sans-serif" font-size="20" lengthAdjust="spacing" textLength="233" x="953.916" y="339.2282">Dico Index: ('Iron Ingot', 1)</text></g><!--entity 9--><g id="elem_9"><rect fill="#5BB0C5" height="31.1563" rx="2.5" ry="2.5" style="stroke:#5BB0C5;stroke-width:0.5;" width="94" x="699.5" y="292"/><text fill="#FFFFFF" font-family="sans-serif" font-size="20" lengthAdjust="spacing" textLength="74" x="709.5" y="315.7617">Iron Ore</text></g><g id="elem_10"><ellipse cx="446.3911" cy="282.3566" fill="#ECA54E" rx="157.3911" ry="40.3566" style="stroke:#ECA54E;stroke-width:0.5;"/><text fill="#FFFFFF" font-family="sans-serif" font-size="20" lengthAdjust="spacing" textLength="99" x="381.9583" y="270.0649">Miner Mk.2</text><line style="stroke:#ECA54E;stroke-width:1.0;" x1="293.0428" x2="599.7393" y1="274.4595" y2="274.4595"/><text fill="#FFFF00" font-family="sans-serif" font-size="20" lengthAdjust="spacing" textLength="223" x="322.9583" y="299.2212">Dico Index: ('Iron Ore', 0)</text></g><!--entity 11--><g id="elem_11"><polygon fill="#6A9058" points="31.5,265,41.5,255,153.5,255,153.5,300.1563,143.5,310.1563,31.5,310.1563,31.5,265" style="stroke:#6A9058;stroke-width:0.5;"/><line style="stroke:#6A9058;stroke-width:0.5;" x1="143.5" x2="153.5" y1="265" y2="255"/><line style="stroke:#6A9058;stroke-width:0.5;" x1="31.5" x2="143.5" y1="265" y2="265"/><line style="stroke:#6A9058;stroke-width:0.5;" x1="143.5" x2="143.5" y1="265" y2="310.1563"/><text fill="#FFFFFF" font-family="sans-serif" font-size="20" lengthAdjust="spacing" textLength="82" x="46.5" y="295.7617">Iron Mine</text></g><!--entity 12--><g id="elem_12"><rect fill="#5BB0C5" height="31.1563" rx="2.5" ry="2.5" style="stroke:#5BB0C5;stroke-width:0.5;" width="125" x="684" y="380"/><text fill="#FFFFFF" font-family="sans-serif" font-size="20" lengthAdjust="spacing" textLength="105" x="694" y="403.7617">Copper Ore</text></g><g id="elem_13"><ellipse cx="446.268" cy="398.6459" fill="#ECA54E" rx="176.268" ry="40.1459" style="stroke:#ECA54E;stroke-width:0.5;"/><text fill="#FFFFFF" font-family="sans-serif" font-size="20" lengthAdjust="spacing" textLength="99" x="380.5791" y="385.9292">Miner Mk.2</text><line style="stroke:#ECA54E;stroke-width:1.0;" x1="274.8289" x2="617.7071" y1="390.3238" y2="390.3238"/><text fill="#FFFF00" font-family="sans-serif" font-size="20" lengthAdjust="spacing" textLength="254" x="306.0791" y="415.0855">Dico Index: ('Copper Ore', 0)</text></g><!--entity 14--><g id="elem_14"><polygon fill="#6A9058" points="16,381,26,371,169,371,169,416.1563,159,426.1563,16,426.1563,16,381" style="stroke:#6A9058;stroke-width:0.5;"/><line style="stroke:#6A9058;stroke-width:0.5;" x1="159" x2="169" y1="381" y2="371"/><line style="stroke:#6A9058;stroke-width:0.5;" x1="16" x2="159" y1="381" y2="381"/><line style="stroke:#6A9058;stroke-width:0.5;" x1="159" x2="159" y1="381" y2="426.1563"/><text fill="#FFFFFF" font-family="sans-serif" font-size="20" lengthAdjust="spacing" textLength="113" x="31" y="411.7617">Copper Mine</text></g><g id="elem_15"><ellipse cx="1082.6569" cy="460.7431" fill="#ECA54E" rx="161.1569" ry="39.7431" style="stroke:#ECA54E;stroke-width:0.5;"/><text fill="#FFFFFF" font-family="sans-serif" font-size="20" lengthAdjust="spacing" textLength="68" x="1033.7605" y="447.4563">Smelter</text><line style="stroke:#ECA54E;stroke-width:1.0;" x1="926.5856" x2="1238.7281" y1="451.8509" y2="451.8509"/><text fill="#FFFF00" font-family="sans-serif" font-size="20" lengthAdjust="spacing" textLength="233" x="954.2605" y="476.6126">Dico Index: ('Iron Ingot', 2)</text></g><!--entity 16--><g id="elem_16"><rect fill="#5BB0C5" height="31.1563" rx="2.5" ry="2.5" style="stroke:#5BB0C5;stroke-width:0.5;" width="94" x="699.5" y="458"/><text fill="#FFFFFF" font-family="sans-serif" font-size="20" lengthAdjust="spacing" textLength="74" x="709.5" y="481.7617">Iron Ore</text></g><g id="elem_17"><ellipse cx="446.3911" cy="514.3566" fill="#ECA54E" rx="157.3911" ry="40.3566" style="stroke:#ECA54E;stroke-width:0.5;"/><text fill="#FFFFFF" font-family="sans-serif" font-size="20" lengthAdjust="spacing" textLength="99" x="381.9583" y="502.0649">Miner Mk.2</text><line style="stroke:#ECA54E;stroke-width:1.0;" x1="293.0428" x2="599.7393" y1="506.4595" y2="506.4595"/><text fill="#FFFF00" font-family="sans-serif" font-size="20" lengthAdjust="spacing" textLength="223" x="322.9583" y="531.2212">Dico Index: ('Iron Ore', 0)</text></g><!--entity 18--><g id="elem_18"><polygon fill="#6A9058" points="31.5,497,41.5,487,153.5,487,153.5,532.1563,143.5,542.1563,31.5,542.1563,31.5,497" style="stroke:#6A9058;stroke-width:0.5;"/><line style="stroke:#6A9058;stroke-width:0.5;" x1="143.5" x2="153.5" y1="497" y2="487"/><line style="stroke:#6A9058;stroke-width:0.5;" x1="31.5" x2="143.5" y1="497" y2="497"/><line style="stroke:#6A9058;stroke-width:0.5;" x1="143.5" x2="143.5" y1="497" y2="542.1563"/><text fill="#FFFFFF" font-family="sans-serif" font-size="20" lengthAdjust="spacing" textLength="82" x="46.5" y="527.7617">Iron Mine</text></g><!--link 1 to 0--><g id="link_1_0"><path d="M1150.92,200.78 C1213.61,234.51 1298.7262,280.3072 1344.6162,304.9972 " fill="none" id="1-to-0" style="stroke:#FFFFFF;stroke-width:1.0;"/><polygon fill="#FFFFFF" points="1349.9,307.84,1343.8695,300.0533,1345.4968,305.471,1340.0791,307.0983,1349.9,307.84" style="stroke:#FFFFFF;stroke-width:1.0;"/><text fill="#FFFFFF" font-family="sans-serif" font-size="20" lengthAdjust="spacing" textLength="22" x="1275" y="263.2617">60</text></g><!--link 8 to 0--><g id="link_8_0"><path d="M1244.22,323.5 C1274.54,323.5 1298.13,323.5 1321.82,323.5 " fill="none" id="8-to-0" style="stroke:#FFFFFF;stroke-width:1.0;"/><polygon fill="#FFFFFF" points="1327.82,323.5,1318.82,319.5,1322.82,323.5,1318.82,327.5,1327.82,323.5" style="stroke:#FFFFFF;stroke-width:1.0;"/><text fill="#FFFFFF" font-family="sans-serif" font-size="20" lengthAdjust="spacing" textLength="22" x="1275" y="318.2617">60</text></g><!--link 15 to 0--><g id="link_15_0"><path d="M1158.83,425.57 C1218.85,397.75 1294.6064,362.6234 1339.7364,341.7034 " fill="none" id="15-to-0" style="stroke:#FFFFFF;stroke-width:1.0;"/><polygon fill="#FFFFFF" points="1345.18,339.18,1335.3324,339.336,1340.6437,341.2828,1338.6969,346.5941,1345.18,339.18" style="stroke:#FFFFFF;stroke-width:1.0;"/><text fill="#FFFFFF" font-family="sans-serif" font-size="20" lengthAdjust="spacing" textLength="22" x="1275" y="359.2617">60</text></g><!--link 2 to 1--><g id="link_2_1"><path d="M793.59,73.99 C841.91,89.18 913.606,111.7212 976.006,131.3312 " fill="none" id="2-to-1" style="stroke:#FFFFFF;stroke-width:1.0;"/><polygon fill="#FFFFFF" points="981.73,133.13,974.3432,126.6157,976.96,131.631,971.9448,134.2477,981.73,133.13" style="stroke:#FFFFFF;stroke-width:1.0;"/><text fill="#FFFFFF" font-family="sans-serif" font-size="20" lengthAdjust="spacing" textLength="50" x="840" y="86.2617">32.31</text></g><!--link 5 to 1--><g id="link_5_1"><path d="M783.56,164.5 C817.04,164.5 863.35,164.5 914.85,164.5 " fill="none" id="5-to-1" style="stroke:#FFFFFF;stroke-width:1.0;"/><polygon fill="#FFFFFF" points="920.85,164.5,911.85,160.5,915.85,164.5,911.85,168.5,920.85,164.5" style="stroke:#FFFFFF;stroke-width:1.0;"/><text fill="#FFFFFF" font-family="sans-serif" font-size="20" lengthAdjust="spacing" textLength="50" x="840" y="159.2617">18.46</text></g><!--link 3 to 2--><g id="link_3_2"><path d="M602.17,53.25 C637.75,54.8 666.8957,56.0684 693.4757,57.2284 " fill="none" id="3-to-2" style="stroke:#FFFFFF;stroke-width:1.0;"/><polygon fill="#FFFFFF" points="699.47,57.49,690.653,53.1014,694.4748,57.272,690.3042,61.0938,699.47,57.49" style="stroke:#FFFFFF;stroke-width:1.0;"/></g><!--link 4 to 3--><g id="link_4_3"><path d="M153.61,46.5 C190.92,46.5 234.73,46.5 282.64,46.5 " fill="none" id="4-to-3" style="stroke:#FFFFFF;stroke-width:1.0;"/><polygon fill="#FFFFFF" points="288.64,46.5,279.64,42.5,283.64,46.5,279.64,50.5,288.64,46.5" style="stroke:#FFFFFF;stroke-width:1.0;"/><text fill="#FFFFFF" font-family="sans-serif" font-size="20" lengthAdjust="spacing" textLength="39" x="200" y="41.2617">0.27</text></g><!--link 6 to 5--><g id="link_6_5"><path d="M596.5,164.5 C638.55,164.5 674.6,164.5 703.26,164.5 " fill="none" id="6-to-5" style="stroke:#FFFFFF;stroke-width:1.0;"/><polygon fill="#FFFFFF" points="709.26,164.5,700.26,160.5,704.26,164.5,700.26,168.5,709.26,164.5" style="stroke:#FFFFFF;stroke-width:1.0;"/></g><!--link 7 to 6--><g id="link_7_6"><path d="M162.2,164.5 C200.52,164.5 243.8,164.5 290.49,164.5 " fill="none" id="7-to-6" style="stroke:#FFFFFF;stroke-width:1.0;"/><polygon fill="#FFFFFF" points="296.49,164.5,287.49,160.5,291.49,164.5,287.49,168.5,296.49,164.5" style="stroke:#FFFFFF;stroke-width:1.0;"/><text fill="#FFFFFF" font-family="sans-serif" font-size="20" lengthAdjust="spacing" textLength="39" x="200" y="159.2617">0.15</text></g><!--link 9 to 8--><g id="link_9_8"><path d="M793.59,309.71 C827.68,311.34 870.2669,313.3828 917.8369,315.6628 " fill="none" id="9-to-8" style="stroke:#FFFFFF;stroke-width:1.0;"/><polygon fill="#FFFFFF" points="923.83,315.95,915.0318,311.5237,918.8357,315.7106,914.6488,319.5145,923.83,315.95" style="stroke:#FFFFFF;stroke-width:1.0;"/><text fill="#FFFFFF" font-family="sans-serif" font-size="20" lengthAdjust="spacing" textLength="39" x="845.5" y="307.2617">24.0</text></g><!--link 12 to 8--><g id="link_12_8"><path d="M809.15,382.21 C851.37,373.11 902.9147,361.9942 954.1347,350.9542 " fill="none" id="12-to-8" style="stroke:#FFFFFF;stroke-width:1.0;"/><polygon fill="#FFFFFF" points="960,349.69,950.3592,347.6761,955.1122,350.7435,952.0449,355.4965,960,349.69" style="stroke:#FFFFFF;stroke-width:1.0;"/><text fill="#FFFFFF" font-family="sans-serif" font-size="20" lengthAdjust="spacing" textLength="39" x="845.5" y="361.2617">24.0</text></g><!--link 10 to 9--><g id="link_10_9"><path d="M596.5,295 C633.9,298.14 665.3111,300.7677 693.2811,303.1177 " fill="none" id="10-to-9" style="stroke:#FFFFFF;stroke-width:1.0;"/><polygon fill="#FFFFFF" points="699.26,303.62,690.6265,298.8805,694.2776,303.2014,689.9567,306.8524,699.26,303.62" style="stroke:#FFFFFF;stroke-width:1.0;"/></g><!--link 11 to 10--><g id="link_11_10"><path d="M153.61,282.5 C190.92,282.5 234.73,282.5 282.64,282.5 " fill="none" id="11-to-10" style="stroke:#FFFFFF;stroke-width:1.0;"/><polygon fill="#FFFFFF" points="288.64,282.5,279.64,278.5,283.64,282.5,279.64,286.5,288.64,282.5" style="stroke:#FFFFFF;stroke-width:1.0;"/><text fill="#FFFFFF" font-family="sans-serif" font-size="20" lengthAdjust="spacing" textLength="28" x="205.5" y="277.2617">0.2</text></g><!--link 13 to 12--><g id="link_13_12"><path d="M623,396.73 C644.73,396.51 659.6903,396.3592 677.9403,396.1792 " fill="none" id="13-to-12" style="stroke:#FFFFFF;stroke-width:1.0;"/><polygon fill="#FFFFFF" points="683.94,396.12,674.901,392.209,678.9402,396.1693,674.9799,400.2086,683.94,396.12" style="stroke:#FFFFFF;stroke-width:1.0;"/></g><!--link 14 to 13--><g id="link_14_13"><path d="M169.01,398.5 C198.81,398.5 228.38,398.5 263.94,398.5 " fill="none" id="14-to-13" style="stroke:#FFFFFF;stroke-width:1.0;"/><polygon fill="#FFFFFF" points="269.94,398.5,260.94,394.5,264.94,398.5,260.94,402.5,269.94,398.5" style="stroke:#FFFFFF;stroke-width:1.0;"/><text fill="#FFFFFF" font-family="sans-serif" font-size="20" lengthAdjust="spacing" textLength="28" x="205.5" y="393.2617">0.2</text></g><!--link 16 to 15--><g id="link_16_15"><path d="M793.59,471.71 C827.59,470.38 870.0146,468.7338 917.4546,466.8838 " fill="none" id="16-to-15" style="stroke:#FFFFFF;stroke-width:1.0;"/><polygon fill="#FFFFFF" points="923.45,466.65,914.301,463.0037,918.4538,466.8448,914.6127,470.9977,923.45,466.65" style="stroke:#FFFFFF;stroke-width:1.0;"/><text fill="#FFFFFF" font-family="sans-serif" font-size="20" lengthAdjust="spacing" textLength="39" x="845.5" y="462.2617">60.0</text></g><!--link 17 to 16--><g id="link_17_16"><path d="M585.6,495.5 C626.55,489.87 662.6659,484.8971 693.3659,480.6771 " fill="none" id="17-to-16" style="stroke:#FFFFFF;stroke-width:1.0;"/><polygon fill="#FFFFFF" points="699.31,479.86,689.8491,477.1229,694.3566,480.5409,690.9386,485.0483,699.31,479.86" style="stroke:#FFFFFF;stroke-width:1.0;"/></g><!--link 18 to 17--><g id="link_18_17"><path d="M153.61,514.5 C190.92,514.5 234.73,514.5 282.64,514.5 " fill="none" id="18-to-17" style="stroke:#FFFFFF;stroke-width:1.0;"/><polygon fill="#FFFFFF" points="288.64,514.5,279.64,510.5,283.64,514.5,279.64,518.5,288.64,514.5" style="stroke:#FFFFFF;stroke-width:1.0;"/><text fill="#FFFFFF" font-family="sans-serif" font-size="20" lengthAdjust="spacing" textLength="28" x="205.5" y="509.2617">0.5</text></g><rect fill="none" height="35.1563" id="_legend" rx="7.5" ry="7.5" style="stroke:#000000;stroke-width:1.0;" width="230" x="597" y="571.7131"/><text fill="#FFFFFF" font-family="sans-serif" font-size="20" lengthAdjust="spacing" textLength="220" x="602" y="597.4748">Number of possibilities: 3</text><!--SRC=[jLHTQzim57tNhxWDWtOmAxx-ZYbvMLVeGxUoFkongBQIYYgIaMtMxDVloYvn6bBO0dsHxeVkEOTpGUspCermOWDNSYLwtLrRqzshFn8mOsVALBgl9N0-NplHFAagg9w4wwIRswPJ3ojHTTPj7zfkgoLN_KQpIhWQGX0jp6wSDN1ZrhQRiRwLbMW9TUZyb2jbfDko862NbTNMmQVXQlbMQcr_B-5ALPQ6Q_bImiNv17N-1SBFb_FXzN8sqaKJtGyd9x9ugDzwAhXzvj7_qH7K0Pcnv4KoaNdaLmdfKFqbo9g9FvkAyEsbSuDR_onYc3kc8D-3lRDMJuJ5qBcslQbFDHSFpLsyOow67-4kub5xSLpnLziqnFPMnybRdj2EAadsAKSjEyvntVSRgMa9fnaT7HgDsNjEvn_YT77eD0R1CYmX2rcnYp3TXH55M48SyHXPEYPOy2HZCIKHI-YCImXvbBECufJbT6Q-WYbRK5oK42MSGAFz9AHamT2pOpZCC_I8IBV7nFYrw44nzLhyc0UdFmgzLipzavHfkPQcPj_xpIDPPLVGsBPLZqghJicMj3DgZu_-0W00]--></g></svg>